Veleka-Regular.ufo
<glyph name="dollar" format="1">
  <advance width="562"/>
  <unicode hex="0024"/>
  <outline>
    <contour>
      <point x="414" y="171" type="curve" smooth="yes"/>
      <point x="414" y="245"/>
      <point x="362" y="271"/>
      <point x="306" y="290" type="curve"/>
      <point x="306" y="53" type="line"/>
      <point x="367" y="62"/>
      <point x="414" y="102"/>
    </contour>
    <contour>
      <point x="261" y="618" type="line"/>
      <point x="207" y="607"/>
      <point x="167" y="569"/>
      <point x="167" y="504" type="curve" smooth="yes"/>
      <point x="167" y="439"/>
      <point x="215" y="415"/>
      <point x="261" y="397" type="curve"/>
    </contour>
    <contour>
      <point x="307" y="384" type="line"/>
      <point x="306" y="383" type="line"/>
      <point x="406" y="354"/>
      <point x="504" y="318"/>
      <point x="504" y="188" type="curve" smooth="yes"/>
      <point x="504" y="100"/>
      <point x="445" y="51"/>
      <point x="386" y="22" type="curve" smooth="yes"/>
      <point x="362" y="10"/>
      <point x="334" y="0"/>
      <point x="305" y="-2" type="curve"/>
      <point x="305" y="-105" type="line"/>
      <point x="259" y="-105" type="line"/>
      <point x="259" y="-2" type="line"/>
      <point x="188" y="2"/>
      <point x="116" y="8"/>
      <point x="57" y="24" type="curve"/>
      <point x="57" y="194" type="line"/>
      <point x="107" y="194" type="line"/>
      <point x="125" y="82" type="line"/>
      <point x="149" y="55"/>
      <point x="208" y="47"/>
      <point x="259" y="47" type="curve"/>
      <point x="259" y="300" type="line"/>
      <point x="185" y="316"/>
      <point x="122" y="350"/>
      <point x="90" y="409" type="curve" smooth="yes"/>
      <point x="79" y="430"/>
      <point x="73" y="455"/>
      <point x="73" y="484" type="curve" smooth="yes"/>
      <point x="73" y="567"/>
      <point x="121" y="613"/>
      <point x="176" y="641" type="curve" smooth="yes"/>
      <point x="200" y="653"/>
      <point x="230" y="663"/>
      <point x="259" y="668" type="curve"/>
      <point x="259" y="743" type="line"/>
      <point x="305" y="743" type="line"/>
      <point x="305" y="671" type="line"/>
      <point x="369" y="671"/>
      <point x="425" y="660"/>
      <point x="476" y="648" type="curve"/>
      <point x="476" y="490" type="line"/>
      <point x="424" y="490" type="line"/>
      <point x="409" y="596" type="line"/>
      <point x="394" y="613"/>
      <point x="360" y="622"/>
      <point x="307" y="622" type="curve"/>
    </contour>
  </outline>
</glyph>
<glyph name="percent" format="1">
  <advance width="859"/>
  <unicode hex="0025"/>
  <outline>
    <contour>
      <point x="262" y="477" type="curve"/>
      <point x="261" y="476" type="line"/>
      <point x="261" y="541"/>
      <point x="254" y="606"/>
      <point x="220" y="635" type="curve" smooth="yes"/>
      <point x="211" y="643"/>
      <point x="199" y="647"/>
      <point x="185" y="647" type="curve" smooth="yes"/>
      <point x="114" y="647"/>
      <point x="106" y="549"/>
      <point x="106" y="475" type="curve" smooth="yes"/>
      <point x="106" y="407"/>
      <point x="114" y="346"/>
      <point x="150" y="316" type="curve" smooth="yes"/>
      <point x="160" y="308"/>
      <point x="172" y="304"/>
      <point x="185" y="304" type="curve" smooth="yes"/>
      <point x="235" y="304"/>
      <point x="250" y="358"/>
      <point x="257" y="405" type="curve" smooth="yes"/>
      <point x="260" y="426"/>
      <point x="262" y="450"/>
    </contour>
    <contour>
      <point x="750" y="193" type="curve"/>
      <point x="749" y="193" type="line"/>
      <point x="749" y="258"/>
      <point x="742" y="324"/>
      <point x="707" y="353" type="curve" smooth="yes"/>
      <point x="697" y="361"/>
      <point x="686" y="365"/>
      <point x="673" y="365" type="curve" smooth="yes"/>
      <point x="602" y="365"/>
      <point x="594" y="266"/>
      <point x="594" y="193" type="curve" smooth="yes"/>
      <point x="594" y="126"/>
      <point x="602" y="61"/>
      <point x="638" y="32" type="curve" smooth="yes"/>
      <point x="648" y="24"/>
      <point x="660" y="20"/>
      <point x="673" y="20" type="curve" smooth="yes"/>
      <point x="724" y="20"/>
      <point x="738" y="74"/>
      <point x="745" y="121" type="curve" smooth="yes"/>
      <point x="748" y="142"/>
      <point x="750" y="166"/>
    </contour>
    <contour>
      <point x="337" y="476" type="curve" smooth="yes"/>
      <point x="337" y="385"/>
      <point x="309" y="314"/>
      <point x="251" y="281" type="curve" smooth="yes"/>
      <point x="232" y="270"/>
      <point x="210" y="265"/>
      <point x="184" y="265" type="curve" smooth="yes"/>
      <point x="72" y="265"/>
      <point x="30" y="363"/>
      <point x="30" y="475" type="curve" smooth="yes"/>
      <point x="30" y="566"/>
      <point x="58" y="637"/>
      <point x="116" y="670" type="curve" smooth="yes"/>
      <point x="135" y="681"/>
      <point x="158" y="686"/>
      <point x="184" y="686" type="curve" smooth="yes"/>
      <point x="296" y="686"/>
      <point x="337" y="588"/>
    </contour>
    <contour>
      <point x="248" y="-1" type="line"/>
      <point x="185" y="-1" type="line"/>
      <point x="610" y="670" type="line"/>
      <point x="672" y="670" type="line"/>
    </contour>
    <contour>
      <point x="826" y="193" type="curve"/>
      <point x="823" y="193" type="line"/>
      <point x="823" y="103"/>
      <point x="795" y="31"/>
      <point x="737" y="-1" type="curve" smooth="yes"/>
      <point x="718" y="-12"/>
      <point x="696" y="-17"/>
      <point x="671" y="-17" type="curve" smooth="yes"/>
      <point x="587" y="-17"/>
      <point x="544" y="41"/>
      <point x="527" y="110" type="curve" smooth="yes"/>
      <point x="521" y="135"/>
      <point x="518" y="163"/>
      <point x="518" y="193" type="curve" smooth="yes"/>
      <point x="518" y="283"/>
      <point x="547" y="354"/>
      <point x="605" y="387" type="curve" smooth="yes"/>
      <point x="624" y="398"/>
      <point x="647" y="403"/>
      <point x="673" y="403" type="curve" smooth="yes"/>
      <point x="784" y="403"/>
      <point x="826" y="305"/>
    </contour>
  </outline>
</glyph>
<glyph name="parenleft" format="1">
  <advance width="375"/>
  <unicode hex="0028"/>
  <outline>
    <contour>
      <point x="152" y="288" type="curve" smooth="yes"/>
      <point x="152" y="99"/>
      <point x="184" y="-71"/>
      <point x="343" y="-98" type="curve"/>
      <point x="343" y="-142" type="line"/>
      <point x="136" y="-118"/>
      <point x="59" y="58"/>
      <point x="59" y="288" type="curve" smooth="yes"/>
      <point x="59" y="463"/>
      <point x="106" y="598"/>
      <point x="210" y="670" type="curve" smooth="yes"/>
      <point x="246" y="695"/>
      <point x="290" y="711"/>
      <point x="343" y="717" type="curve"/>
      <point x="343" y="673" type="line"/>
      <point x="184" y="646"/>
      <point x="152" y="477"/>
    </contour>
  </outline>
</glyph>
<glyph name="parenright" format="1">
  <advance width="375"/>
  <unicode hex="0029"/>
  <outline>
    <contour>
      <point x="224" y="288" type="curve" smooth="yes"/>
      <point x="224" y="289" type="line" smooth="yes"/>
      <point x="224" y="478"/>
      <point x="193" y="647"/>
      <point x="34" y="674" type="curve"/>
      <point x="34" y="718" type="line"/>
      <point x="240" y="694"/>
      <point x="318" y="518"/>
      <point x="318" y="289" type="curve" smooth="yes"/>
      <point x="318" y="58"/>
      <point x="241" y="-118"/>
      <point x="34" y="-142" type="curve"/>
      <point x="34" y="-98" type="line"/>
      <point x="193" y="-71"/>
      <point x="224" y="99"/>
    </contour>
  </outline>
</glyph>
<glyph name="comma" format="1">
  <advance width="279"/>
  <unicode hex="002C"/>
  <outline>
    <contour>
      <point x="123" y="122" type="curve"/>
      <point x="125" y="123" type="line"/>
      <point x="186" y="123"/>
      <point x="208" y="72"/>
      <point x="208" y="11" type="curve" smooth="yes"/>
      <point x="208" y="-72"/>
      <point x="157" y="-125"/>
      <point x="99" y="-152" type="curve" smooth="yes"/>
      <point x="78" y="-162"/>
      <point x="56" y="-168"/>
      <point x="33" y="-170" type="curve"/>
      <point x="33" y="-134" type="line"/>
      <point x="103" y="-118"/>
      <point x="146" y="-81"/>
      <point x="143" y="7" type="curve"/>
      <point x="80" y="7" type="line"/>
      <point x="70" y="17"/>
      <point x="62" y="33"/>
      <point x="62" y="53" type="curve" smooth="yes"/>
      <point x="62" y="84"/>
      <point x="79" y="105"/>
      <point x="99" y="116" type="curve" smooth="yes"/>
      <point x="106" y="120"/>
      <point x="114" y="122"/>
    </contour>
  </outline>
</glyph>
<glyph name="zero" format="1">
  <advance width="562"/>
  <unicode hex="0030"/>
  <outline>
    <contour>
      <point x="417" y="335" type="curve" smooth="yes"/>
      <point x="417" y="417"/>
      <point x="407" y="637"/>
      <point x="280" y="637" type="curve" smooth="yes"/>
      <point x="154" y="637"/>
      <point x="145" y="425"/>
      <point x="145" y="335" type="curve" smooth="yes"/>
      <point x="145" y="252"/>
      <point x="153" y="34"/>
      <point x="281" y="34" type="curve" smooth="yes"/>
      <point x="407" y="34"/>
      <point x="416" y="245"/>
    </contour>
    <contour>
      <point x="522" y="335" type="curve" smooth="yes"/>
      <point x="521" y="187"/>
      <point x="466" y="-17"/>
      <point x="281" y="-17" type="curve" smooth="yes"/>
      <point x="100" y="-17"/>
      <point x="40" y="177"/>
      <point x="40" y="335" type="curve" smooth="yes"/>
      <point x="40" y="480"/>
      <point x="95" y="687"/>
      <point x="281" y="687" type="curve" smooth="yes"/>
      <point x="466" y="687"/>
      <point x="519" y="491"/>
    </contour>
  </outline>
</glyph>
<glyph name="two" format="1">
  <advance width="562"/>
  <unicode hex="0032"/>
  <outline>
    <contour>
      <point x="121" y="479" type="curve"/>
      <point x="119" y="477" type="line"/>
      <point x="83" y="477"/>
      <point x="59" y="499"/>
      <point x="59" y="536" type="curve" smooth="yes"/>
      <point x="59" y="585"/>
      <point x="92" y="620"/>
      <point x="125" y="642" type="curve" smooth="yes"/>
      <point x="163" y="667"/>
      <point x="218" y="685"/>
      <point x="279" y="685" type="curve" smooth="yes"/>
      <point x="381" y="685"/>
      <point x="452" y="640"/>
      <point x="485" y="570" type="curve" smooth="yes"/>
      <point x="496" y="546"/>
      <point x="502" y="520"/>
      <point x="502" y="491" type="curve" smooth="yes"/>
      <point x="502" y="435"/>
      <point x="477" y="392"/>
      <point x="451" y="355" type="curve" smooth="yes"/>
      <point x="395" y="277"/>
      <point x="316" y="213"/>
      <point x="239" y="153" type="curve" smooth="yes"/>
      <point x="210" y="130"/>
      <point x="181" y="107"/>
      <point x="151" y="83" type="curve"/>
      <point x="447" y="83" type="line"/>
      <point x="465" y="169" type="line"/>
      <point x="514" y="169" type="line"/>
      <point x="514" y="-1" type="line"/>
      <point x="45" y="-1" type="line"/>
      <point x="45" y="66" type="line"/>
      <point x="96" y="108"/>
      <point x="143" y="147"/>
      <point x="186" y="182" type="curve" smooth="yes"/>
      <point x="229" y="217"/>
      <point x="266" y="251"/>
      <point x="297" y="284" type="curve" smooth="yes"/>
      <point x="328" y="317"/>
      <point x="352" y="349"/>
      <point x="369" y="381" type="curve" smooth="yes"/>
      <point x="386" y="413"/>
      <point x="395" y="447"/>
      <point x="395" y="482" type="curve" smooth="yes"/>
      <point x="395" y="554"/>
      <point x="359" y="603"/>
      <point x="307" y="623" type="curve" smooth="yes"/>
      <point x="290" y="630"/>
      <point x="272" y="633"/>
      <point x="253" y="633" type="curve" smooth="yes"/>
      <point x="222" y="633"/>
      <point x="197" y="623"/>
      <point x="178" y="611" type="curve" smooth="yes"/>
      <point x="174" y="608"/>
      <point x="171" y="607"/>
      <point x="170" y="607" type="curve" smooth="yes"/>
      <point x="170" y="496" type="line"/>
      <point x="160" y="486"/>
      <point x="142" y="479"/>
    </contour>
  </outline>
</glyph>
<glyph name="three" format="1">
  <advance width="562"/>
  <unicode hex="0033"/>
  <outline>
    <contour>
      <point x="490" y="514" type="curve" smooth="yes"/>
      <point x="490" y="513" type="line" smooth="yes"/>
      <point x="490" y="421"/>
      <point x="417" y="374"/>
      <point x="336" y="351" type="curve"/>
      <point x="413" y="349"/>
      <point x="470" y="313"/>
      <point x="499" y="260" type="curve" smooth="yes"/>
      <point x="510" y="240"/>
      <point x="516" y="216"/>
      <point x="516" y="189" type="curve" smooth="yes"/>
      <point x="516" y="121"/>
      <point x="481" y="71"/>
      <point x="439" y="40" type="curve" smooth="yes"/>
      <point x="394" y="6"/>
      <point x="330" y="-18"/>
      <point x="254" y="-18" type="curve" smooth="yes"/>
      <point x="167" y="-18"/>
      <point x="94" y="10"/>
      <point x="60" y="61" type="curve" smooth="yes"/>
      <point x="51" y="75"/>
      <point x="47" y="88"/>
      <point x="47" y="101" type="curve" smooth="yes"/>
      <point x="47" y="134"/>
      <point x="72" y="155"/>
      <point x="106" y="155" type="curve" smooth="yes"/>
      <point x="116" y="155"/>
      <point x="134" y="152"/>
      <point x="140" y="148" type="curve"/>
      <point x="170" y="59" type="line"/>
      <point x="194" y="46"/>
      <point x="222" y="33"/>
      <point x="257" y="33" type="curve" smooth="yes"/>
      <point x="331" y="33"/>
      <point x="381" y="78"/>
      <point x="402" y="132" type="curve" smooth="yes"/>
      <point x="409" y="151"/>
      <point x="413" y="171"/>
      <point x="413" y="191" type="curve" smooth="yes"/>
      <point x="413" y="278"/>
      <point x="348" y="317"/>
      <point x="263" y="317" type="curve" smooth="yes"/>
      <point x="241" y="317"/>
      <point x="221" y="315"/>
      <point x="202" y="313" type="curve"/>
      <point x="202" y="375" type="line"/>
      <point x="207" y="375"/>
      <point x="221" y="374"/>
      <point x="227" y="374" type="curve" smooth="yes"/>
      <point x="296" y="374"/>
      <point x="350" y="399"/>
      <point x="374" y="444" type="curve" smooth="yes"/>
      <point x="383" y="460"/>
      <point x="387" y="479"/>
      <point x="387" y="501" type="curve" smooth="yes"/>
      <point x="387" y="580"/>
      <point x="334" y="632"/>
      <point x="256" y="632" type="curve" smooth="yes"/>
      <point x="219" y="632"/>
      <point x="188" y="620"/>
      <point x="167" y="604" type="curve"/>
      <point x="167" y="504" type="line" smooth="yes"/>
      <point x="165" y="503"/>
      <point x="160" y="501"/>
      <point x="152" y="497" type="curve" smooth="yes"/>
      <point x="144" y="493"/>
      <point x="134" y="491"/>
      <point x="121" y="491" type="curve" smooth="yes"/>
      <point x="87" y="491"/>
      <point x="63" y="511"/>
      <point x="63" y="547" type="curve" smooth="yes"/>
      <point x="63" y="593"/>
      <point x="97" y="625"/>
      <point x="129" y="645" type="curve" smooth="yes"/>
      <point x="168" y="670"/>
      <point x="223" y="687"/>
      <point x="285" y="687" type="curve" smooth="yes"/>
      <point x="377" y="687"/>
      <point x="443" y="648"/>
      <point x="474" y="586" type="curve" smooth="yes"/>
      <point x="485" y="565"/>
      <point x="490" y="541"/>
    </contour>
  </outline>
</glyph>
<glyph name="eight" format="1">
  <advance width="562"/>
  <unicode hex="0038"/>
  <outline>
    <contour>
      <point x="133" y="188" type="curve" smooth="yes"/>
      <point x="133" y="95"/>
      <point x="188" y="38"/>
      <point x="281" y="38" type="curve" smooth="yes"/>
      <point x="347" y="38"/>
      <point x="391" y="72"/>
      <point x="411" y="118" type="curve" smooth="yes"/>
      <point x="418" y="133"/>
      <point x="421" y="149"/>
      <point x="421" y="166" type="curve" smooth="yes"/>
      <point x="421" y="212"/>
      <point x="400" y="238"/>
      <point x="370" y="258" type="curve" smooth="yes"/>
      <point x="328" y="286"/>
      <point x="278" y="303"/>
      <point x="223" y="325" type="curve"/>
      <point x="174" y="299"/>
      <point x="133" y="262"/>
    </contour>
    <contour>
      <point x="330" y="372" type="curve"/>
      <point x="331" y="371" type="line"/>
      <point x="369" y="399"/>
      <point x="404" y="439"/>
      <point x="404" y="505" type="curve" smooth="yes"/>
      <point x="404" y="581"/>
      <point x="357" y="635"/>
      <point x="282" y="635" type="curve" smooth="yes"/>
      <point x="228" y="635"/>
      <point x="192" y="603"/>
      <point x="176" y="564" type="curve" smooth="yes"/>
      <point x="170" y="550"/>
      <point x="167" y="536"/>
      <point x="167" y="521" type="curve" smooth="yes"/>
      <point x="167" y="481"/>
      <point x="186" y="455"/>
      <point x="210" y="435" type="curve" smooth="yes"/>
      <point x="241" y="408"/>
      <point x="285" y="389"/>
    </contour>
    <contour>
      <point x="523" y="181" type="curve"/>
      <point x="522" y="180" type="line"/>
      <point x="522" y="116"/>
      <point x="491" y="68"/>
      <point x="453" y="37" type="curve" smooth="yes"/>
      <point x="412" y="4"/>
      <point x="353" y="-19"/>
      <point x="281" y="-19" type="curve" smooth="yes"/>
      <point x="171" y="-19"/>
      <point x="92" y="25"/>
      <point x="57" y="99" type="curve" smooth="yes"/>
      <point x="46" y="123"/>
      <point x="40" y="149"/>
      <point x="40" y="177" type="curve" smooth="yes"/>
      <point x="40" y="274"/>
      <point x="113" y="317"/>
      <point x="183" y="345" type="curve"/>
      <point x="136" y="363"/>
      <point x="97" y="398"/>
      <point x="77" y="443" type="curve" smooth="yes"/>
      <point x="70" y="459"/>
      <point x="67" y="477"/>
      <point x="67" y="497" type="curve" smooth="yes"/>
      <point x="67" y="591"/>
      <point x="122" y="649"/>
      <point x="194" y="673" type="curve" smooth="yes"/>
      <point x="220" y="682"/>
      <point x="249" y="686"/>
      <point x="281" y="686" type="curve" smooth="yes"/>
      <point x="376" y="686"/>
      <point x="445" y="644"/>
      <point x="478" y="581" type="curve" smooth="yes"/>
      <point x="489" y="560"/>
      <point x="495" y="538"/>
      <point x="495" y="514" type="curve" smooth="yes"/>
      <point x="495" y="447"/>
      <point x="454" y="404"/>
      <point x="414" y="376" type="curve" smooth="yes"/>
      <point x="400" y="366"/>
      <point x="387" y="358"/>
      <point x="374" y="352" type="curve"/>
      <point x="431" y="331"/>
      <point x="482" y="300"/>
      <point x="509" y="247" type="curve" smooth="yes"/>
      <point x="518" y="228"/>
      <point x="523" y="206"/>
    </contour>
  </outline>
</glyph>
<glyph name="colon" format="1">
  <advance width="279"/>
  <unicode hex="003A"/>
  <outline>
    <contour>
      <point x="196" y="55" type="curve" smooth="yes"/>
      <point x="196" y="17"/>
      <point x="166" y="-12"/>
      <point x="128" y="-12" type="curve" smooth="yes"/>
      <point x="90" y="-12"/>
      <point x="61" y="17"/>
      <point x="61" y="55" type="curve" smooth="yes"/>
      <point x="61" y="87"/>
      <point x="80" y="106"/>
      <point x="102" y="116" type="curve" smooth="yes"/>
      <point x="110" y="120"/>
      <point x="119" y="122"/>
      <point x="128" y="122" type="curve" smooth="yes"/>
      <point x="166" y="122"/>
      <point x="196" y="93"/>
    </contour>
    <contour>
      <point x="196" y="427" type="curve" smooth="yes"/>
      <point x="196" y="389"/>
      <point x="166" y="360"/>
      <point x="128" y="360" type="curve" smooth="yes"/>
      <point x="90" y="360"/>
      <point x="61" y="389"/>
      <point x="61" y="427" type="curve" smooth="yes"/>
      <point x="61" y="459"/>
      <point x="80" y="478"/>
      <point x="102" y="488" type="curve" smooth="yes"/>
      <point x="110" y="492"/>
      <point x="119" y="494"/>
      <point x="128" y="494" type="curve" smooth="yes"/>
      <point x="166" y="494"/>
      <point x="196" y="465"/>
    </contour>
  </outline>
</glyph>
<glyph name="equal" format="1">
  <advance width="1000"/>
  <unicode hex="003D"/>
  <outline>
    <contour>
      <point x="200" y="178" type="line"/>
      <point x="200" y="240" type="line"/>
      <point x="800" y="240" type="line"/>
      <point x="800" y="178" type="line"/>
    </contour>
    <contour>
      <point x="200" y="360" type="line"/>
      <point x="200" y="422" type="line"/>
      <point x="800" y="422" type="line"/>
      <point x="800" y="360" type="line"/>
    </contour>
  </outline>
</glyph>
<glyph name="at" format="1">
  <advance width="936"/>
  <unicode hex="0040"/>
  <outline>
    <contour>
      <point x="364" y="229" type="curve"/>
      <point x="363" y="231" type="line"/>
      <point x="363" y="168"/>
      <point x="383" y="123"/>
      <point x="441" y="123" type="curve" smooth="yes"/>
      <point x="489" y="123"/>
      <point x="521" y="161"/>
      <point x="543" y="188" type="curve"/>
      <point x="583" y="395" type="line" smooth="yes"/>
      <point x="587" y="417"/>
      <point x="565" y="437"/>
      <point x="550" y="445" type="curve" smooth="yes"/>
      <point x="542" y="449"/>
      <point x="534" y="451"/>
      <point x="525" y="451" type="curve" smooth="yes"/>
      <point x="439" y="451"/>
      <point x="394" y="385"/>
      <point x="375" y="316" type="curve" smooth="yes"/>
      <point x="368" y="289"/>
      <point x="364" y="260"/>
    </contour>
    <contour>
      <point x="772" y="-63" type="line"/>
      <point x="772" y="-64" type="line"/>
      <point x="688" y="-109"/>
      <point x="597" y="-152"/>
      <point x="471" y="-152" type="curve" smooth="yes"/>
      <point x="349" y="-152"/>
      <point x="257" y="-107"/>
      <point x="192" y="-47" type="curve" smooth="yes"/>
      <point x="144" y="-3"/>
      <point x="109" y="55"/>
      <point x="89" y="126" type="curve" smooth="yes"/>
      <point x="79" y="161"/>
      <point x="74" y="199"/>
      <point x="74" y="240" type="curve" smooth="yes"/>
      <point x="74" y="443"/>
      <point x="173" y="572"/>
      <point x="307" y="641" type="curve" smooth="yes"/>
      <point x="366" y="671"/>
      <point x="439" y="692"/>
      <point x="523" y="692" type="curve" smooth="yes"/>
      <point x="682" y="692"/>
      <point x="789" y="623"/>
      <point x="838" y="511" type="curve" smooth="yes"/>
      <point x="855" y="471"/>
      <point x="864" y="426"/>
      <point x="864" y="375" type="curve" smooth="yes"/>
      <point x="864" y="271"/>
      <point x="829" y="195"/>
      <point x="780" y="140" type="curve" smooth="yes"/>
      <point x="751" y="107"/>
      <point x="716" y="81"/>
      <point x="673" y="66" type="curve" smooth="yes"/>
      <point x="654" y="60"/>
      <point x="636" y="57"/>
      <point x="619" y="57" type="curve" smooth="yes"/>
      <point x="563" y="57"/>
      <point x="541" y="85"/>
      <point x="541" y="140" type="curve"/>
      <point x="515" y="113"/>
      <point x="490" y="93"/>
      <point x="466" y="79" type="curve" smooth="yes"/>
      <point x="442" y="65"/>
      <point x="419" y="58"/>
      <point x="396" y="58" type="curve" smooth="yes"/>
      <point x="331" y="58"/>
      <point x="296" y="103"/>
      <point x="280" y="154" type="curve" smooth="yes"/>
      <point x="274" y="174"/>
      <point x="271" y="196"/>
      <point x="271" y="221" type="curve" smooth="yes"/>
      <point x="271" y="303"/>
      <point x="306" y="370"/>
      <point x="348" y="414" type="curve" smooth="yes"/>
      <point x="387" y="455"/>
      <point x="447" y="493"/>
      <point x="520" y="493" type="curve" smooth="yes"/>
      <point x="558" y="493"/>
      <point x="592" y="480"/>
      <point x="618" y="466" type="curve"/>
      <point x="636" y="489" type="line"/>
      <point x="692" y="489" type="line"/>
      <point x="682" y="459"/>
      <point x="676" y="422"/>
      <point x="668" y="387" type="curve" smooth="yes"/>
      <point x="656" y="333" type="line" smooth="yes"/>
      <point x="646" y="291"/>
      <point x="635" y="244"/>
      <point x="624" y="191" type="curve" smooth="yes"/>
      <point x="621" y="180"/>
      <point x="620" y="170"/>
      <point x="620" y="160" type="curve" smooth="yes"/>
      <point x="620" y="131"/>
      <point x="632" y="113"/>
      <point x="661" y="113" type="curve" smooth="yes"/>
      <point x="676" y="113"/>
      <point x="692" y="119"/>
      <point x="710" y="131" type="curve" smooth="yes"/>
      <point x="751" y="159"/>
      <point x="780" y="208"/>
      <point x="798" y="264" type="curve" smooth="yes"/>
      <point x="808" y="296"/>
      <point x="813" y="332"/>
      <point x="813" y="372" type="curve" smooth="yes"/>
      <point x="813" y="510"/>
      <point x="739" y="597"/>
      <point x="636" y="631" type="curve" smooth="yes"/>
      <point x="603" y="642"/>
      <point x="569" y="648"/>
      <point x="534" y="648" type="curve" smooth="yes"/>
      <point x="409" y="648"/>
      <point x="318" y="601"/>
      <point x="255" y="537" type="curve" smooth="yes"/>
      <point x="192" y="473"/>
      <point x="145" y="383"/>
      <point x="145" y="258" type="curve" smooth="yes"/>
      <point x="145" y="90"/>
      <point x="227" y="-23"/>
      <point x="347" y="-74" type="curve" smooth="yes"/>
      <point x="390" y="-92"/>
      <point x="439" y="-101"/>
      <point x="494" y="-101" type="curve" smooth="yes"/>
      <point x="604" y="-101"/>
      <point x="688" y="-67"/>
      <point x="758" y="-27" type="curve"/>
    </contour>
  </outline>
</glyph>
<glyph name="F" format="1">
  <advance width="541"/>
  <unicode hex="0046"/>
  <outline>
    <contour>
      <point x="452" y="512" type="line"/>
      <point x="438" y="604" type="line" smooth="yes"/>
      <point x="437" y="613"/>
      <point x="431" y="622"/>
      <point x="421" y="622" type="curve" smooth="yes"/>
      <point x="208" y="622" type="line"/>
      <point x="208" y="362" type="line"/>
      <point x="361" y="362" type="line" smooth="yes"/>
      <point x="370" y="362"/>
      <point x="378" y="373"/>
      <point x="379" y="380" type="curve" smooth="yes"/>
      <point x="388" y="450" type="line"/>
      <point x="438" y="450" type="line"/>
      <point x="438" y="225" type="line"/>
      <point x="388" y="225" type="line"/>
      <point x="379" y="295" type="line" smooth="yes"/>
      <point x="378" y="301"/>
      <point x="369" y="313"/>
      <point x="361" y="313" type="curve" smooth="yes"/>
      <point x="208" y="313" type="line"/>
      <point x="208" y="69" type="line" smooth="yes"/>
      <point x="208" y="57"/>
      <point x="217" y="48"/>
      <point x="229" y="47" type="curve" smooth="yes"/>
      <point x="296" y="43" type="line"/>
      <point x="296" y="0" type="line"/>
      <point x="33" y="0" type="line"/>
      <point x="33" y="43" type="line"/>
      <point x="86" y="47" type="line" smooth="yes"/>
      <point x="98" y="48"/>
      <point x="107" y="57"/>
      <point x="107" y="69" type="curve" smooth="yes"/>
      <point x="107" y="602" type="line" smooth="yes"/>
      <point x="107" y="614"/>
      <point x="98" y="623"/>
      <point x="86" y="624" type="curve" smooth="yes"/>
      <point x="25" y="628" type="line"/>
      <point x="25" y="671" type="line"/>
      <point x="511" y="671" type="line"/>
      <point x="511" y="512" type="line"/>
    </contour>
  </outline>
</glyph>
<glyph name="bracketleft" format="1">
  <advance width="422"/>
  <unicode hex="005B"/>
  <outline>
    <contour>
      <point x="136" y="-132" type="line"/>
      <point x="136" y="708" type="line"/>
      <point x="379" y="708" type="line"/>
      <point x="379" y="663" type="line"/>
      <point x="223" y="663" type="line"/>
      <point x="223" y="-86" type="line"/>
      <point x="379" y="-86" type="line"/>
      <point x="379" y="-132" type="line"/>
    </contour>
  </outline>
</glyph>
<glyph name="bracketright" format="1">
  <advance width="422"/>
  <unicode hex="005D"/>
  <outline>
    <contour>
      <point x="44" y="-132" type="line"/>
      <point x="44" y="-86" type="line"/>
      <point x="201" y="-86" type="line"/>
      <point x="201" y="663" type="line"/>
      <point x="44" y="663" type="line"/>
      <point x="44" y="708" type="line"/>
      <point x="288" y="708" type="line"/>
      <point x="288" y="-132" type="line"/>
    </contour>
  </outline>
</glyph>
<glyph name="o" format="1">
  <advance width="543"/>
  <unicode hex="006F"/>
  <outline>
    <contour>
      <point x="406" y="240" type="curve" smooth="yes"/>
      <point x="406" y="330"/>
      <point x="373" y="449"/>
      <point x="273" y="449" type="curve" smooth="yes"/>
      <point x="173" y="449"/>
      <point x="138" y="330"/>
      <point x="138" y="240" type="curve" smooth="yes"/>
      <point x="138" y="150"/>
      <point x="172" y="34"/>
      <point x="272" y="34" type="curve" smooth="yes"/>
      <point x="372" y="34"/>
      <point x="406" y="150"/>
    </contour>
    <contour>
      <point x="509" y="240" type="curve" smooth="yes"/>
      <point x="509" y="100"/>
      <point x="410" y="-13"/>
      <point x="270" y="-13" type="curve" smooth="yes"/>
      <point x="130" y="-13"/>
      <point x="34" y="100"/>
      <point x="34" y="240" type="curve" smooth="yes"/>
      <point x="34" y="380"/>
      <point x="133" y="494"/>
      <point x="273" y="494" type="curve" smooth="yes"/>
      <point x="413" y="494"/>
      <point x="509" y="380"/>
    </contour>
  </outline>
</glyph>
<glyph name="p" format="1">
  <advance width="559"/>
  <unicode hex="0070"/>
  <outline>
    <contour>
      <point x="183" y="50" type="line"/>
      <point x="184" y="51" type="line"/>
      <point x="207" y="43"/>
      <point x="233" y="35"/>
      <point x="265" y="35" type="curve" smooth="yes"/>
      <point x="375.095" y="35"/>
      <point x="426" y="125.489"/>
      <point x="426" y="235" type="curve" smooth="yes"/>
      <point x="426" y="334.411"/>
      <point x="383.661" y="424"/>
      <point x="285" y="424" type="curve" smooth="yes"/>
      <point x="244.831" y="424"/>
      <point x="208.827" y="409.496"/>
      <point x="183" y="394" type="curve"/>
    </contour>
    <contour>
      <point x="273" y="-11" type="curve" smooth="yes"/>
      <point x="274" y="-11" type="line" smooth="yes"/>
      <point x="242" y="-11"/>
      <point x="212" y="-7"/>
      <point x="185" y="-2" type="curve"/>
      <point x="185" y="-151" type="line" smooth="yes"/>
      <point x="185" y="-163"/>
      <point x="196" y="-170"/>
      <point x="207" y="-171" type="curve" smooth="yes"/>
      <point x="266" y="-177" type="line"/>
      <point x="266" y="-216" type="line"/>
      <point x="23" y="-216" type="line"/>
      <point x="23" y="-177" type="line"/>
      <point x="71" y="-171" type="line" smooth="yes"/>
      <point x="82" y="-170"/>
      <point x="92" y="-163"/>
      <point x="92" y="-151" type="curve" smooth="yes"/>
      <point x="92" y="412" type="line"/>
      <point x="23" y="412" type="line"/>
      <point x="23" y="445" type="line"/>
      <point x="146" y="483" type="line"/>
      <point x="185" y="483" type="line"/>
      <point x="185" y="433" type="line"/>
      <point x="220.609" y="462.015"/>
      <point x="270.923" y="494"/>
      <point x="335" y="494" type="curve" smooth="yes"/>
      <point x="460.119" y="494"/>
      <point x="525" y="375.777"/>
      <point x="525" y="248" type="curve" smooth="yes"/>
      <point x="525" y="88.2624"/>
      <point x="432.403" y="-11"/>
    </contour>
  </outline>
</glyph>
<glyph name="braceright" format="1">
  <advance width="487"/>
  <unicode hex="007D"/>
  <outline>
    <contour>
      <point x="428" y="268" type="line"/>
      <point x="427" y="264" type="line"/>
      <point x="360" y="264"/>
      <point x="309" y="258"/>
      <point x="293" y="208" type="curve" smooth="yes"/>
      <point x="286" y="186"/>
      <point x="282" y="160"/>
      <point x="282" y="132" type="curve" smooth="yes"/>
      <point x="282" y="46" type="line" smooth="yes"/>
      <point x="282" y="-27"/>
      <point x="261" y="-81"/>
      <point x="210" y="-105" type="curve" smooth="yes"/>
      <point x="173" y="-122"/>
      <point x="122" y="-127"/>
      <point x="68" y="-127" type="curve"/>
      <point x="68" y="-86" type="line"/>
      <point x="123" y="-86"/>
      <point x="174" y="-72"/>
      <point x="186" y="-28" type="curve" smooth="yes"/>
      <point x="192" y="-5"/>
      <point x="195" y="21"/>
      <point x="195" y="50" type="curve" smooth="yes"/>
      <point x="195" y="93" type="line" smooth="yes"/>
      <point x="195" y="149"/>
      <point x="200" y="198"/>
      <point x="224" y="230" type="curve" smooth="yes"/>
      <point x="249" y="263"/>
      <point x="285" y="278"/>
      <point x="330" y="288" type="curve"/>
      <point x="246" y="304"/>
      <point x="198" y="349"/>
      <point x="195" y="447" type="curve" smooth="yes"/>
      <point x="195" y="483" type="line"/>
      <point x="195" y="526" type="line" smooth="yes"/>
      <point x="195" y="584"/>
      <point x="189" y="631"/>
      <point x="147" y="648" type="curve" smooth="yes"/>
      <point x="125" y="657"/>
      <point x="98" y="662"/>
      <point x="69" y="662" type="curve"/>
      <point x="69" y="703" type="line"/>
      <point x="140" y="703"/>
      <point x="207" y="695"/>
      <point x="243" y="659" type="curve" smooth="yes"/>
      <point x="272" y="629"/>
      <point x="284" y="588"/>
      <point x="284" y="531" type="curve" smooth="yes"/>
      <point x="284" y="445" type="line" smooth="yes"/>
      <point x="284" y="403"/>
      <point x="290" y="360"/>
      <point x="312" y="340" type="curve" smooth="yes"/>
      <point x="338" y="315"/>
      <point x="375" y="313"/>
      <point x="428" y="313" type="curve"/>
    </contour>
  </outline>
</glyph>
<glyph name="exclamdown" format="1">
  <advance width="337"/>
  <unicode hex="00A1"/>
  <outline>
    <contour>
      <point x="169" y="-205" type="curve" smooth="yes"/>
      <point x="168" y="-205" type="line" smooth="yes"/>
      <point x="122" y="-205"/>
      <point x="102" y="-177"/>
      <point x="107" y="-128" type="curve" smooth="yes"/>
      <point x="144" y="301" type="line"/>
      <point x="192" y="301" type="line"/>
      <point x="228" y="-128" type="line" smooth="yes"/>
      <point x="233" y="-177"/>
      <point x="216" y="-205"/>
    </contour>
    <contour>
      <point x="168" y="494" type="curve" smooth="yes"/>
      <point x="203" y="494"/>
      <point x="229" y="467"/>
      <point x="229" y="432" type="curve" smooth="yes"/>
      <point x="229" y="396"/>
      <point x="204" y="371"/>
      <point x="168" y="371" type="curve" smooth="yes"/>
      <point x="132" y="371"/>
      <point x="106" y="396"/>
      <point x="106" y="432" type="curve" smooth="yes"/>
      <point x="106" y="467"/>
      <point x="133" y="494"/>
    </contour>
  </outline>
</glyph>
<glyph name="cent" format="1">
  <advance width="562"/>
  <unicode hex="00A2"/>
  <outline>
    <contour>
      <point x="295" y="454" type="line"/>
      <point x="293" y="453" type="line"/>
      <point x="260" y="446"/>
      <point x="232" y="422"/>
      <point x="213" y="396" type="curve" smooth="yes"/>
      <point x="188" y="363"/>
      <point x="171" y="315"/>
      <point x="171" y="255" type="curve" smooth="yes"/>
      <point x="171" y="171"/>
      <point x="198" y="108"/>
      <point x="247" y="73" type="curve" smooth="yes"/>
      <point x="262" y="62"/>
      <point x="278" y="55"/>
      <point x="295" y="51" type="curve"/>
    </contour>
    <contour>
      <point x="341" y="505" type="line"/>
      <point x="339" y="503" type="line"/>
      <point x="397" y="503"/>
      <point x="439" y="491"/>
      <point x="483" y="478" type="curve"/>
      <point x="483" y="331" type="line"/>
      <point x="435" y="331" type="line"/>
      <point x="421" y="418" type="line" smooth="yes"/>
      <point x="416" y="449"/>
      <point x="376" y="454"/>
      <point x="339" y="454" type="curve"/>
      <point x="339" y="45" type="line"/>
      <point x="350" y="45"/>
      <point x="360" y="46"/>
      <point x="368" y="48" type="curve" smooth="yes"/>
      <point x="391" y="53" type="line" smooth="yes"/>
      <point x="402" y="56"/>
      <point x="412" y="58"/>
      <point x="417" y="67" type="curve" smooth="yes"/>
      <point x="419" y="70"/>
      <point x="421" y="73"/>
      <point x="422" y="76" type="curve" smooth="yes"/>
      <point x="435" y="172" type="line"/>
      <point x="484" y="172" type="line"/>
      <point x="484" y="21" type="line"/>
      <point x="478" y="15"/>
      <point x="461" y="12"/>
      <point x="447" y="9" type="curve" smooth="yes"/>
      <point x="417" y="2"/>
      <point x="381" y="-1"/>
      <point x="341" y="-1" type="curve"/>
      <point x="341" y="-100" type="line"/>
      <point x="293" y="-100" type="line"/>
      <point x="293" y="1" type="line"/>
      <point x="189" y="13"/>
      <point x="118" y="70"/>
      <point x="88" y="156" type="curve" smooth="yes"/>
      <point x="78" y="185"/>
      <point x="73" y="217"/>
      <point x="73" y="251" type="curve" smooth="yes"/>
      <point x="73" y="360"/>
      <point x="129" y="435"/>
      <point x="203" y="473" type="curve" smooth="yes"/>
      <point x="230" y="487"/>
      <point x="260" y="496"/>
      <point x="293" y="501" type="curve"/>
      <point x="293" y="603" type="line"/>
      <point x="341" y="603" type="line"/>
    </contour>
  </outline>
</glyph>
<glyph name="sterling" format="1">
  <advance width="562"/>
  <unicode hex="00A3"/>
  <outline>
    <contour>
      <point x="152" y="256" type="curve"/>
      <point x="153" y="256" type="line" smooth="yes"/>
      <point x="156" y="259"/>
      <point x="153" y="286"/>
      <point x="153" y="294" type="curve" smooth="yes"/>
      <point x="152" y="329" type="line"/>
      <point x="82" y="329" type="line"/>
      <point x="82" y="378" type="line"/>
      <point x="151" y="378" type="line"/>
      <point x="151" y="393"/>
      <point x="151" y="408"/>
      <point x="150" y="422" type="curve" smooth="yes"/>
      <point x="150" y="488" type="line" smooth="yes"/>
      <point x="150" y="600"/>
      <point x="192" y="680"/>
      <point x="268" y="717" type="curve" smooth="yes"/>
      <point x="295" y="730"/>
      <point x="327" y="737"/>
      <point x="364" y="737" type="curve" smooth="yes"/>
      <point x="425" y="737"/>
      <point x="478" y="715"/>
      <point x="506" y="680" type="curve" smooth="yes"/>
      <point x="517" y="667"/>
      <point x="522" y="651"/>
      <point x="522" y="632" type="curve" smooth="yes"/>
      <point x="522" y="598"/>
      <point x="494" y="575"/>
      <point x="460" y="575" type="curve" smooth="yes"/>
      <point x="448" y="575"/>
      <point x="436" y="578"/>
      <point x="424" y="580" type="curve"/>
      <point x="424" y="680" type="line"/>
      <point x="411" y="684"/>
      <point x="394" y="688"/>
      <point x="378" y="688" type="curve" smooth="yes"/>
      <point x="270" y="688"/>
      <point x="244" y="598"/>
      <point x="244" y="490" type="curve" smooth="yes"/>
      <point x="244" y="468"/>
      <point x="245" y="440"/>
      <point x="245" y="418" type="curve" smooth="yes"/>
      <point x="246" y="379" type="line"/>
      <point x="432" y="379" type="line"/>
      <point x="432" y="330" type="line"/>
      <point x="246" y="330" type="line"/>
      <point x="246" y="237"/>
      <point x="235" y="172"/>
      <point x="193" y="122" type="curve" smooth="yes"/>
      <point x="179" y="106"/>
      <point x="161" y="91"/>
      <point x="139" y="77" type="curve"/>
      <point x="151" y="78"/>
      <point x="162" y="79"/>
      <point x="173" y="80" type="curve" smooth="yes"/>
      <point x="201" y="82" type="line" smooth="yes"/>
      <point x="210" y="83"/>
      <point x="217" y="83"/>
      <point x="222" y="83" type="curve" smooth="yes"/>
      <point x="518" y="83" type="line"/>
      <point x="518" y="1" type="line"/>
      <point x="43" y="1" type="line"/>
      <point x="43" y="62" type="line"/>
      <point x="126" y="83"/>
      <point x="152" y="152"/>
    </contour>
  </outline>
</glyph>
<glyph name="three.superior" format="1">
  <advance width="366"/>
  <unicode hex="00B3"/>
  <outline>
    <contour>
      <point x="318" y="691" type="curve" smooth="yes"/>
      <point x="318" y="633"/>
      <point x="270" y="606"/>
      <point x="219" y="592" type="curve"/>
      <point x="268" y="590"/>
      <point x="305" y="572"/>
      <point x="325" y="539" type="curve" smooth="yes"/>
      <point x="332" y="527"/>
      <point x="336" y="513"/>
      <point x="336" y="496" type="curve" smooth="yes"/>
      <point x="336" y="432"/>
      <point x="284" y="397"/>
      <point x="232" y="382" type="curve" smooth="yes"/>
      <point x="211" y="376"/>
      <point x="189" y="373"/>
      <point x="166" y="373" type="curve" smooth="yes"/>
      <point x="111" y="373"/>
      <point x="63" y="388"/>
      <point x="41" y="419" type="curve" smooth="yes"/>
      <point x="35" y="427"/>
      <point x="32" y="435"/>
      <point x="32" y="442" type="curve" smooth="yes"/>
      <point x="32" y="462"/>
      <point x="48" y="475"/>
      <point x="70" y="475" type="curve" smooth="yes"/>
      <point x="77" y="475"/>
      <point x="88" y="474"/>
      <point x="92" y="471" type="curve" smooth="yes"/>
      <point x="112" y="417" type="line"/>
      <point x="129" y="408"/>
      <point x="148" y="404"/>
      <point x="169" y="404" type="curve" smooth="yes"/>
      <point x="216" y="404"/>
      <point x="247" y="429"/>
      <point x="262" y="462" type="curve" smooth="yes"/>
      <point x="267" y="473"/>
      <point x="270" y="485"/>
      <point x="270" y="497" type="curve" smooth="yes"/>
      <point x="270" y="551"/>
      <point x="225" y="572"/>
      <point x="172" y="572" type="curve" smooth="yes"/>
      <point x="157" y="572"/>
      <point x="146" y="569"/>
      <point x="133" y="569" type="curve"/>
      <point x="133" y="607" type="line" smooth="yes"/>
      <point x="136" y="607"/>
      <point x="147" y="606"/>
      <point x="150" y="606" type="curve" smooth="yes"/>
      <point x="195" y="606"/>
      <point x="229" y="620"/>
      <point x="246" y="648" type="curve" smooth="yes"/>
      <point x="252" y="658"/>
      <point x="255" y="670"/>
      <point x="255" y="683" type="curve" smooth="yes"/>
      <point x="255" y="732"/>
      <point x="218" y="759"/>
      <point x="170" y="759" type="curve" smooth="yes"/>
      <point x="146" y="759"/>
      <point x="125" y="752"/>
      <point x="110" y="744" type="curve"/>
      <point x="110" y="685" type="line"/>
      <point x="105" y="680"/>
      <point x="91" y="676"/>
      <point x="80" y="676" type="curve" smooth="yes"/>
      <point x="58" y="676"/>
      <point x="43" y="688"/>
      <point x="43" y="710" type="curve" smooth="yes"/>
      <point x="43" y="738"/>
      <point x="65" y="757"/>
      <point x="85" y="768" type="curve" smooth="yes"/>
      <point x="110" y="782"/>
      <point x="146" y="791"/>
      <point x="185" y="791" type="curve" smooth="yes"/>
      <point x="243" y="791"/>
      <point x="286" y="770"/>
      <point x="307" y="733" type="curve" smooth="yes"/>
      <point x="314" y="721"/>
      <point x="318" y="707"/>
    </contour>
  </outline>
</glyph>
<glyph name="mu" format="1">
  <advance width="546"/>
  <unicode hex="00B5"/>
  <outline>
    <contour>
      <point x="491" y="45" type="curve"/>
      <point x="489" y="46" type="line"/>
      <point x="520" y="46"/>
      <point x="525" y="81"/>
      <point x="531" y="109" type="curve"/>
      <point x="551" y="109" type="line"/>
      <point x="547" y="42"/>
      <point x="519" y="-11"/>
      <point x="451" y="-11" type="curve" smooth="yes"/>
      <point x="393" y="-11"/>
      <point x="371" y="33"/>
      <point x="363" y="86" type="curve"/>
      <point x="339" y="57"/>
      <point x="316" y="32"/>
      <point x="287" y="12" type="curve" smooth="yes"/>
      <point x="267" y="-2"/>
      <point x="245" y="-12"/>
      <point x="214" y="-12" type="curve" smooth="yes"/>
      <point x="173" y="-12"/>
      <point x="142" y="5"/>
      <point x="126" y="32" type="curve"/>
      <point x="126" y="8" type="line" smooth="yes"/>
      <point x="126" y="-43"/>
      <point x="139" y="-87"/>
      <point x="147" y="-130" type="curve" smooth="yes"/>
      <point x="149" y="-143"/>
      <point x="150" y="-155"/>
      <point x="150" y="-165" type="curve" smooth="yes"/>
      <point x="150" y="-195"/>
      <point x="132" y="-222"/>
      <point x="102" y="-222" type="curve" smooth="yes"/>
      <point x="74" y="-222"/>
      <point x="58" y="-195"/>
      <point x="58" y="-167" type="curve" smooth="yes"/>
      <point x="58" y="-133"/>
      <point x="67" y="-110"/>
      <point x="74" y="-81" type="curve" smooth="yes"/>
      <point x="87" y="-28"/>
      <point x="90" y="31"/>
      <point x="90" y="101" type="curve" smooth="yes"/>
      <point x="90" y="482" type="line"/>
      <point x="183" y="482" type="line"/>
      <point x="183" y="197" type="line" smooth="yes"/>
      <point x="183" y="127"/>
      <point x="184" y="74"/>
      <point x="233" y="55" type="curve" smooth="yes"/>
      <point x="240" y="52"/>
      <point x="247" y="51"/>
      <point x="255" y="51" type="curve" smooth="yes"/>
      <point x="274" y="51"/>
      <point x="292" y="57"/>
      <point x="309" y="69" type="curve" smooth="yes"/>
      <point x="326" y="81"/>
      <point x="344" y="98"/>
      <point x="364" y="121" type="curve"/>
      <point x="364" y="483" type="line"/>
      <point x="457" y="483" type="line"/>
      <point x="457" y="138" type="line" smooth="yes"/>
      <point x="457" y="103"/>
      <point x="457" y="76"/>
      <point x="467" y="57" type="curve" smooth="yes"/>
      <point x="473" y="47"/>
      <point x="478" y="45"/>
    </contour>
  </outline>
</glyph>
<glyph name="questiondown" format="1">
  <advance width="485"/>
  <unicode hex="00BF"/>
  <outline>
    <contour>
      <point x="371" y="-52" type="curve" smooth="yes"/>
      <point x="369" y="-50" type="line"/>
      <point x="407" y="-50"/>
      <point x="434" y="-67"/>
      <point x="434" y="-105" type="curve" smooth="yes"/>
      <point x="434" y="-136"/>
      <point x="416" y="-158"/>
      <point x="396" y="-173" type="curve" smooth="yes"/>
      <point x="368" y="-193"/>
      <point x="327" y="-204"/>
      <point x="276" y="-204" type="curve" smooth="yes"/>
      <point x="182" y="-204"/>
      <point x="115" y="-163"/>
      <point x="84" y="-99" type="curve" smooth="yes"/>
      <point x="73" y="-77"/>
      <point x="68" y="-52"/>
      <point x="68" y="-25" type="curve" smooth="yes"/>
      <point x="68" y="41"/>
      <point x="98" y="87"/>
      <point x="134" y="119" type="curve" smooth="yes"/>
      <point x="169" y="150"/>
      <point x="215" y="173"/>
      <point x="258" y="192" type="curve"/>
      <point x="258" y="304" type="line"/>
      <point x="314" y="304" type="line"/>
      <point x="314" y="159" type="line"/>
      <point x="257" y="139"/>
      <point x="209" y="103"/>
      <point x="184" y="49" type="curve" smooth="yes"/>
      <point x="175" y="29"/>
      <point x="170" y="7"/>
      <point x="170" y="-18" type="curve" smooth="yes"/>
      <point x="170" y="-110"/>
      <point x="221" y="-155"/>
      <point x="313" y="-155" type="curve"/>
      <point x="354" y="-54" type="line"/>
      <point x="362" y="-53" type="line" smooth="yes"/>
      <point x="365" y="-53"/>
      <point x="369" y="-52"/>
    </contour>
    <contour>
      <point x="222" y="435" type="curve" smooth="yes"/>
      <point x="222" y="471"/>
      <point x="248" y="496"/>
      <point x="284" y="496" type="curve" smooth="yes"/>
      <point x="319" y="496"/>
      <point x="345" y="469"/>
      <point x="345" y="434" type="curve" smooth="yes"/>
      <point x="345" y="399"/>
      <point x="319" y="373"/>
      <point x="284" y="373" type="curve" smooth="yes"/>
      <point x="248" y="373"/>
      <point x="222" y="399"/>
    </contour>
  </outline>
</glyph>
<glyph name="Aring" format="1">
  <advance width="673"/>
  <unicode hex="00C5"/>
  <outline>
    <contour>
      <point x="314" y="558" type="line"/>
      <point x="217" y="296" type="line"/>
      <point x="412" y="296" type="line"/>
    </contour>
    <contour>
      <point x="431" y="0" type="line"/>
      <point x="431" y="44" type="line"/>
      <point x="489" y="49" type="line" smooth="yes"/>
      <point x="495" y="49"/>
      <point x="501" y="60"/>
      <point x="499" y="66" type="curve" smooth="yes"/>
      <point x="430" y="249" type="line"/>
      <point x="199" y="249" type="line"/>
      <point x="133" y="69" type="line" smooth="yes"/>
      <point x="130" y="61"/>
      <point x="139" y="49"/>
      <point x="147" y="49" type="curve" smooth="yes"/>
      <point x="206" y="44" type="line"/>
      <point x="206" y="1" type="line"/>
      <point x="5" y="1" type="line"/>
      <point x="5" y="44" type="line"/>
      <point x="63" y="56" type="line"/>
      <point x="296" y="688" type="line"/>
      <point x="371" y="688" type="line"/>
      <point x="603" y="71" type="line" smooth="yes"/>
      <point x="607" y="57"/>
      <point x="609" y="54"/>
      <point x="624" y="51" type="curve" smooth="yes"/>
      <point x="669" y="43" type="line"/>
      <point x="669" y="0" type="line"/>
    </contour>
    <contour>
      <point x="404" y="865" type="curve" smooth="yes"/>
      <point x="404" y="864" type="line" smooth="yes"/>
      <point x="404" y="905"/>
      <point x="374" y="935"/>
      <point x="334" y="935" type="curve" smooth="yes"/>
      <point x="301" y="935"/>
      <point x="280" y="915"/>
      <point x="270" y="892" type="curve" smooth="yes"/>
      <point x="266" y="884"/>
      <point x="264" y="875"/>
      <point x="264" y="865" type="curve" smooth="yes"/>
      <point x="264" y="825"/>
      <point x="294" y="795"/>
      <point x="334" y="795" type="curve" smooth="yes"/>
      <point x="374" y="795"/>
      <point x="404" y="825"/>
    </contour>
    <contour>
      <point x="453" y="864" type="curve" smooth="yes"/>
      <point x="453" y="810"/>
      <point x="419" y="771"/>
      <point x="380" y="755" type="curve" smooth="yes"/>
      <point x="366" y="749"/>
      <point x="351" y="746"/>
      <point x="334" y="746" type="curve" smooth="yes"/>
      <point x="278" y="746"/>
      <point x="242" y="779"/>
      <point x="224" y="819" type="curve" smooth="yes"/>
      <point x="218" y="833"/>
      <point x="215" y="848"/>
      <point x="215" y="864" type="curve" smooth="yes"/>
      <point x="215" y="919"/>
      <point x="249" y="957"/>
      <point x="288" y="974" type="curve" smooth="yes"/>
      <point x="302" y="980"/>
      <point x="318" y="983"/>
      <point x="335" y="983" type="curve" smooth="yes"/>
      <point x="391" y="983"/>
      <point x="427" y="949"/>
      <point x="444" y="910" type="curve" smooth="yes"/>
      <point x="450" y="896"/>
      <point x="453" y="881"/>
    </contour>
  </outline>
</glyph>
<glyph name="AE" format="1">
  <advance width="933"/>
  <unicode hex="00C6"/>
  <outline>
    <contour>
      <point x="481" y="625" type="line"/>
      <point x="278" y="299" type="line"/>
      <point x="481" y="299" type="line"/>
    </contour>
    <contour>
      <point x="811" y="49" type="line"/>
      <point x="811" y="50" type="line"/>
      <point x="819" y="50"/>
      <point x="829" y="61"/>
      <point x="829" y="69" type="curve" smooth="yes"/>
      <point x="844" y="168" type="line"/>
      <point x="901" y="168" type="line"/>
      <point x="901" y="1" type="line"/>
      <point x="406" y="1" type="line"/>
      <point x="406" y="44" type="line"/>
      <point x="455" y="48" type="line" smooth="yes"/>
      <point x="467" y="49"/>
      <point x="481" y="58"/>
      <point x="481" y="70" type="curve" smooth="yes"/>
      <point x="481" y="251" type="line"/>
      <point x="250" y="251" type="line"/>
      <point x="138" y="70" type="line" smooth="yes"/>
      <point x="132" y="60"/>
      <point x="135" y="50"/>
      <point x="145" y="49" type="curve" smooth="yes"/>
      <point x="202" y="44" type="line"/>
      <point x="202" y="1" type="line"/>
      <point x="5" y="1" type="line"/>
      <point x="5" y="44" type="line"/>
      <point x="58" y="52" type="line"/>
      <point x="398" y="604" type="line" smooth="yes"/>
      <point x="404" y="614"/>
      <point x="391" y="623"/>
      <point x="384" y="624" type="curve" smooth="yes"/>
      <point x="335" y="629" type="line"/>
      <point x="335" y="671" type="line"/>
      <point x="865" y="671" type="line"/>
      <point x="865" y="522" type="line"/>
      <point x="807" y="522" type="line"/>
      <point x="793" y="604" type="line" smooth="yes"/>
      <point x="792" y="613"/>
      <point x="786" y="623"/>
      <point x="776" y="623" type="curve" smooth="yes"/>
      <point x="582" y="623" type="line"/>
      <point x="582" y="374" type="line"/>
      <point x="708" y="373" type="line" smooth="yes"/>
      <point x="717" y="373"/>
      <point x="725" y="384"/>
      <point x="726" y="391" type="curve" smooth="yes"/>
      <point x="735" y="460" type="line"/>
      <point x="784" y="460" type="line"/>
      <point x="784" y="237" type="line"/>
      <point x="735" y="237" type="line"/>
      <point x="726" y="307" type="line" smooth="yes"/>
      <point x="725" y="313"/>
      <point x="716" y="324"/>
      <point x="708" y="324" type="curve" smooth="yes"/>
      <point x="582" y="324" type="line"/>
      <point x="582" y="49" type="line"/>
    </contour>
  </outline>
</glyph>
<glyph name="Ccedilla" format="1">
  <advance width="626"/>
  <unicode hex="00C7"/>
  <outline>
    <contour>
      <point x="400" y="-59" type="curve"/>
      <point x="404" y="-61" type="line"/>
      <point x="449" y="-61"/>
      <point x="476" y="-86"/>
      <point x="476" y="-132" type="curve" smooth="yes"/>
      <point x="476" y="-197"/>
      <point x="424" y="-227"/>
      <point x="359" y="-227" type="curve" smooth="yes"/>
      <point x="332" y="-227"/>
      <point x="307" y="-223"/>
      <point x="286" y="-217" type="curve"/>
      <point x="286" y="-178" type="line"/>
      <point x="304" y="-182"/>
      <point x="325" y="-186"/>
      <point x="347" y="-186" type="curve" smooth="yes"/>
      <point x="379" y="-186"/>
      <point x="411" y="-177"/>
      <point x="411" y="-145" type="curve" smooth="yes"/>
      <point x="411" y="-119"/>
      <point x="390" y="-108"/>
      <point x="364" y="-108" type="curve" smooth="yes"/>
      <point x="355" y="-108"/>
      <point x="348" y="-111"/>
      <point x="341" y="-114" type="curve"/>
      <point x="341" y="-15" type="line"/>
      <point x="217" y="-1"/>
      <point x="131" y="71"/>
      <point x="84" y="163" type="curve" smooth="yes"/>
      <point x="60" y="210"/>
      <point x="43" y="268"/>
      <point x="43" y="336" type="curve" smooth="yes"/>
      <point x="43" y="447"/>
      <point x="83" y="531"/>
      <point x="140" y="589" type="curve" smooth="yes"/>
      <point x="197" y="647"/>
      <point x="282" y="687"/>
      <point x="393" y="687" type="curve" smooth="yes"/>
      <point x="472" y="687"/>
      <point x="529" y="667"/>
      <point x="592" y="648" type="curve"/>
      <point x="592" y="491" type="line"/>
      <point x="532" y="491" type="line"/>
      <point x="517" y="582" type="line" smooth="yes"/>
      <point x="514" y="600"/>
      <point x="498" y="605"/>
      <point x="484" y="612" type="curve" smooth="yes"/>
      <point x="461" y="623"/>
      <point x="432" y="632"/>
      <point x="397" y="632" type="curve" smooth="yes"/>
      <point x="276" y="632"/>
      <point x="205" y="559"/>
      <point x="174" y="465" type="curve" smooth="yes"/>
      <point x="162" y="428"/>
      <point x="156" y="386"/>
      <point x="156" y="338" type="curve" smooth="yes"/>
      <point x="156" y="199"/>
      <point x="207" y="102"/>
      <point x="303" y="60" type="curve" smooth="yes"/>
      <point x="334" y="46"/>
      <point x="369" y="39"/>
      <point x="408" y="39" type="curve" smooth="yes"/>
      <point x="436" y="39"/>
      <point x="463" y="44"/>
      <point x="481" y="53" type="curve" smooth="yes"/>
      <point x="485" y="55"/>
      <point x="487" y="56"/>
      <point x="488" y="56" type="curve" smooth="yes"/>
      <point x="498" y="60"/>
      <point x="504" y="67"/>
      <point x="507" y="76" type="curve" smooth="yes"/>
      <point x="530" y="185" type="line"/>
      <point x="588" y="185" type="line"/>
      <point x="588" y="23" type="line"/>
      <point x="573" y="15"/>
      <point x="549" y="9"/>
      <point x="525" y="3" type="curve" smooth="yes"/>
      <point x="487" y="-7"/>
      <point x="436" y="-16"/>
      <point x="388" y="-16" type="curve" smooth="yes"/>
      <point x="376" y="-16" type="line"/>
      <point x="376" y="-63" type="line"/>
      <point x="384" y="-61"/>
      <point x="390" y="-59"/>
    </contour>
  </outline>
</glyph>
<glyph name="Eacute" format="1">
  <advance width="583"/>
  <unicode hex="00C9"/>
  <outline>
    <contour>
      <point x="376" y="306" type="line"/>
      <point x="377" y="306" type="line"/>
      <point x="377" y="313"/>
      <point x="366" y="324"/>
      <point x="359" y="324" type="curve" smooth="yes"/>
      <point x="209" y="324" type="line"/>
      <point x="209" y="49" type="line"/>
      <point x="462" y="49" type="line" smooth="yes"/>
      <point x="470" y="49"/>
      <point x="478" y="61"/>
      <point x="479" y="68" type="curve" smooth="yes"/>
      <point x="497" y="167" type="line"/>
      <point x="551" y="167" type="line"/>
      <point x="551" y="0" type="line"/>
      <point x="32" y="0" type="line"/>
      <point x="32" y="43" type="line"/>
      <point x="84" y="47" type="line" smooth="yes"/>
      <point x="96" y="48"/>
      <point x="106" y="57"/>
      <point x="106" y="69" type="curve" smooth="yes"/>
      <point x="106" y="602" type="line" smooth="yes"/>
      <point x="106" y="614"/>
      <point x="96" y="623"/>
      <point x="84" y="624" type="curve" smooth="yes"/>
      <point x="32" y="628" type="line"/>
      <point x="32" y="671" type="line"/>
      <point x="518" y="671" type="line"/>
      <point x="518" y="522" type="line"/>
      <point x="458" y="522" type="line"/>
      <point x="443" y="604" type="line" smooth="yes"/>
      <point x="442" y="613"/>
      <point x="435" y="623"/>
      <point x="425" y="623" type="curve" smooth="yes"/>
      <point x="208" y="623" type="line"/>
      <point x="208" y="374" type="line"/>
      <point x="358" y="374" type="line" smooth="yes"/>
      <point x="366" y="374"/>
      <point x="376" y="383"/>
      <point x="376" y="391" type="curve" smooth="yes"/>
      <point x="386" y="460" type="line"/>
      <point x="437" y="460" type="line"/>
      <point x="437" y="237" type="line"/>
      <point x="386" y="237" type="line"/>
    </contour>
    <contour>
      <point x="391" y="928" type="curve" smooth="yes"/>
      <point x="392" y="928" type="line" smooth="yes"/>
      <point x="421" y="928"/>
      <point x="438" y="911"/>
      <point x="438" y="883" type="curve" smooth="yes"/>
      <point x="438" y="864"/>
      <point x="426" y="852"/>
      <point x="415" y="843" type="curve" smooth="yes"/>
      <point x="262" y="746" type="line"/>
      <point x="206" y="746" type="line"/>
      <point x="338" y="901" type="line" smooth="yes"/>
      <point x="352" y="915"/>
      <point x="362" y="928"/>
    </contour>
  </outline>
</glyph>
<glyph name="Edieresis" format="1">
  <advance width="583"/>
  <unicode hex="00CB"/>
  <outline>
    <contour>
      <point x="376" y="306" type="line"/>
      <point x="377" y="306" type="line"/>
      <point x="377" y="313"/>
      <point x="366" y="324"/>
      <point x="359" y="324" type="curve" smooth="yes"/>
      <point x="209" y="324" type="line"/>
      <point x="209" y="49" type="line"/>
      <point x="462" y="49" type="line" smooth="yes"/>
      <point x="470" y="49"/>
      <point x="478" y="61"/>
      <point x="479" y="68" type="curve" smooth="yes"/>
      <point x="497" y="167" type="line"/>
      <point x="551" y="167" type="line"/>
      <point x="551" y="0" type="line"/>
      <point x="32" y="0" type="line"/>
      <point x="32" y="43" type="line"/>
      <point x="84" y="47" type="line" smooth="yes"/>
      <point x="96" y="48"/>
      <point x="106" y="57"/>
      <point x="106" y="69" type="curve" smooth="yes"/>
      <point x="106" y="602" type="line" smooth="yes"/>
      <point x="106" y="614"/>
      <point x="96" y="623"/>
      <point x="84" y="624" type="curve" smooth="yes"/>
      <point x="32" y="628" type="line"/>
      <point x="32" y="671" type="line"/>
      <point x="518" y="671" type="line"/>
      <point x="518" y="522" type="line"/>
      <point x="458" y="522" type="line"/>
      <point x="443" y="604" type="line" smooth="yes"/>
      <point x="442" y="613"/>
      <point x="435" y="623"/>
      <point x="425" y="623" type="curve" smooth="yes"/>
      <point x="208" y="623" type="line"/>
      <point x="208" y="374" type="line"/>
      <point x="358" y="374" type="line" smooth="yes"/>
      <point x="366" y="374"/>
      <point x="376" y="383"/>
      <point x="376" y="391" type="curve" smooth="yes"/>
      <point x="386" y="460" type="line"/>
      <point x="437" y="460" type="line"/>
      <point x="437" y="237" type="line"/>
      <point x="386" y="237" type="line"/>
    </contour>
    <contour>
      <point x="189" y="891" type="curve" smooth="yes"/>
      <point x="220" y="891"/>
      <point x="243" y="866"/>
      <point x="243" y="836" type="curve" smooth="yes"/>
      <point x="243" y="805"/>
      <point x="220" y="780"/>
      <point x="189" y="780" type="curve" smooth="yes"/>
      <point x="158" y="780"/>
      <point x="134" y="804"/>
      <point x="134" y="835" type="curve" smooth="yes"/>
      <point x="134" y="866"/>
      <point x="158" y="891"/>
    </contour>
    <contour>
      <point x="397" y="891" type="curve" smooth="yes"/>
      <point x="427" y="891"/>
      <point x="450" y="867"/>
      <point x="450" y="836" type="curve" smooth="yes"/>
      <point x="450" y="805"/>
      <point x="428" y="780"/>
      <point x="397" y="780" type="curve" smooth="yes"/>
      <point x="365" y="780"/>
      <point x="341" y="804"/>
      <point x="341" y="836" type="curve" smooth="yes"/>
      <point x="341" y="866"/>
      <point x="367" y="891"/>
    </contour>
  </outline>
</glyph>
<glyph name="Eth" format="1">
  <advance width="695"/>
  <unicode hex="00D0"/>
  <outline>
    <contour>
      <point x="14" y="377" type="line"/>
      <point x="108" y="377" type="line"/>
      <point x="108" y="602" type="line" smooth="yes"/>
      <point x="108" y="614"/>
      <point x="98" y="623"/>
      <point x="86" y="624" type="curve" smooth="yes"/>
      <point x="33" y="628" type="line"/>
      <point x="33" y="671" type="line"/>
      <point x="291" y="671" type="line" smooth="yes"/>
      <point x="460" y="671"/>
      <point x="578" y="605"/>
      <point x="630" y="486" type="curve" smooth="yes"/>
      <point x="648" y="444"/>
      <point x="657" y="394"/>
      <point x="657" y="337" type="curve" smooth="yes"/>
      <point x="657" y="158"/>
      <point x="567" y="48"/>
      <point x="423" y="12" type="curve" smooth="yes"/>
      <point x="390" y="4"/>
      <point x="352" y="0"/>
      <point x="310" y="0" type="curve" smooth="yes"/>
      <point x="32" y="0" type="line"/>
      <point x="32" y="43" type="line"/>
      <point x="85" y="47" type="line" smooth="yes"/>
      <point x="97" y="48"/>
      <point x="107" y="57"/>
      <point x="107" y="69" type="curve" smooth="yes"/>
      <point x="107" y="326" type="line"/>
      <point x="14" y="326" type="line"/>
    </contour>
    <contour>
      <point x="290" y="49" type="line" smooth="yes"/>
      <point x="467" y="49"/>
      <point x="545" y="155"/>
      <point x="545" y="335" type="curve" smooth="yes"/>
      <point x="545" y="519"/>
      <point x="466" y="623"/>
      <point x="285" y="623" type="curve" smooth="yes"/>
      <point x="209" y="623" type="line"/>
      <point x="209" y="377" type="line"/>
      <point x="367" y="377" type="line"/>
      <point x="367" y="326" type="line"/>
      <point x="209" y="326" type="line"/>
      <point x="209" y="48" type="line"/>
    </contour>
  </outline>
</glyph>
<glyph name="Otilde" format="1">
  <advance width="730"/>
  <unicode hex="00D5"/>
  <outline>
    <contour>
      <point x="576" y="334" type="curve"/>
      <point x="577" y="333" type="line"/>
      <point x="577" y="459"/>
      <point x="538" y="558"/>
      <point x="459" y="605" type="curve" smooth="yes"/>
      <point x="433" y="621"/>
      <point x="403" y="629"/>
      <point x="368" y="629" type="curve" smooth="yes"/>
      <point x="290" y="629"/>
      <point x="239" y="591"/>
      <point x="207" y="542" type="curve" smooth="yes"/>
      <point x="173" y="491"/>
      <point x="155" y="419"/>
      <point x="155" y="336" type="curve" smooth="yes"/>
      <point x="155" y="211"/>
      <point x="194" y="111"/>
      <point x="272" y="63" type="curve" smooth="yes"/>
      <point x="298" y="47"/>
      <point x="329" y="39"/>
      <point x="364" y="39" type="curve" smooth="yes"/>
      <point x="441" y="39"/>
      <point x="492" y="78"/>
      <point x="524" y="127" type="curve" smooth="yes"/>
      <point x="557" y="178"/>
      <point x="576" y="251"/>
    </contour>
    <contour>
      <point x="693" y="334" type="curve" smooth="yes"/>
      <point x="693" y="336" type="line" smooth="yes"/>
      <point x="693" y="231"/>
      <point x="655" y="146"/>
      <point x="603" y="88" type="curve" smooth="yes"/>
      <point x="551" y="30"/>
      <point x="471" y="-15"/>
      <point x="366" y="-15" type="curve" smooth="yes"/>
      <point x="260" y="-15"/>
      <point x="182" y="27"/>
      <point x="129" y="85" type="curve" smooth="yes"/>
      <point x="76" y="144"/>
      <point x="39" y="229"/>
      <point x="39" y="337" type="curve" smooth="yes"/>
      <point x="39" y="442"/>
      <point x="76" y="527"/>
      <point x="128" y="585" type="curve" smooth="yes"/>
      <point x="180" y="643"/>
      <point x="260" y="687"/>
      <point x="366" y="687" type="curve" smooth="yes"/>
      <point x="472" y="687"/>
      <point x="552" y="641"/>
      <point x="604" y="583" type="curve" smooth="yes"/>
      <point x="656" y="525"/>
      <point x="693" y="440"/>
    </contour>
    <contour>
      <point x="447" y="843" type="curve"/>
      <point x="446" y="842" type="line"/>
      <point x="474" y="842"/>
      <point x="496" y="864"/>
      <point x="499" y="890" type="curve"/>
      <point x="539" y="890" type="line"/>
      <point x="527" y="845"/>
      <point x="506" y="808"/>
      <point x="467" y="789" type="curve" smooth="yes"/>
      <point x="454" y="783"/>
      <point x="440" y="780"/>
      <point x="424" y="780" type="curve" smooth="yes"/>
      <point x="386" y="780"/>
      <point x="365" y="803"/>
      <point x="338" y="815" type="curve" smooth="yes"/>
      <point x="323" y="822"/>
      <point x="306" y="828"/>
      <point x="285" y="828" type="curve" smooth="yes"/>
      <point x="257" y="828"/>
      <point x="236" y="805"/>
      <point x="233" y="780" type="curve"/>
      <point x="193" y="780" type="line"/>
      <point x="205" y="825"/>
      <point x="226" y="862"/>
      <point x="265" y="881" type="curve" smooth="yes"/>
      <point x="278" y="887"/>
      <point x="292" y="890"/>
      <point x="308" y="890" type="curve" smooth="yes"/>
      <point x="346" y="890"/>
      <point x="367" y="868"/>
      <point x="393" y="855" type="curve" smooth="yes"/>
      <point x="408" y="848"/>
      <point x="425" y="843"/>
    </contour>
  </outline>
</glyph>
<glyph name="multiply" format="1">
  <advance width="1000"/>
  <unicode hex="00D7"/>
  <outline>
    <contour>
      <point x="731" y="30" type="line"/>
      <point x="500" y="262" type="line"/>
      <point x="269" y="30" type="line"/>
      <point x="230" y="69" type="line"/>
      <point x="460" y="300" type="line"/>
      <point x="230" y="531" type="line"/>
      <point x="269" y="570" type="line"/>
      <point x="500" y="338" type="line"/>
      <point x="731" y="570" type="line"/>
      <point x="770" y="531" type="line"/>
      <point x="540" y="300" type="line"/>
      <point x="770" y="69" type="line"/>
    </contour>
  </outline>
</glyph>
<glyph name="Yacute" format="1">
  <advance width="625"/>
  <unicode hex="00DD"/>
  <outline>
    <contour>
      <point x="562" y="618" type="line"/>
      <point x="361" y="285" type="line"/>
      <point x="361" y="69" type="line" smooth="yes"/>
      <point x="361" y="58"/>
      <point x="371" y="48"/>
      <point x="382" y="47" type="curve" smooth="yes"/>
      <point x="446" y="43" type="line"/>
      <point x="446" y="0" type="line"/>
      <point x="176" y="0" type="line"/>
      <point x="176" y="43" type="line"/>
      <point x="238" y="47" type="line" smooth="yes"/>
      <point x="250" y="48"/>
      <point x="260" y="57"/>
      <point x="260" y="69" type="curve" smooth="yes"/>
      <point x="260" y="270" type="line"/>
      <point x="68" y="616" type="line"/>
      <point x="10" y="628" type="line"/>
      <point x="10" y="671" type="line"/>
      <point x="247" y="671" type="line"/>
      <point x="247" y="628" type="line"/>
      <point x="197" y="623" type="line" smooth="yes"/>
      <point x="184" y="622"/>
      <point x="179" y="614"/>
      <point x="185" y="603" type="curve" smooth="yes"/>
      <point x="326" y="342" type="line"/>
      <point x="481" y="600" type="line" smooth="yes"/>
      <point x="487" y="611"/>
      <point x="477" y="620"/>
      <point x="469" y="621" type="curve" smooth="yes"/>
      <point x="413" y="628" type="line"/>
      <point x="413" y="671" type="line"/>
      <point x="616" y="671" type="line"/>
      <point x="616" y="628" type="line"/>
    </contour>
    <contour>
      <point x="412" y="928" type="curve" smooth="yes"/>
      <point x="413" y="928" type="line" smooth="yes"/>
      <point x="442" y="928"/>
      <point x="459" y="911"/>
      <point x="459" y="883" type="curve" smooth="yes"/>
      <point x="459" y="864"/>
      <point x="447" y="852"/>
      <point x="436" y="843" type="curve" smooth="yes"/>
      <point x="283" y="746" type="line"/>
      <point x="227" y="746" type="line"/>
      <point x="359" y="901" type="line" smooth="yes"/>
      <point x="373" y="915"/>
      <point x="383" y="928"/>
    </contour>
  </outline>
</glyph>
<glyph name="Thorn" format="1">
  <advance width="578"/>
  <unicode hex="00DE"/>
  <outline>
    <contour>
      <point x="265" y="183" type="curve" smooth="yes"/>
      <point x="374" y="182"/>
      <point x="425" y="236"/>
      <point x="425" y="347" type="curve" smooth="yes"/>
      <point x="425" y="458"/>
      <point x="369" y="504"/>
      <point x="254" y="499" type="curve" smooth="yes"/>
      <point x="252" y="501"/>
      <point x="235" y="499"/>
      <point x="229" y="499" type="curve" smooth="yes"/>
      <point x="222" y="498"/>
      <point x="215" y="497"/>
      <point x="207" y="496" type="curve"/>
      <point x="207" y="187" type="line"/>
      <point x="229" y="185" type="line" smooth="yes"/>
      <point x="239" y="184"/>
      <point x="254" y="183"/>
    </contour>
    <contour>
      <point x="278" y="132" type="curve"/>
      <point x="278" y="130" type="line"/>
      <point x="253" y="130"/>
      <point x="228" y="131"/>
      <point x="207" y="135" type="curve"/>
      <point x="207" y="67" type="line" smooth="yes"/>
      <point x="207" y="55"/>
      <point x="218" y="47"/>
      <point x="229" y="46" type="curve" smooth="yes"/>
      <point x="287" y="42" type="line"/>
      <point x="287" y="-1" type="line"/>
      <point x="32" y="-1" type="line"/>
      <point x="32" y="42" type="line"/>
      <point x="83" y="46" type="line" smooth="yes"/>
      <point x="94" y="47"/>
      <point x="105" y="55"/>
      <point x="105" y="67" type="curve" smooth="yes"/>
      <point x="105" y="600" type="line" smooth="yes"/>
      <point x="105" y="612"/>
      <point x="94" y="620"/>
      <point x="83" y="621" type="curve" smooth="yes"/>
      <point x="32" y="625" type="line"/>
      <point x="32" y="668" type="line"/>
      <point x="287" y="668" type="line"/>
      <point x="287" y="625" type="line"/>
      <point x="229" y="621" type="line" smooth="yes"/>
      <point x="218" y="620"/>
      <point x="207" y="612"/>
      <point x="207" y="600" type="curve" smooth="yes"/>
      <point x="207" y="544" type="line"/>
      <point x="275" y="543" type="line" smooth="yes"/>
      <point x="432" y="541"/>
      <point x="539" y="502"/>
      <point x="539" y="345" type="curve" smooth="yes"/>
      <point x="539" y="233"/>
      <point x="471" y="170"/>
      <point x="383" y="144" type="curve" smooth="yes"/>
      <point x="351" y="135"/>
      <point x="316" y="131"/>
    </contour>
  </outline>
</glyph>
<glyph name="germandbls" format="1">
  <advance width="627"/>
  <unicode hex="00DF"/>
  <outline>
    <contour>
      <point x="478" y="469" type="curve"/>
      <point x="479" y="471" type="line"/>
      <point x="424" y="471"/>
      <point x="386" y="448"/>
      <point x="386" y="395" type="curve" smooth="yes"/>
      <point x="386" y="367"/>
      <point x="402" y="350"/>
      <point x="419" y="336" type="curve" smooth="yes"/>
      <point x="474" y="290"/>
      <point x="556" y="269"/>
      <point x="586" y="199" type="curve" smooth="yes"/>
      <point x="592" y="185"/>
      <point x="595" y="169"/>
      <point x="595" y="151" type="curve" smooth="yes"/>
      <point x="595" y="72"/>
      <point x="547" y="23"/>
      <point x="488" y="2" type="curve" smooth="yes"/>
      <point x="467" y="-6"/>
      <point x="445" y="-10"/>
      <point x="421" y="-10" type="curve" smooth="yes"/>
      <point x="396" y="-10"/>
      <point x="366" y="-3"/>
      <point x="345" y="2" type="curve" smooth="yes"/>
      <point x="331" y="5"/>
      <point x="317" y="9"/>
      <point x="303" y="14" type="curve"/>
      <point x="303" y="148" type="line"/>
      <point x="357" y="148" type="line"/>
      <point x="366" y="61" type="line"/>
      <point x="378" y="49"/>
      <point x="400" y="36"/>
      <point x="426" y="36" type="curve" smooth="yes"/>
      <point x="475" y="36"/>
      <point x="510" y="72"/>
      <point x="510" y="121" type="curve" smooth="yes"/>
      <point x="510" y="163"/>
      <point x="481" y="187"/>
      <point x="454" y="205" type="curve" smooth="yes"/>
      <point x="406" y="238"/>
      <point x="345" y="261"/>
      <point x="311" y="308" type="curve" smooth="yes"/>
      <point x="300" y="323"/>
      <point x="295" y="341"/>
      <point x="295" y="362" type="curve" smooth="yes"/>
      <point x="295" y="441"/>
      <point x="351" y="484"/>
      <point x="416" y="499" type="curve"/>
      <point x="420" y="525" type="line" smooth="yes"/>
      <point x="421" y="538"/>
      <point x="425" y="557"/>
      <point x="425" y="571" type="curve" smooth="yes"/>
      <point x="425" y="622"/>
      <point x="403" y="658"/>
      <point x="369" y="676" type="curve" smooth="yes"/>
      <point x="356" y="683"/>
      <point x="341" y="686"/>
      <point x="324" y="686" type="curve" smooth="yes"/>
      <point x="213" y="686"/>
      <point x="183" y="572"/>
      <point x="183" y="462" type="curve" smooth="yes"/>
      <point x="183" y="65" type="line" smooth="yes"/>
      <point x="183" y="53"/>
      <point x="189" y="43"/>
      <point x="198" y="41" type="curve" smooth="yes"/>
      <point x="249" y="37" type="line"/>
      <point x="249" y="-1" type="line"/>
      <point x="22" y="-1" type="line"/>
      <point x="22" y="37" type="line"/>
      <point x="70" y="42" type="line" smooth="yes"/>
      <point x="80" y="43"/>
      <point x="90" y="54"/>
      <point x="90" y="65" type="curve" smooth="yes"/>
      <point x="90" y="452" type="line" smooth="yes"/>
      <point x="90" y="593"/>
      <point x="155" y="690"/>
      <point x="262" y="725" type="curve" smooth="yes"/>
      <point x="286" y="733"/>
      <point x="313" y="737"/>
      <point x="342" y="737" type="curve" smooth="yes"/>
      <point x="451" y="737"/>
      <point x="517" y="680"/>
      <point x="517" y="571" type="curve" smooth="yes"/>
      <point x="517" y="537"/>
      <point x="511" y="503"/>
      <point x="503" y="478" type="curve" smooth="yes"/>
      <point x="501" y="472"/>
      <point x="500" y="468"/>
      <point x="500" y="467" type="curve"/>
      <point x="494" y="467"/>
      <point x="488" y="469"/>
    </contour>
  </outline>
</glyph>
<glyph name="eacute" format="1">
  <advance width="490"/>
  <unicode hex="00E9"/>
  <outline>
    <contour>
      <point x="131" y="261" type="line"/>
      <point x="130" y="260" type="line"/>
      <point x="130" y="141"/>
      <point x="177" y="48"/>
      <point x="297" y="48" type="curve" smooth="yes"/>
      <point x="364" y="48"/>
      <point x="413" y="83"/>
      <point x="455" y="110" type="curve"/>
      <point x="455" y="49" type="line"/>
      <point x="414" y="24"/>
      <point x="369" y="3"/>
      <point x="315" y="-8" type="curve" smooth="yes"/>
      <point x="299" y="-11"/>
      <point x="282" y="-13"/>
      <point x="265" y="-13" type="curve" smooth="yes"/>
      <point x="156" y="-13"/>
      <point x="86" y="46"/>
      <point x="53" y="125" type="curve" smooth="yes"/>
      <point x="40" y="156"/>
      <point x="34" y="193"/>
      <point x="34" y="235" type="curve" smooth="yes"/>
      <point x="34" y="356"/>
      <point x="90" y="440"/>
      <point x="175" y="476" type="curve" smooth="yes"/>
      <point x="204" y="488"/>
      <point x="235" y="494"/>
      <point x="269" y="494" type="curve" smooth="yes"/>
      <point x="393" y="494"/>
      <point x="456" y="412"/>
      <point x="456" y="289" type="curve" smooth="yes"/>
      <point x="456" y="276" type="line" smooth="yes"/>
      <point x="456" y="271"/>
      <point x="456" y="266"/>
      <point x="455" y="261" type="curve"/>
    </contour>
    <contour>
      <point x="355" y="327" type="line" smooth="yes"/>
      <point x="355" y="394"/>
      <point x="325" y="444"/>
      <point x="258" y="444" type="curve" smooth="yes"/>
      <point x="179" y="444"/>
      <point x="140" y="380"/>
      <point x="135" y="305" type="curve"/>
      <point x="355" y="305" type="line"/>
    </contour>
    <contour>
      <point x="359" y="732" type="curve" smooth="yes"/>
      <point x="360" y="732" type="line" smooth="yes"/>
      <point x="389" y="732"/>
      <point x="406" y="715"/>
      <point x="406" y="687" type="curve" smooth="yes"/>
      <point x="406" y="668"/>
      <point x="394" y="656"/>
      <point x="383" y="647" type="curve" smooth="yes"/>
      <point x="230" y="550" type="line"/>
      <point x="174" y="550" type="line"/>
      <point x="306" y="705" type="line" smooth="yes"/>
      <point x="320" y="719"/>
      <point x="330" y="732"/>
    </contour>
  </outline>
</glyph>
<glyph name="udieresis" format="1">
  <advance width="568"/>
  <unicode hex="00FC"/>
  <outline>
    <contour>
      <point x="280" y="56" type="curve"/>
      <point x="282" y="54" type="line"/>
      <point x="325" y="54"/>
      <point x="359" y="71"/>
      <point x="389" y="84" type="curve"/>
      <point x="389" y="419" type="line"/>
      <point x="319" y="419" type="line"/>
      <point x="319" y="453" type="line"/>
      <point x="441" y="492" type="line"/>
      <point x="482" y="492" type="line"/>
      <point x="482" y="62" type="line" smooth="yes"/>
      <point x="482" y="50"/>
      <point x="493" y="42"/>
      <point x="504" y="41" type="curve" smooth="yes"/>
      <point x="548" y="38" type="line"/>
      <point x="548" y="-1" type="line"/>
      <point x="389" y="-1" type="line"/>
      <point x="389" y="56" type="line"/>
      <point x="357" y="32"/>
      <point x="317" y="8"/>
      <point x="273" y="-5" type="curve" smooth="yes"/>
      <point x="258" y="-10"/>
      <point x="243" y="-12"/>
      <point x="228" y="-12" type="curve" smooth="yes"/>
      <point x="130" y="-12"/>
      <point x="90" y="50"/>
      <point x="90" y="150" type="curve" smooth="yes"/>
      <point x="90" y="421" type="line"/>
      <point x="20" y="421" type="line"/>
      <point x="20" y="455" type="line"/>
      <point x="143" y="494" type="line"/>
      <point x="183" y="494" type="line"/>
      <point x="183" y="169" type="line" smooth="yes"/>
      <point x="183" y="98"/>
      <point x="209" y="56"/>
    </contour>
    <contour>
      <point x="182" y="694" type="curve" smooth="yes"/>
      <point x="213" y="694"/>
      <point x="236" y="669"/>
      <point x="236" y="639" type="curve" smooth="yes"/>
      <point x="236" y="608"/>
      <point x="213" y="583"/>
      <point x="182" y="583" type="curve" smooth="yes"/>
      <point x="151" y="583"/>
      <point x="127" y="607"/>
      <point x="127" y="638" type="curve" smooth="yes"/>
      <point x="127" y="669"/>
      <point x="151" y="694"/>
    </contour>
    <contour>
      <point x="390" y="694" type="curve" smooth="yes"/>
      <point x="420" y="694"/>
      <point x="443" y="670"/>
      <point x="443" y="639" type="curve" smooth="yes"/>
      <point x="443" y="608"/>
      <point x="421" y="583"/>
      <point x="390" y="583" type="curve" smooth="yes"/>
      <point x="358" y="583"/>
      <point x="334" y="607"/>
      <point x="334" y="639" type="curve" smooth="yes"/>
      <point x="334" y="669"/>
      <point x="360" y="694"/>
    </contour>
  </outline>
</glyph>
<glyph name="thorn" format="1">
  <advance width="559"/>
  <unicode hex="00FE"/>
  <outline>
    <contour>
      <point x="183" y="50" type="line"/>
      <point x="184" y="51" type="line"/>
      <point x="207" y="43"/>
      <point x="233" y="35"/>
      <point x="265" y="35" type="curve" smooth="yes"/>
      <point x="352" y="35"/>
      <point x="397" y="91"/>
      <point x="416" y="160" type="curve" smooth="yes"/>
      <point x="423" y="184"/>
      <point x="426" y="209"/>
      <point x="426" y="235" type="curve" smooth="yes"/>
      <point x="426" y="315"/>
      <point x="398" y="380"/>
      <point x="346" y="409" type="curve" smooth="yes"/>
      <point x="328" y="419"/>
      <point x="308" y="424"/>
      <point x="285" y="424" type="curve" smooth="yes"/>
      <point x="260" y="424"/>
      <point x="233" y="416"/>
      <point x="215" y="409" type="curve" smooth="yes"/>
      <point x="204" y="405"/>
      <point x="193" y="400"/>
      <point x="183" y="394" type="curve"/>
    </contour>
    <contour>
      <point x="273" y="-11" type="curve" smooth="yes"/>
      <point x="274" y="-11" type="line" smooth="yes"/>
      <point x="242" y="-11"/>
      <point x="212" y="-7"/>
      <point x="185" y="-2" type="curve"/>
      <point x="185" y="-151" type="line" smooth="yes"/>
      <point x="185" y="-163"/>
      <point x="196" y="-170"/>
      <point x="207" y="-171" type="curve" smooth="yes"/>
      <point x="266" y="-177" type="line"/>
      <point x="266" y="-216" type="line"/>
      <point x="23" y="-216" type="line"/>
      <point x="23" y="-177" type="line"/>
      <point x="71" y="-171" type="line" smooth="yes"/>
      <point x="82" y="-170"/>
      <point x="92" y="-163"/>
      <point x="92" y="-151" type="curve" smooth="yes"/>
      <point x="92" y="667" type="line"/>
      <point x="23" y="667" type="line"/>
      <point x="23" y="700" type="line"/>
      <point x="146" y="738" type="line"/>
      <point x="185" y="738" type="line"/>
      <point x="185" y="433" type="line"/>
      <point x="212" y="455"/>
      <point x="241" y="472"/>
      <point x="279" y="485" type="curve" smooth="yes"/>
      <point x="297" y="491"/>
      <point x="316" y="494"/>
      <point x="335" y="494" type="curve" smooth="yes"/>
      <point x="395" y="494"/>
      <point x="439" y="463"/>
      <point x="468" y="427" type="curve" smooth="yes"/>
      <point x="502" y="385"/>
      <point x="525" y="323"/>
      <point x="525" y="248" type="curve" smooth="yes"/>
      <point x="525" y="124"/>
      <point x="468" y="42"/>
      <point x="378" y="7" type="curve" smooth="yes"/>
      <point x="347" y="-5"/>
      <point x="312" y="-11"/>
    </contour>
  </outline>
</glyph>
<glyph name="Aogonek" format="1">
  <advance width="673"/>
  <unicode hex="0104"/>
  <outline>
    <contour>
      <point x="575" y="-141" type="curve"/>
      <point x="575" y="-140" type="line"/>
      <point x="591" y="-140"/>
      <point x="606" y="-129"/>
      <point x="616" y="-122" type="curve"/>
      <point x="640" y="-162" type="line"/>
      <point x="620" y="-172"/>
      <point x="602" y="-179"/>
      <point x="580" y="-186" type="curve" smooth="yes"/>
      <point x="570" y="-189"/>
      <point x="561" y="-190"/>
      <point x="554" y="-190" type="curve" smooth="yes"/>
      <point x="498" y="-190"/>
      <point x="454" y="-170"/>
      <point x="454" y="-117" type="curve" smooth="yes"/>
      <point x="454" y="-62"/>
      <point x="489" y="-22"/>
      <point x="522" y="1" type="curve"/>
      <point x="431" y="1" type="line"/>
      <point x="431" y="44" type="line"/>
      <point x="489" y="49" type="line" smooth="yes"/>
      <point x="495" y="49"/>
      <point x="501" y="60"/>
      <point x="499" y="66" type="curve" smooth="yes"/>
      <point x="430" y="249" type="line"/>
      <point x="199" y="249" type="line"/>
      <point x="133" y="69" type="line" smooth="yes"/>
      <point x="130" y="61"/>
      <point x="139" y="49"/>
      <point x="147" y="49" type="curve" smooth="yes"/>
      <point x="206" y="44" type="line"/>
      <point x="206" y="1" type="line"/>
      <point x="5" y="1" type="line"/>
      <point x="5" y="44" type="line"/>
      <point x="63" y="56" type="line"/>
      <point x="296" y="688" type="line"/>
      <point x="371" y="688" type="line"/>
      <point x="603" y="71" type="line" smooth="yes"/>
      <point x="607" y="57"/>
      <point x="609" y="54"/>
      <point x="624" y="51" type="curve" smooth="yes"/>
      <point x="669" y="43" type="line"/>
      <point x="669" y="0" type="line"/>
      <point x="570" y="0" type="line"/>
      <point x="545" y="-19"/>
      <point x="517" y="-49"/>
      <point x="517" y="-92" type="curve" smooth="yes"/>
      <point x="517" y="-126"/>
      <point x="540" y="-141"/>
    </contour>
    <contour>
      <point x="314" y="559" type="line"/>
      <point x="217" y="297" type="line"/>
      <point x="412" y="297" type="line"/>
    </contour>
  </outline>
</glyph>
<glyph name="Ebreve" format="1">
  <advance width="583"/>
  <unicode hex="0114"/>
  <outline>
    <contour>
      <point x="376" y="306" type="line"/>
      <point x="377" y="306" type="line"/>
      <point x="377" y="313"/>
      <point x="366" y="324"/>
      <point x="359" y="324" type="curve" smooth="yes"/>
      <point x="209" y="324" type="line"/>
      <point x="209" y="49" type="line"/>
      <point x="462" y="49" type="line" smooth="yes"/>
      <point x="470" y="49"/>
      <point x="478" y="61"/>
      <point x="479" y="68" type="curve" smooth="yes"/>
      <point x="497" y="167" type="line"/>
      <point x="551" y="167" type="line"/>
      <point x="551" y="0" type="line"/>
      <point x="32" y="0" type="line"/>
      <point x="32" y="43" type="line"/>
      <point x="84" y="47" type="line" smooth="yes"/>
      <point x="96" y="48"/>
      <point x="106" y="57"/>
      <point x="106" y="69" type="curve" smooth="yes"/>
      <point x="106" y="602" type="line" smooth="yes"/>
      <point x="106" y="614"/>
      <point x="96" y="623"/>
      <point x="84" y="624" type="curve" smooth="yes"/>
      <point x="32" y="628" type="line"/>
      <point x="32" y="671" type="line"/>
      <point x="518" y="671" type="line"/>
      <point x="518" y="522" type="line"/>
      <point x="458" y="522" type="line"/>
      <point x="443" y="604" type="line" smooth="yes"/>
      <point x="442" y="613"/>
      <point x="435" y="623"/>
      <point x="425" y="623" type="curve" smooth="yes"/>
      <point x="208" y="623" type="line"/>
      <point x="208" y="374" type="line"/>
      <point x="358" y="374" type="line" smooth="yes"/>
      <point x="366" y="374"/>
      <point x="376" y="383"/>
      <point x="376" y="391" type="curve" smooth="yes"/>
      <point x="386" y="460" type="line"/>
      <point x="437" y="460" type="line"/>
      <point x="437" y="237" type="line"/>
      <point x="386" y="237" type="line"/>
    </contour>
    <contour>
      <point x="292" y="813" type="curve" smooth="yes"/>
      <point x="293" y="813" type="line" smooth="yes"/>
      <point x="352" y="813"/>
      <point x="392" y="844"/>
      <point x="402" y="894" type="curve"/>
      <point x="442" y="894" type="line"/>
      <point x="442" y="828"/>
      <point x="405" y="780"/>
      <point x="358" y="758" type="curve" smooth="yes"/>
      <point x="339" y="749"/>
      <point x="317" y="745"/>
      <point x="292" y="745" type="curve" smooth="yes"/>
      <point x="217" y="745"/>
      <point x="172" y="786"/>
      <point x="152" y="841" type="curve" smooth="yes"/>
      <point x="146" y="859"/>
      <point x="143" y="877"/>
      <point x="143" y="894" type="curve"/>
      <point x="182" y="894" type="line"/>
      <point x="192" y="844"/>
      <point x="233" y="813"/>
    </contour>
  </outline>
</glyph>
<glyph name="Eogonek" format="1">
  <advance width="583"/>
  <unicode hex="0118"/>
  <outline>
    <contour>
      <point x="435" y="-141" type="curve" smooth="yes"/>
      <point x="436" y="-141" type="line" smooth="yes"/>
      <point x="453" y="-141"/>
      <point x="466" y="-130"/>
      <point x="477" y="-123" type="curve"/>
      <point x="501" y="-163" type="line"/>
      <point x="481" y="-173"/>
      <point x="463" y="-180"/>
      <point x="441" y="-187" type="curve" smooth="yes"/>
      <point x="431" y="-190"/>
      <point x="422" y="-191"/>
      <point x="415" y="-191" type="curve" smooth="yes"/>
      <point x="359" y="-191"/>
      <point x="315" y="-171"/>
      <point x="315" y="-118" type="curve" smooth="yes"/>
      <point x="315" y="-63"/>
      <point x="350" y="-23"/>
      <point x="383" y="0" type="curve"/>
      <point x="33" y="0" type="line"/>
      <point x="33" y="43" type="line"/>
      <point x="85" y="47" type="line" smooth="yes"/>
      <point x="97" y="48"/>
      <point x="107" y="57"/>
      <point x="107" y="69" type="curve" smooth="yes"/>
      <point x="107" y="602" type="line" smooth="yes"/>
      <point x="107" y="614"/>
      <point x="97" y="623"/>
      <point x="85" y="624" type="curve" smooth="yes"/>
      <point x="33" y="628" type="line"/>
      <point x="33" y="671" type="line"/>
      <point x="519" y="671" type="line"/>
      <point x="519" y="522" type="line"/>
      <point x="459" y="522" type="line"/>
      <point x="444" y="604" type="line" smooth="yes"/>
      <point x="443" y="613"/>
      <point x="436" y="623"/>
      <point x="426" y="623" type="curve" smooth="yes"/>
      <point x="209" y="623" type="line"/>
      <point x="209" y="374" type="line"/>
      <point x="359" y="374" type="line" smooth="yes"/>
      <point x="367" y="374"/>
      <point x="377" y="383"/>
      <point x="377" y="391" type="curve" smooth="yes"/>
      <point x="387" y="460" type="line"/>
      <point x="438" y="460" type="line"/>
      <point x="438" y="237" type="line"/>
      <point x="387" y="237" type="line"/>
      <point x="377" y="306" type="line" smooth="yes"/>
      <point x="377" y="313"/>
      <point x="366" y="324"/>
      <point x="359" y="324" type="curve" smooth="yes"/>
      <point x="209" y="324" type="line"/>
      <point x="209" y="49" type="line"/>
      <point x="462" y="49" type="line" smooth="yes"/>
      <point x="470" y="49"/>
      <point x="478" y="61"/>
      <point x="479" y="68" type="curve" smooth="yes"/>
      <point x="497" y="167" type="line"/>
      <point x="551" y="167" type="line"/>
      <point x="551" y="0" type="line"/>
      <point x="430" y="0" type="line"/>
      <point x="405" y="-19"/>
      <point x="377" y="-49"/>
      <point x="377" y="-92" type="curve" smooth="yes"/>
      <point x="377" y="-126"/>
      <point x="400" y="-141"/>
    </contour>
  </outline>
</glyph>
<glyph name="eogonek" format="1">
  <advance width="490"/>
  <unicode hex="0119"/>
  <outline>
    <contour>
      <point x="131" y="261" type="line"/>
      <point x="129" y="260" type="line"/>
      <point x="129" y="141"/>
      <point x="176" y="48"/>
      <point x="296" y="48" type="curve" smooth="yes"/>
      <point x="363" y="48"/>
      <point x="412" y="83"/>
      <point x="454" y="110" type="curve"/>
      <point x="454" y="49" type="line"/>
      <point x="431" y="35"/>
      <point x="406" y="22"/>
      <point x="380" y="11" type="curve" smooth="yes"/>
      <point x="338" y="-10"/>
      <point x="295" y="-40"/>
      <point x="295" y="-93" type="curve" smooth="yes"/>
      <point x="295" y="-127"/>
      <point x="318" y="-142"/>
      <point x="353" y="-142" type="curve" smooth="yes"/>
      <point x="369" y="-142"/>
      <point x="384" y="-131"/>
      <point x="394" y="-124" type="curve"/>
      <point x="418" y="-164" type="line"/>
      <point x="398" y="-174"/>
      <point x="381" y="-181"/>
      <point x="359" y="-188" type="curve" smooth="yes"/>
      <point x="349" y="-191"/>
      <point x="340" y="-192"/>
      <point x="332" y="-192" type="curve" smooth="yes"/>
      <point x="276" y="-192"/>
      <point x="232" y="-172"/>
      <point x="232" y="-119" type="curve" smooth="yes"/>
      <point x="232" y="-87"/>
      <point x="249" y="-61"/>
      <point x="264" y="-42" type="curve" smooth="yes"/>
      <point x="274" y="-30"/>
      <point x="285" y="-21"/>
      <point x="295" y="-11" type="curve"/>
      <point x="285" y="-12"/>
      <point x="275" y="-13"/>
      <point x="265" y="-13" type="curve" smooth="yes"/>
      <point x="156" y="-13"/>
      <point x="86" y="46"/>
      <point x="53" y="125" type="curve" smooth="yes"/>
      <point x="40" y="156"/>
      <point x="34" y="193"/>
      <point x="34" y="235" type="curve" smooth="yes"/>
      <point x="34" y="356"/>
      <point x="90" y="440"/>
      <point x="175" y="476" type="curve" smooth="yes"/>
      <point x="204" y="488"/>
      <point x="235" y="494"/>
      <point x="269" y="494" type="curve" smooth="yes"/>
      <point x="393" y="494"/>
      <point x="456" y="412"/>
      <point x="456" y="289" type="curve" smooth="yes"/>
      <point x="456" y="276" type="line" smooth="yes"/>
      <point x="456" y="271"/>
      <point x="456" y="266"/>
      <point x="455" y="261" type="curve"/>
    </contour>
    <contour>
      <point x="354" y="327" type="line" smooth="yes"/>
      <point x="354" y="394"/>
      <point x="324" y="444"/>
      <point x="257" y="444" type="curve" smooth="yes"/>
      <point x="178" y="444"/>
      <point x="139" y="380"/>
      <point x="134" y="305" type="curve"/>
      <point x="354" y="305" type="line"/>
    </contour>
  </outline>
</glyph>
<glyph name="Gdotaccent" format="1">
  <advance width="694"/>
  <unicode hex="0120"/>
  <outline>
    <contour>
      <point x="598" y="24" type="line"/>
      <point x="598" y="23" type="line"/>
      <point x="539" y="1"/>
      <point x="470" y="-17"/>
      <point x="388" y="-17" type="curve" smooth="yes"/>
      <point x="269" y="-17"/>
      <point x="187" y="27"/>
      <point x="130" y="90" type="curve" smooth="yes"/>
      <point x="77" y="148"/>
      <point x="39" y="229"/>
      <point x="39" y="336" type="curve" smooth="yes"/>
      <point x="39" y="506"/>
      <point x="124" y="614"/>
      <point x="250" y="661" type="curve" smooth="yes"/>
      <point x="295" y="678"/>
      <point x="345" y="686"/>
      <point x="401" y="686" type="curve" smooth="yes"/>
      <point x="458" y="686"/>
      <point x="505" y="676"/>
      <point x="551" y="664" type="curve" smooth="yes"/>
      <point x="597" y="652" type="line"/>
      <point x="597" y="490" type="line"/>
      <point x="537" y="490" type="line"/>
      <point x="521" y="580" type="line" smooth="yes"/>
      <point x="520" y="592"/>
      <point x="511" y="600"/>
      <point x="502" y="604" type="curve" smooth="yes"/>
      <point x="485" y="612" type="line" smooth="yes"/>
      <point x="461" y="622"/>
      <point x="432" y="630"/>
      <point x="398" y="630" type="curve" smooth="yes"/>
      <point x="275" y="630"/>
      <point x="202" y="560"/>
      <point x="171" y="465" type="curve" smooth="yes"/>
      <point x="159" y="429"/>
      <point x="153" y="388"/>
      <point x="153" y="341" type="curve" smooth="yes"/>
      <point x="153" y="200"/>
      <point x="206" y="102"/>
      <point x="304" y="60" type="curve" smooth="yes"/>
      <point x="336" y="46"/>
      <point x="371" y="39"/>
      <point x="410" y="39" type="curve" smooth="yes"/>
      <point x="439" y="39"/>
      <point x="466" y="45"/>
      <point x="488" y="52" type="curve" smooth="yes"/>
      <point x="493" y="54"/>
      <point x="496" y="55"/>
      <point x="497" y="55" type="curve" smooth="yes"/>
      <point x="497" y="255" type="line" smooth="yes"/>
      <point x="497" y="268"/>
      <point x="489" y="275"/>
      <point x="476" y="276" type="curve" smooth="yes"/>
      <point x="409" y="281" type="line"/>
      <point x="409" y="324" type="line"/>
      <point x="670" y="324" type="line"/>
      <point x="670" y="281" type="line"/>
      <point x="619" y="276" type="line" smooth="yes"/>
      <point x="606" y="275"/>
      <point x="598" y="268"/>
      <point x="598" y="255" type="curve" smooth="yes"/>
    </contour>
    <contour>
      <point x="374" y="892" type="curve" smooth="yes"/>
      <point x="406" y="892"/>
      <point x="430" y="868"/>
      <point x="430" y="835" type="curve" smooth="yes"/>
      <point x="430" y="803"/>
      <point x="406" y="779"/>
      <point x="374" y="779" type="curve" smooth="yes"/>
      <point x="342" y="779"/>
      <point x="318" y="803"/>
      <point x="318" y="835" type="curve" smooth="yes"/>
      <point x="318" y="868"/>
      <point x="342" y="892"/>
    </contour>
  </outline>
</glyph>
<glyph name="hcircumflex" format="1">
  <advance width="574"/>
  <unicode hex="0125"/>
  <outline>
    <contour>
      <point x="235" y="766" type="line"/>
      <point x="132" y="865" type="line"/>
      <point x="28" y="766" type="line"/>
      <point x="-32" y="766" type="line"/>
      <point x="94" y="935" type="line"/>
      <point x="169" y="935" type="line"/>
      <point x="295" y="766" type="line"/>
    </contour>
    <contour>
      <point x="348" y="494" type="curve"/>
      <point x="347" y="495" type="line"/>
      <point x="436" y="495"/>
      <point x="483" y="435"/>
      <point x="483" y="344" type="curve" smooth="yes"/>
      <point x="483" y="65" type="line" smooth="yes"/>
      <point x="483" y="53"/>
      <point x="494" y="45"/>
      <point x="505" y="44" type="curve" smooth="yes"/>
      <point x="550" y="41" type="line"/>
      <point x="550" y="2" type="line"/>
      <point x="327" y="2" type="line"/>
      <point x="327" y="41" type="line"/>
      <point x="368" y="44" type="line" smooth="yes"/>
      <point x="379" y="45"/>
      <point x="390" y="53"/>
      <point x="390" y="65" type="curve" smooth="yes"/>
      <point x="390" y="323" type="line" smooth="yes"/>
      <point x="390" y="389"/>
      <point x="359" y="422"/>
      <point x="291" y="422" type="curve" smooth="yes"/>
      <point x="248" y="422"/>
      <point x="211" y="409"/>
      <point x="182" y="393" type="curve"/>
      <point x="182" y="65" type="line" smooth="yes"/>
      <point x="182" y="53"/>
      <point x="191" y="45"/>
      <point x="202" y="44" type="curve" smooth="yes"/>
      <point x="245" y="41" type="line"/>
      <point x="245" y="2" type="line"/>
      <point x="20" y="2" type="line"/>
      <point x="20" y="41" type="line"/>
      <point x="68" y="44" type="line" smooth="yes"/>
      <point x="79" y="45"/>
      <point x="89" y="53"/>
      <point x="89" y="65" type="curve" smooth="yes"/>
      <point x="89" y="666" type="line"/>
      <point x="14" y="666" type="line"/>
      <point x="14" y="699" type="line"/>
      <point x="142" y="738" type="line"/>
      <point x="182" y="738" type="line"/>
      <point x="182" y="433" type="line"/>
      <point x="218" y="453"/>
      <point x="260" y="476"/>
      <point x="305" y="488" type="curve" smooth="yes"/>
      <point x="321" y="492"/>
      <point x="335" y="494"/>
    </contour>
  </outline>
</glyph>
<glyph name="ij" format="1">
  <advance width="595"/>
  <unicode hex="0133"/>
  <outline>
    <contour>
      <point x="34" y="0" type="line"/>
      <point x="34" y="39" type="line"/>
      <point x="83" y="42" type="line" smooth="yes"/>
      <point x="94" y="43"/>
      <point x="104" y="51"/>
      <point x="104" y="63" type="curve" smooth="yes"/>
      <point x="104" y="420" type="line"/>
      <point x="35" y="420" type="line"/>
      <point x="35" y="455" type="line"/>
      <point x="157" y="493" type="line"/>
      <point x="197" y="493" type="line"/>
      <point x="197" y="63" type="line" smooth="yes"/>
      <point x="197" y="51"/>
      <point x="207" y="43"/>
      <point x="218" y="42" type="curve" smooth="yes"/>
      <point x="269" y="39" type="line"/>
      <point x="269" y="0" type="line"/>
    </contour>
    <contour>
      <point x="95" y="647" type="curve" smooth="yes"/>
      <point x="95" y="682"/>
      <point x="122" y="708"/>
      <point x="157" y="708" type="curve" smooth="yes"/>
      <point x="192" y="708"/>
      <point x="218" y="682"/>
      <point x="218" y="647" type="curve" smooth="yes"/>
      <point x="218" y="612"/>
      <point x="192" y="585"/>
      <point x="157" y="585" type="curve" smooth="yes"/>
      <point x="122" y="585"/>
      <point x="95" y="612"/>
    </contour>
    <contour>
      <point x="364" y="-183" type="line"/>
      <point x="406" y="-159"/>
      <point x="412" y="-87"/>
      <point x="412" y="-21" type="curve" smooth="yes"/>
      <point x="412" y="423" type="line"/>
      <point x="341" y="423" type="line"/>
      <point x="341" y="456" type="line"/>
      <point x="464" y="494" type="line"/>
      <point x="505" y="494" type="line"/>
      <point x="505" y="64" type="line" smooth="yes"/>
      <point x="505" y="-12"/>
      <point x="497" y="-89"/>
      <point x="466" y="-136" type="curve" smooth="yes"/>
      <point x="432" y="-188"/>
      <point x="377" y="-229"/>
      <point x="300" y="-229" type="curve" smooth="yes"/>
      <point x="259" y="-229"/>
      <point x="224" y="-214"/>
      <point x="224" y="-174" type="curve" smooth="yes"/>
      <point x="224" y="-141"/>
      <point x="244" y="-126"/>
      <point x="267" y="-116" type="curve"/>
    </contour>
    <contour>
      <point x="455" y="708" type="curve" smooth="yes"/>
      <point x="491" y="708"/>
      <point x="516" y="683"/>
      <point x="516" y="647" type="curve" smooth="yes"/>
      <point x="516" y="611"/>
      <point x="491" y="585"/>
      <point x="455" y="585" type="curve" smooth="yes"/>
      <point x="420" y="585"/>
      <point x="393" y="612"/>
      <point x="393" y="647" type="curve" smooth="yes"/>
      <point x="393" y="682"/>
      <point x="420" y="708"/>
    </contour>
  </outline>
</glyph>
<glyph name="Jcircumflex" format="1">
  <advance width="484"/>
  <unicode hex="0134"/>
  <outline>
    <contour>
      <point x="153" y="35" type="curve"/>
      <point x="153" y="34" type="line"/>
      <point x="261" y="34"/>
      <point x="279" y="134"/>
      <point x="279" y="245" type="curve" smooth="yes"/>
      <point x="279" y="601" type="line" smooth="yes"/>
      <point x="279" y="613"/>
      <point x="270" y="622"/>
      <point x="258" y="623" type="curve" smooth="yes"/>
      <point x="195" y="627" type="line"/>
      <point x="195" y="670" type="line"/>
      <point x="459" y="670" type="line"/>
      <point x="459" y="627" type="line"/>
      <point x="401" y="623" type="line" smooth="yes"/>
      <point x="390" y="622"/>
      <point x="380" y="612"/>
      <point x="380" y="601" type="curve" smooth="yes"/>
      <point x="380" y="252" type="line" smooth="yes"/>
      <point x="380" y="89"/>
      <point x="324" y="-17"/>
      <point x="160" y="-17" type="curve" smooth="yes"/>
      <point x="115" y="-17"/>
      <point x="71" y="-6"/>
      <point x="39" y="6" type="curve" smooth="yes"/>
      <point x="31" y="9"/>
      <point x="26" y="11"/>
      <point x="25" y="12" type="curve" smooth="yes"/>
      <point x="25" y="183" type="line"/>
      <point x="85" y="183" type="line"/>
      <point x="107" y="61" type="line" smooth="yes"/>
      <point x="110" y="42"/>
      <point x="132" y="35"/>
    </contour>
    <contour>
      <point x="434" y="745" type="line"/>
      <point x="331" y="844" type="line"/>
      <point x="227" y="745" type="line"/>
      <point x="166" y="745" type="line"/>
      <point x="292" y="914" type="line"/>
      <point x="368" y="914" type="line"/>
      <point x="494" y="745" type="line"/>
    </contour>
  </outline>
</glyph>
<glyph name="Kcedilla" format="1">
  <advance width="638"/>
  <unicode hex="0136"/>
  <outline>
    <contour>
      <point x="463" y="0" type="line"/>
      <point x="463" y="32" type="line"/>
      <point x="277" y="299" type="line"/>
      <point x="207" y="299" type="line"/>
      <point x="207" y="70" type="line" smooth="yes"/>
      <point x="207" y="58"/>
      <point x="217" y="49"/>
      <point x="229" y="48" type="curve" smooth="yes"/>
      <point x="286" y="44" type="line"/>
      <point x="286" y="1" type="line"/>
      <point x="32" y="1" type="line"/>
      <point x="32" y="44" type="line"/>
      <point x="85" y="48" type="line" smooth="yes"/>
      <point x="97" y="49"/>
      <point x="106" y="58"/>
      <point x="106" y="70" type="curve" smooth="yes"/>
      <point x="106" y="603" type="line" smooth="yes"/>
      <point x="106" y="615"/>
      <point x="97" y="624"/>
      <point x="85" y="625" type="curve" smooth="yes"/>
      <point x="32" y="629" type="line"/>
      <point x="32" y="672" type="line"/>
      <point x="286" y="672" type="line"/>
      <point x="286" y="629" type="line"/>
      <point x="229" y="625" type="line" smooth="yes"/>
      <point x="217" y="624"/>
      <point x="207" y="615"/>
      <point x="207" y="603" type="curve" smooth="yes"/>
      <point x="207" y="341" type="line"/>
      <point x="243" y="341" type="line"/>
      <point x="461" y="607" type="line" smooth="yes"/>
      <point x="466" y="614"/>
      <point x="457" y="623"/>
      <point x="453" y="624" type="curve" smooth="yes"/>
      <point x="402" y="629" type="line"/>
      <point x="402" y="672" type="line"/>
      <point x="614" y="672" type="line"/>
      <point x="614" y="629" type="line"/>
      <point x="593" y="628"/>
      <point x="577" y="626"/>
      <point x="558" y="623" type="curve" smooth="yes"/>
      <point x="551" y="622"/>
      <point x="547" y="621"/>
      <point x="546" y="620" type="curve" smooth="yes"/>
      <point x="342" y="376" type="line"/>
      <point x="566" y="48" type="line"/>
      <point x="638" y="43" type="line"/>
      <point x="638" y="0" type="line"/>
    </contour>
    <contour>
      <point x="327" y="-60" type="curve"/>
      <point x="327" y="-61" type="line"/>
      <point x="373" y="-61"/>
      <point x="398" y="-94"/>
      <point x="398" y="-142" type="curve" smooth="yes"/>
      <point x="398" y="-200"/>
      <point x="363" y="-233"/>
      <point x="323" y="-252" type="curve" smooth="yes"/>
      <point x="308" y="-259"/>
      <point x="292" y="-264"/>
      <point x="274" y="-267" type="curve"/>
      <point x="274" y="-237" type="line"/>
      <point x="320" y="-223"/>
      <point x="346" y="-204"/>
      <point x="346" y="-144" type="curve"/>
      <point x="287" y="-144" type="line"/>
      <point x="279" y="-136"/>
      <point x="272" y="-123"/>
      <point x="272" y="-107" type="curve" smooth="yes"/>
      <point x="272" y="-78"/>
      <point x="297" y="-60"/>
    </contour>
  </outline>
</glyph>
<glyph name="kcedilla" format="1">
  <advance width="534"/>
  <unicode hex="0137"/>
  <outline>
    <contour>
      <point x="364" y="0" type="line"/>
      <point x="364" y="39" type="line"/>
      <point x="239" y="227" type="line"/>
      <point x="183" y="227" type="line"/>
      <point x="183" y="64" type="line" smooth="yes"/>
      <point x="183" y="52"/>
      <point x="193" y="44"/>
      <point x="204" y="43" type="curve" smooth="yes"/>
      <point x="247" y="40" type="line"/>
      <point x="247" y="1" type="line"/>
      <point x="20" y="1" type="line"/>
      <point x="20" y="40" type="line"/>
      <point x="69" y="43" type="line" smooth="yes"/>
      <point x="80" y="44"/>
      <point x="90" y="52"/>
      <point x="90" y="64" type="curve" smooth="yes"/>
      <point x="90" y="665" type="line"/>
      <point x="14" y="665" type="line"/>
      <point x="14" y="698" type="line"/>
      <point x="142" y="737" type="line"/>
      <point x="183" y="737" type="line"/>
      <point x="183" y="256" type="line"/>
      <point x="203" y="256" type="line"/>
      <point x="350" y="422" type="line" smooth="yes"/>
      <point x="356" y="430"/>
      <point x="350" y="438"/>
      <point x="342" y="439" type="curve" smooth="yes"/>
      <point x="301" y="443" type="line"/>
      <point x="301" y="482" type="line"/>
      <point x="495" y="482" type="line"/>
      <point x="495" y="443" type="line"/>
      <point x="431" y="436" type="line"/>
      <point x="299" y="295" type="line"/>
      <point x="471" y="45" type="line"/>
      <point x="524" y="39" type="line"/>
      <point x="524" y="0" type="line"/>
    </contour>
    <contour>
      <point x="261" y="-61" type="curve"/>
      <point x="261" y="-62" type="line"/>
      <point x="307" y="-62"/>
      <point x="332" y="-95"/>
      <point x="332" y="-143" type="curve" smooth="yes"/>
      <point x="332" y="-201"/>
      <point x="297" y="-234"/>
      <point x="257" y="-253" type="curve" smooth="yes"/>
      <point x="242" y="-260"/>
      <point x="226" y="-265"/>
      <point x="208" y="-268" type="curve"/>
      <point x="208" y="-238" type="line"/>
      <point x="254" y="-224"/>
      <point x="280" y="-205"/>
      <point x="280" y="-145" type="curve"/>
      <point x="221" y="-145" type="line"/>
      <point x="213" y="-137"/>
      <point x="206" y="-124"/>
      <point x="206" y="-108" type="curve" smooth="yes"/>
      <point x="206" y="-79"/>
      <point x="231" y="-61"/>
    </contour>
  </outline>
</glyph>
<glyph name="Lcedilla" format="1">
  <advance width="530"/>
  <unicode hex="013B"/>
  <outline>
    <contour>
      <point x="27" y="0" type="line"/>
      <point x="27" y="43" type="line"/>
      <point x="85" y="47" type="line" smooth="yes"/>
      <point x="97" y="48"/>
      <point x="106" y="57"/>
      <point x="106" y="69" type="curve" smooth="yes"/>
      <point x="106" y="602" type="line" smooth="yes"/>
      <point x="106" y="614"/>
      <point x="97" y="623"/>
      <point x="85" y="624" type="curve" smooth="yes"/>
      <point x="27" y="628" type="line"/>
      <point x="27" y="671" type="line"/>
      <point x="282" y="671" type="line"/>
      <point x="282" y="628" type="line"/>
      <point x="229" y="624" type="line" smooth="yes"/>
      <point x="217" y="623"/>
      <point x="207" y="614"/>
      <point x="207" y="602" type="curve" smooth="yes"/>
      <point x="207" y="49" type="line"/>
      <point x="417" y="49" type="line" smooth="yes"/>
      <point x="427" y="49"/>
      <point x="438" y="57"/>
      <point x="439" y="66" type="curve" smooth="yes"/>
      <point x="455" y="186" type="line"/>
      <point x="513" y="186" type="line"/>
      <point x="513" y="0" type="line"/>
    </contour>
    <contour>
      <point x="262" y="-61" type="curve"/>
      <point x="262" y="-62" type="line"/>
      <point x="308" y="-62"/>
      <point x="333" y="-95"/>
      <point x="333" y="-143" type="curve" smooth="yes"/>
      <point x="333" y="-201"/>
      <point x="298" y="-234"/>
      <point x="258" y="-253" type="curve" smooth="yes"/>
      <point x="243" y="-260"/>
      <point x="227" y="-265"/>
      <point x="209" y="-268" type="curve"/>
      <point x="209" y="-238" type="line"/>
      <point x="255" y="-224"/>
      <point x="281" y="-205"/>
      <point x="281" y="-145" type="curve"/>
      <point x="222" y="-145" type="line"/>
      <point x="214" y="-137"/>
      <point x="207" y="-124"/>
      <point x="207" y="-108" type="curve" smooth="yes"/>
      <point x="207" y="-79"/>
      <point x="232" y="-61"/>
    </contour>
  </outline>
</glyph>
<glyph name="lcedilla" format="1">
  <advance width="296"/>
  <unicode hex="013C"/>
  <outline>
    <contour>
      <point x="195" y="63" type="line" smooth="yes"/>
      <point x="195" y="54"/>
      <point x="207" y="42"/>
      <point x="216" y="42" type="curve" smooth="yes"/>
      <point x="270" y="39" type="line"/>
      <point x="270" y="0" type="line"/>
      <point x="27" y="0" type="line"/>
      <point x="27" y="39" type="line"/>
      <point x="80" y="42" type="line" smooth="yes"/>
      <point x="89" y="42"/>
      <point x="102" y="54"/>
      <point x="102" y="63" type="curve" smooth="yes"/>
      <point x="102" y="665" type="line"/>
      <point x="26" y="665" type="line"/>
      <point x="26" y="698" type="line"/>
      <point x="154" y="737" type="line"/>
      <point x="195" y="737" type="line"/>
    </contour>
    <contour>
      <point x="140" y="-61" type="curve"/>
      <point x="140" y="-62" type="line"/>
      <point x="186" y="-62"/>
      <point x="211" y="-95"/>
      <point x="211" y="-143" type="curve" smooth="yes"/>
      <point x="211" y="-201"/>
      <point x="176" y="-234"/>
      <point x="136" y="-253" type="curve" smooth="yes"/>
      <point x="121" y="-260"/>
      <point x="105" y="-265"/>
      <point x="87" y="-268" type="curve"/>
      <point x="87" y="-238" type="line"/>
      <point x="133" y="-224"/>
      <point x="159" y="-205"/>
      <point x="159" y="-145" type="curve"/>
      <point x="100" y="-145" type="line"/>
      <point x="92" y="-137"/>
      <point x="85" y="-124"/>
      <point x="85" y="-108" type="curve" smooth="yes"/>
      <point x="85" y="-79"/>
      <point x="110" y="-61"/>
    </contour>
  </outline>
</glyph>
<glyph name="lcaron" format="1">
  <advance width="407"/>
  <unicode hex="013E"/>
  <outline>
    <contour>
      <point x="303" y="752" type="curve"/>
      <point x="303" y="751" type="line"/>
      <point x="349" y="751"/>
      <point x="374" y="719"/>
      <point x="374" y="670" type="curve" smooth="yes"/>
      <point x="374" y="593"/>
      <point x="315" y="557"/>
      <point x="250" y="545" type="curve"/>
      <point x="250" y="574" type="line"/>
      <point x="296" y="588"/>
      <point x="322" y="609"/>
      <point x="322" y="669" type="curve"/>
      <point x="263" y="669" type="line" smooth="yes"/>
      <point x="253" y="669"/>
      <point x="248" y="694"/>
      <point x="248" y="705" type="curve" smooth="yes"/>
      <point x="248" y="736"/>
      <point x="272" y="752"/>
    </contour>
    <contour>
      <point x="195" y="62" type="line" smooth="yes"/>
      <point x="195" y="53"/>
      <point x="207" y="41"/>
      <point x="216" y="41" type="curve" smooth="yes"/>
      <point x="270" y="38" type="line"/>
      <point x="270" y="-1" type="line"/>
      <point x="27" y="-1" type="line"/>
      <point x="27" y="38" type="line"/>
      <point x="80" y="41" type="line" smooth="yes"/>
      <point x="89" y="41"/>
      <point x="102" y="53"/>
      <point x="102" y="62" type="curve" smooth="yes"/>
      <point x="102" y="664" type="line"/>
      <point x="26" y="664" type="line"/>
      <point x="26" y="697" type="line"/>
      <point x="154" y="736" type="line"/>
      <point x="195" y="736" type="line"/>
    </contour>
  </outline>
</glyph>
<glyph name="ldot" format="1">
  <advance width="435"/>
  <unicode hex="0140"/>
  <outline>
    <contour>
      <point x="195" y="63" type="line" smooth="yes"/>
      <point x="195" y="54"/>
      <point x="207" y="42"/>
      <point x="216" y="42" type="curve" smooth="yes"/>
      <point x="270" y="39" type="line"/>
      <point x="270" y="0" type="line"/>
      <point x="27" y="0" type="line"/>
      <point x="27" y="39" type="line"/>
      <point x="80" y="42" type="line" smooth="yes"/>
      <point x="89" y="42"/>
      <point x="102" y="54"/>
      <point x="102" y="63" type="curve" smooth="yes"/>
      <point x="102" y="665" type="line"/>
      <point x="26" y="665" type="line"/>
      <point x="26" y="698" type="line"/>
      <point x="154" y="737" type="line"/>
      <point x="195" y="737" type="line"/>
    </contour>
    <contour>
      <point x="366" y="399" type="curve" smooth="yes"/>
      <point x="400" y="399"/>
      <point x="425" y="374"/>
      <point x="425" y="340" type="curve" smooth="yes"/>
      <point x="425" y="306"/>
      <point x="400" y="281"/>
      <point x="366" y="281" type="curve" smooth="yes"/>
      <point x="332" y="281"/>
      <point x="307" y="306"/>
      <point x="307" y="340" type="curve" smooth="yes"/>
      <point x="307" y="374"/>
      <point x="332" y="399"/>
    </contour>
  </outline>
</glyph>
<glyph name="Lslash" format="1">
  <advance width="530"/>
  <unicode hex="0141"/>
  <outline>
    <contour>
      <point x="26" y="0" type="line"/>
      <point x="26" y="43" type="line"/>
      <point x="85" y="47" type="line" smooth="yes"/>
      <point x="98" y="48"/>
      <point x="106" y="56"/>
      <point x="106" y="69" type="curve" smooth="yes"/>
      <point x="106" y="286" type="line"/>
      <point x="35" y="238" type="line"/>
      <point x="10" y="279" type="line"/>
      <point x="106" y="345" type="line"/>
      <point x="106" y="602" type="line" smooth="yes"/>
      <point x="106" y="614"/>
      <point x="97" y="622"/>
      <point x="85" y="623" type="curve" smooth="yes"/>
      <point x="26" y="628" type="line"/>
      <point x="26" y="671" type="line"/>
      <point x="288" y="671" type="line"/>
      <point x="288" y="628" type="line"/>
      <point x="229" y="623" type="line" smooth="yes"/>
      <point x="217" y="622"/>
      <point x="207" y="614"/>
      <point x="207" y="602" type="curve" smooth="yes"/>
      <point x="207" y="412" type="line"/>
      <point x="302" y="475" type="line"/>
      <point x="329" y="436" type="line"/>
      <point x="207" y="354" type="line"/>
      <point x="207" y="49" type="line"/>
      <point x="413" y="49" type="line" smooth="yes"/>
      <point x="427" y="49"/>
      <point x="438" y="58"/>
      <point x="439" y="70" type="curve" smooth="yes"/>
      <point x="456" y="186" type="line"/>
      <point x="513" y="186" type="line"/>
      <point x="513" y="0" type="line"/>
    </contour>
  </outline>
</glyph>
<glyph name="lslash" format="1">
  <advance width="296"/>
  <unicode hex="0142"/>
  <outline>
    <contour>
      <point x="194" y="366" type="line"/>
      <point x="194" y="64" type="line" smooth="yes"/>
      <point x="194" y="52"/>
      <point x="206" y="44"/>
      <point x="217" y="43" type="curve" smooth="yes"/>
      <point x="269" y="40" type="line"/>
      <point x="269" y="1" type="line"/>
      <point x="26" y="1" type="line"/>
      <point x="26" y="40" type="line"/>
      <point x="81" y="43" type="line" smooth="yes"/>
      <point x="92" y="44"/>
      <point x="102" y="52"/>
      <point x="102" y="64" type="curve" smooth="yes"/>
      <point x="102" y="303" type="line"/>
      <point x="16" y="243" type="line"/>
      <point x="-9" y="284" type="line"/>
      <point x="102" y="361" type="line"/>
      <point x="102" y="665" type="line"/>
      <point x="25" y="665" type="line"/>
      <point x="25" y="698" type="line"/>
      <point x="156" y="737" type="line"/>
      <point x="194" y="737" type="line"/>
      <point x="194" y="424" type="line"/>
      <point x="280" y="482" type="line"/>
      <point x="307" y="441" type="line"/>
    </contour>
  </outline>
</glyph>
<glyph name="nacute" format="1">
  <advance width="566"/>
  <unicode hex="0144"/>
  <outline>
    <contour>
      <point x="348" y="494" type="curve" smooth="yes"/>
      <point x="349" y="494" type="line" smooth="yes"/>
      <point x="439" y="494"/>
      <point x="483" y="433"/>
      <point x="483" y="340" type="curve" smooth="yes"/>
      <point x="483" y="64" type="line" smooth="yes"/>
      <point x="483" y="52"/>
      <point x="493" y="44"/>
      <point x="504" y="43" type="curve" smooth="yes"/>
      <point x="548" y="40" type="line"/>
      <point x="548" y="1" type="line"/>
      <point x="327" y="1" type="line"/>
      <point x="327" y="40" type="line"/>
      <point x="369" y="43" type="line" smooth="yes"/>
      <point x="380" y="44"/>
      <point x="390" y="52"/>
      <point x="390" y="64" type="curve" smooth="yes"/>
      <point x="390" y="324" type="line" smooth="yes"/>
      <point x="390" y="389"/>
      <point x="361" y="421"/>
      <point x="294" y="421" type="curve" smooth="yes"/>
      <point x="251" y="421"/>
      <point x="214" y="408"/>
      <point x="184" y="392" type="curve"/>
      <point x="184" y="64" type="line" smooth="yes"/>
      <point x="184" y="52"/>
      <point x="194" y="44"/>
      <point x="205" y="43" type="curve" smooth="yes"/>
      <point x="247" y="40" type="line"/>
      <point x="247" y="1" type="line"/>
      <point x="21" y="1" type="line"/>
      <point x="21" y="40" type="line"/>
      <point x="70" y="43" type="line" smooth="yes"/>
      <point x="81" y="44"/>
      <point x="91" y="52"/>
      <point x="91" y="64" type="curve" smooth="yes"/>
      <point x="91" y="411" type="line"/>
      <point x="21" y="411" type="line"/>
      <point x="21" y="444" type="line"/>
      <point x="143" y="482" type="line"/>
      <point x="184" y="482" type="line"/>
      <point x="184" y="432" type="line"/>
      <point x="222" y="454"/>
      <point x="265" y="477"/>
      <point x="312" y="489" type="curve" smooth="yes"/>
      <point x="325" y="492"/>
      <point x="337" y="494"/>
    </contour>
    <contour>
      <point x="383" y="733" type="curve" smooth="yes"/>
      <point x="384" y="733" type="line" smooth="yes"/>
      <point x="413" y="733"/>
      <point x="430" y="716"/>
      <point x="430" y="688" type="curve" smooth="yes"/>
      <point x="430" y="669"/>
      <point x="418" y="657"/>
      <point x="407" y="648" type="curve" smooth="yes"/>
      <point x="254" y="551" type="line"/>
      <point x="198" y="551" type="line"/>
      <point x="330" y="706" type="line" smooth="yes"/>
      <point x="344" y="720"/>
      <point x="354" y="733"/>
    </contour>
  </outline>
</glyph>
<glyph name="Ncedilla" format="1">
  <advance width="721"/>
  <unicode hex="0145"/>
  <outline>
    <contour>
      <point x="636" y="624" type="line" smooth="yes"/>
      <point x="624" y="623"/>
      <point x="615" y="614"/>
      <point x="615" y="602" type="curve" smooth="yes"/>
      <point x="615" y="0" type="line"/>
      <point x="537" y="0" type="line"/>
      <point x="165" y="560" type="line"/>
      <point x="165" y="69" type="line" smooth="yes"/>
      <point x="165" y="57"/>
      <point x="174" y="48"/>
      <point x="186" y="47" type="curve" smooth="yes"/>
      <point x="243" y="43" type="line"/>
      <point x="243" y="0" type="line"/>
      <point x="27" y="0" type="line"/>
      <point x="27" y="43" type="line"/>
      <point x="84" y="47" type="line" smooth="yes"/>
      <point x="96" y="48"/>
      <point x="106" y="57"/>
      <point x="106" y="69" type="curve" smooth="yes"/>
      <point x="106" y="602" type="line" smooth="yes"/>
      <point x="106" y="614"/>
      <point x="96" y="623"/>
      <point x="84" y="624" type="curve" smooth="yes"/>
      <point x="25" y="628" type="line"/>
      <point x="25" y="671" type="line"/>
      <point x="223" y="671" type="line"/>
      <point x="223" y="646" type="line"/>
      <point x="556" y="143" type="line"/>
      <point x="556" y="602" type="line" smooth="yes"/>
      <point x="556" y="613"/>
      <point x="546" y="623"/>
      <point x="535" y="624" type="curve" smooth="yes"/>
      <point x="478" y="628" type="line"/>
      <point x="478" y="671" type="line"/>
      <point x="692" y="671" type="line"/>
      <point x="692" y="628" type="line"/>
    </contour>
    <contour>
      <point x="350" y="-61" type="curve"/>
      <point x="350" y="-62" type="line"/>
      <point x="396" y="-62"/>
      <point x="421" y="-95"/>
      <point x="421" y="-143" type="curve" smooth="yes"/>
      <point x="421" y="-201"/>
      <point x="386" y="-234"/>
      <point x="346" y="-253" type="curve" smooth="yes"/>
      <point x="331" y="-260"/>
      <point x="315" y="-265"/>
      <point x="297" y="-268" type="curve"/>
      <point x="297" y="-238" type="line"/>
      <point x="343" y="-224"/>
      <point x="369" y="-205"/>
      <point x="369" y="-145" type="curve"/>
      <point x="310" y="-145" type="line"/>
      <point x="302" y="-137"/>
      <point x="295" y="-124"/>
      <point x="295" y="-108" type="curve" smooth="yes"/>
      <point x="295" y="-79"/>
      <point x="320" y="-61"/>
    </contour>
  </outline>
</glyph>
<glyph name="ncedilla" format="1">
  <advance width="566"/>
  <unicode hex="0146"/>
  <outline>
    <contour>
      <point x="348" y="494" type="curve" smooth="yes"/>
      <point x="349" y="494" type="line" smooth="yes"/>
      <point x="439" y="494"/>
      <point x="483" y="433"/>
      <point x="483" y="340" type="curve" smooth="yes"/>
      <point x="483" y="64" type="line" smooth="yes"/>
      <point x="483" y="52"/>
      <point x="493" y="44"/>
      <point x="504" y="43" type="curve" smooth="yes"/>
      <point x="548" y="40" type="line"/>
      <point x="548" y="1" type="line"/>
      <point x="327" y="1" type="line"/>
      <point x="327" y="40" type="line"/>
      <point x="369" y="43" type="line" smooth="yes"/>
      <point x="380" y="44"/>
      <point x="390" y="52"/>
      <point x="390" y="64" type="curve" smooth="yes"/>
      <point x="390" y="324" type="line" smooth="yes"/>
      <point x="390" y="389"/>
      <point x="361" y="421"/>
      <point x="294" y="421" type="curve" smooth="yes"/>
      <point x="251" y="421"/>
      <point x="214" y="408"/>
      <point x="184" y="392" type="curve"/>
      <point x="184" y="64" type="line" smooth="yes"/>
      <point x="184" y="52"/>
      <point x="194" y="44"/>
      <point x="205" y="43" type="curve" smooth="yes"/>
      <point x="247" y="40" type="line"/>
      <point x="247" y="1" type="line"/>
      <point x="21" y="1" type="line"/>
      <point x="21" y="40" type="line"/>
      <point x="70" y="43" type="line" smooth="yes"/>
      <point x="81" y="44"/>
      <point x="91" y="52"/>
      <point x="91" y="64" type="curve" smooth="yes"/>
      <point x="91" y="411" type="line"/>
      <point x="21" y="411" type="line"/>
      <point x="21" y="444" type="line"/>
      <point x="143" y="482" type="line"/>
      <point x="184" y="482" type="line"/>
      <point x="184" y="432" type="line"/>
      <point x="222" y="454"/>
      <point x="265" y="477"/>
      <point x="312" y="489" type="curve" smooth="yes"/>
      <point x="325" y="492"/>
      <point x="337" y="494"/>
    </contour>
    <contour>
      <point x="276" y="-61" type="curve"/>
      <point x="276" y="-62" type="line"/>
      <point x="322" y="-62"/>
      <point x="347" y="-95"/>
      <point x="347" y="-143" type="curve" smooth="yes"/>
      <point x="347" y="-201"/>
      <point x="312" y="-234"/>
      <point x="272" y="-253" type="curve" smooth="yes"/>
      <point x="257" y="-260"/>
      <point x="241" y="-265"/>
      <point x="223" y="-268" type="curve"/>
      <point x="223" y="-238" type="line"/>
      <point x="269" y="-224"/>
      <point x="295" y="-205"/>
      <point x="295" y="-145" type="curve"/>
      <point x="236" y="-145" type="line"/>
      <point x="228" y="-137"/>
      <point x="221" y="-124"/>
      <point x="221" y="-108" type="curve" smooth="yes"/>
      <point x="221" y="-79"/>
      <point x="246" y="-61"/>
    </contour>
  </outline>
</glyph>
<glyph name="Ncaron" format="1">
  <advance width="721"/>
  <unicode hex="0147"/>
  <outline>
    <contour>
      <point x="636" y="624" type="line" smooth="yes"/>
      <point x="624" y="623"/>
      <point x="615" y="614"/>
      <point x="615" y="602" type="curve" smooth="yes"/>
      <point x="615" y="0" type="line"/>
      <point x="537" y="0" type="line"/>
      <point x="165" y="560" type="line"/>
      <point x="165" y="69" type="line" smooth="yes"/>
      <point x="165" y="57"/>
      <point x="174" y="48"/>
      <point x="186" y="47" type="curve" smooth="yes"/>
      <point x="243" y="43" type="line"/>
      <point x="243" y="0" type="line"/>
      <point x="27" y="0" type="line"/>
      <point x="27" y="43" type="line"/>
      <point x="84" y="47" type="line" smooth="yes"/>
      <point x="96" y="48"/>
      <point x="106" y="57"/>
      <point x="106" y="69" type="curve" smooth="yes"/>
      <point x="106" y="602" type="line" smooth="yes"/>
      <point x="106" y="614"/>
      <point x="96" y="623"/>
      <point x="84" y="624" type="curve" smooth="yes"/>
      <point x="25" y="628" type="line"/>
      <point x="25" y="671" type="line"/>
      <point x="223" y="671" type="line"/>
      <point x="223" y="646" type="line"/>
      <point x="556" y="143" type="line"/>
      <point x="556" y="602" type="line" smooth="yes"/>
      <point x="556" y="613"/>
      <point x="546" y="623"/>
      <point x="535" y="624" type="curve" smooth="yes"/>
      <point x="478" y="628" type="line"/>
      <point x="478" y="671" type="line"/>
      <point x="692" y="671" type="line"/>
      <point x="692" y="628" type="line"/>
    </contour>
    <contour>
      <point x="396" y="746" type="line"/>
      <point x="320" y="746" type="line"/>
      <point x="194" y="915" type="line"/>
      <point x="255" y="915" type="line"/>
      <point x="359" y="816" type="line"/>
      <point x="462" y="915" type="line"/>
      <point x="522" y="915" type="line"/>
    </contour>
  </outline>
</glyph>
<glyph name="napostrophe" format="1">
  <advance width="693"/>
  <unicode hex="0149"/>
  <outline>
    <contour>
      <point x="126" y="676" type="curve" smooth="yes"/>
      <point x="126" y="607"/>
      <point x="73" y="564"/>
      <point x="2" y="551" type="curve"/>
      <point x="2" y="581" type="line"/>
      <point x="54" y="597"/>
      <point x="74" y="618"/>
      <point x="74" y="674" type="curve"/>
      <point x="15" y="674" type="line" smooth="yes"/>
      <point x="12" y="677"/>
      <point x="0" y="690"/>
      <point x="0" y="710" type="curve" smooth="yes"/>
      <point x="0" y="740"/>
      <point x="26" y="757"/>
      <point x="55" y="757" type="curve" smooth="yes"/>
      <point x="98" y="757"/>
      <point x="126" y="729"/>
    </contour>
    <contour>
      <point x="673" y="0" type="line"/>
      <point x="452" y="0" type="line"/>
      <point x="452" y="39" type="line"/>
      <point x="494" y="42" type="line" smooth="yes"/>
      <point x="506" y="43"/>
      <point x="515" y="52"/>
      <point x="515" y="64" type="curve" smooth="yes"/>
      <point x="515" y="324" type="line" smooth="yes"/>
      <point x="515" y="388"/>
      <point x="488" y="421"/>
      <point x="419" y="421" type="curve" smooth="yes"/>
      <point x="380" y="421"/>
      <point x="342" y="409"/>
      <point x="309" y="392" type="curve"/>
      <point x="309" y="64" type="line" smooth="yes"/>
      <point x="309" y="52"/>
      <point x="318" y="43"/>
      <point x="330" y="42" type="curve" smooth="yes"/>
      <point x="372" y="39" type="line"/>
      <point x="372" y="0" type="line"/>
      <point x="146" y="0" type="line"/>
      <point x="146" y="39" type="line"/>
      <point x="195" y="42" type="line" smooth="yes"/>
      <point x="207" y="43"/>
      <point x="216" y="52"/>
      <point x="216" y="64" type="curve" smooth="yes"/>
      <point x="216" y="411" type="line"/>
      <point x="146" y="411" type="line"/>
      <point x="146" y="444" type="line"/>
      <point x="268" y="482" type="line"/>
      <point x="309" y="482" type="line"/>
      <point x="309" y="432" type="line"/>
      <point x="365" y="464"/>
      <point x="429" y="494"/>
      <point x="474" y="494" type="curve" smooth="yes"/>
      <point x="562" y="494"/>
      <point x="608" y="437"/>
      <point x="608" y="340" type="curve" smooth="yes"/>
      <point x="608" y="64" type="line" smooth="yes"/>
      <point x="608" y="52"/>
      <point x="617" y="43"/>
      <point x="629" y="42" type="curve" smooth="yes"/>
      <point x="673" y="39" type="line"/>
    </contour>
  </outline>
</glyph>
<glyph name="Eng" format="1">
  <advance width="727"/>
  <unicode hex="014A"/>
  <outline>
    <contour>
      <point x="383" y="604" type="curve" smooth="yes"/>
      <point x="308" y="604"/>
      <point x="254" y="569"/>
      <point x="208" y="533" type="curve"/>
      <point x="208" y="69" type="line" smooth="yes"/>
      <point x="208" y="57"/>
      <point x="217" y="48"/>
      <point x="229" y="47" type="curve" smooth="yes"/>
      <point x="291" y="43" type="line"/>
      <point x="291" y="0" type="line"/>
      <point x="35" y="0" type="line"/>
      <point x="35" y="43" type="line"/>
      <point x="86" y="47" type="line" smooth="yes"/>
      <point x="98" y="48"/>
      <point x="107" y="57"/>
      <point x="107" y="69" type="curve" smooth="yes"/>
      <point x="107" y="604" type="line" smooth="yes"/>
      <point x="107" y="614"/>
      <point x="98" y="622"/>
      <point x="87" y="623" type="curve" smooth="yes"/>
      <point x="29" y="628" type="line"/>
      <point x="29" y="671" type="line"/>
      <point x="208" y="671" type="line"/>
      <point x="208" y="590" type="line"/>
      <point x="255" y="627"/>
      <point x="301" y="663"/>
      <point x="365" y="680" type="curve" smooth="yes"/>
      <point x="383" y="685"/>
      <point x="402" y="687"/>
      <point x="422" y="687" type="curve" smooth="yes"/>
      <point x="520" y="687"/>
      <point x="589" y="634"/>
      <point x="620" y="564" type="curve" smooth="yes"/>
      <point x="632" y="537"/>
      <point x="638" y="507"/>
      <point x="638" y="473" type="curve" smooth="yes"/>
      <point x="638" y="-21" type="line" smooth="yes"/>
      <point x="638" y="-122"/>
      <point x="587" y="-187"/>
      <point x="513" y="-215" type="curve" smooth="yes"/>
      <point x="488" y="-225"/>
      <point x="460" y="-230"/>
      <point x="429" y="-230" type="curve" smooth="yes"/>
      <point x="383" y="-230"/>
      <point x="351" y="-213"/>
      <point x="338" y="-182" type="curve" smooth="yes"/>
      <point x="334" y="-173"/>
      <point x="332" y="-164"/>
      <point x="332" y="-155" type="curve" smooth="yes"/>
      <point x="332" y="-126"/>
      <point x="350" y="-105"/>
      <point x="369" y="-96" type="curve" smooth="yes"/>
      <point x="374" y="-93"/>
      <point x="378" y="-92"/>
      <point x="380" y="-92" type="curve" smooth="yes"/>
      <point x="458" y="-179" type="line"/>
      <point x="523" y="-179"/>
      <point x="537" y="-125"/>
      <point x="537" y="-60" type="curve" smooth="yes"/>
      <point x="537" y="453" type="line" smooth="yes"/>
      <point x="537" y="525"/>
      <point x="498" y="573"/>
      <point x="446" y="593" type="curve" smooth="yes"/>
      <point x="427" y="600"/>
      <point x="406" y="604"/>
    </contour>
  </outline>
</glyph>
<glyph name="oe" format="1">
  <advance width="819"/>
  <unicode hex="0153"/>
  <outline>
    <contour>
      <point x="437" y="87" type="curve"/>
      <point x="437" y="86" type="line"/>
      <point x="399" y="35"/>
      <point x="349" y="-13"/>
      <point x="261" y="-13" type="curve" smooth="yes"/>
      <point x="184" y="-13"/>
      <point x="130" y="19"/>
      <point x="94" y="62" type="curve" smooth="yes"/>
      <point x="58" y="104"/>
      <point x="34" y="165"/>
      <point x="34" y="239" type="curve" smooth="yes"/>
      <point x="34" y="354"/>
      <point x="87" y="435"/>
      <point x="166" y="472" type="curve" smooth="yes"/>
      <point x="194" y="485"/>
      <point x="226" y="492"/>
      <point x="262" y="492" type="curve" smooth="yes"/>
      <point x="331" y="492"/>
      <point x="382" y="466"/>
      <point x="416" y="431" type="curve" smooth="yes"/>
      <point x="427" y="420"/>
      <point x="436" y="409"/>
      <point x="442" y="398" type="curve"/>
      <point x="473" y="450"/>
      <point x="529" y="493"/>
      <point x="609" y="493" type="curve" smooth="yes"/>
      <point x="729" y="493"/>
      <point x="785" y="408"/>
      <point x="785" y="288" type="curve" smooth="yes"/>
      <point x="785" y="275" type="line" smooth="yes"/>
      <point x="785" y="270"/>
      <point x="785" y="265"/>
      <point x="784" y="260" type="curve"/>
      <point x="483" y="260" type="line"/>
      <point x="483" y="171"/>
      <point x="512" y="105"/>
      <point x="569" y="72" type="curve" smooth="yes"/>
      <point x="590" y="60"/>
      <point x="616" y="54"/>
      <point x="647" y="54" type="curve" smooth="yes"/>
      <point x="693" y="54"/>
      <point x="727" y="73"/>
      <point x="756" y="91" type="curve" smooth="yes"/>
      <point x="766" y="97"/>
      <point x="776" y="104"/>
      <point x="785" y="111" type="curve"/>
      <point x="785" y="50" type="line"/>
      <point x="740" y="19"/>
      <point x="688" y="-12"/>
      <point x="614" y="-12" type="curve" smooth="yes"/>
      <point x="526" y="-12"/>
      <point x="472" y="34"/>
    </contour>
    <contour>
      <point x="389" y="238" type="curve"/>
      <point x="388" y="238" type="line"/>
      <point x="388" y="322"/>
      <point x="368" y="394"/>
      <point x="319" y="429" type="curve" smooth="yes"/>
      <point x="303" y="440"/>
      <point x="285" y="446"/>
      <point x="264" y="446" type="curve" smooth="yes"/>
      <point x="190" y="446"/>
      <point x="158" y="383"/>
      <point x="145" y="320" type="curve" smooth="yes"/>
      <point x="140" y="296"/>
      <point x="138" y="271"/>
      <point x="138" y="244" type="curve" smooth="yes"/>
      <point x="138" y="160"/>
      <point x="161" y="87"/>
      <point x="209" y="51" type="curve" smooth="yes"/>
      <point x="224" y="40"/>
      <point x="242" y="34"/>
      <point x="263" y="34" type="curve" smooth="yes"/>
      <point x="311" y="34"/>
      <point x="340" y="63"/>
      <point x="358" y="96" type="curve" smooth="yes"/>
      <point x="378" y="132"/>
      <point x="389" y="183"/>
    </contour>
    <contour>
      <point x="684" y="327" type="line"/>
      <point x="684" y="328" type="line" smooth="yes"/>
      <point x="684" y="378"/>
      <point x="668" y="417"/>
      <point x="636" y="436" type="curve" smooth="yes"/>
      <point x="625" y="442"/>
      <point x="613" y="445"/>
      <point x="599" y="445" type="curve" smooth="yes"/>
      <point x="525" y="445"/>
      <point x="495" y="373"/>
      <point x="488" y="305" type="curve"/>
      <point x="684" y="305" type="line"/>
    </contour>
  </outline>
</glyph>
<glyph name="rcedilla" format="1">
  <advance width="391"/>
  <unicode hex="0157"/>
  <outline>
    <contour>
      <point x="320" y="494" type="curve" smooth="yes"/>
      <point x="344" y="494"/>
      <point x="364" y="486"/>
      <point x="381" y="479" type="curve"/>
      <point x="381" y="380" type="line"/>
      <point x="342" y="380" type="line"/>
      <point x="329" y="394"/>
      <point x="314" y="407"/>
      <point x="288" y="407" type="curve" smooth="yes"/>
      <point x="272" y="407"/>
      <point x="256" y="402"/>
      <point x="239" y="391" type="curve" smooth="yes"/>
      <point x="222" y="380"/>
      <point x="205" y="365"/>
      <point x="188" y="345" type="curve"/>
      <point x="188" y="64" type="line" smooth="yes"/>
      <point x="188" y="52"/>
      <point x="198" y="44"/>
      <point x="209" y="43" type="curve" smooth="yes"/>
      <point x="275" y="40" type="line"/>
      <point x="275" y="1" type="line"/>
      <point x="25" y="1" type="line"/>
      <point x="25" y="39" type="line"/>
      <point x="74" y="43" type="line" smooth="yes"/>
      <point x="85" y="44"/>
      <point x="95" y="52"/>
      <point x="95" y="64" type="curve" smooth="yes"/>
      <point x="95" y="411" type="line"/>
      <point x="23" y="411" type="line"/>
      <point x="23" y="444" type="line"/>
      <point x="147" y="482" type="line"/>
      <point x="188" y="482" type="line"/>
      <point x="188" y="393" type="line"/>
      <point x="215" y="423"/>
      <point x="247" y="461"/>
      <point x="284" y="483" type="curve" smooth="yes"/>
      <point x="296" y="490"/>
      <point x="308" y="494"/>
    </contour>
    <contour>
      <point x="134" y="-61" type="curve"/>
      <point x="134" y="-62" type="line"/>
      <point x="180" y="-62"/>
      <point x="205" y="-95"/>
      <point x="205" y="-143" type="curve" smooth="yes"/>
      <point x="205" y="-201"/>
      <point x="170" y="-234"/>
      <point x="130" y="-253" type="curve" smooth="yes"/>
      <point x="115" y="-260"/>
      <point x="99" y="-265"/>
      <point x="81" y="-268" type="curve"/>
      <point x="81" y="-238" type="line"/>
      <point x="127" y="-224"/>
      <point x="153" y="-205"/>
      <point x="153" y="-145" type="curve"/>
      <point x="94" y="-145" type="line"/>
      <point x="86" y="-137"/>
      <point x="79" y="-124"/>
      <point x="79" y="-108" type="curve" smooth="yes"/>
      <point x="79" y="-79"/>
      <point x="104" y="-61"/>
    </contour>
  </outline>
</glyph>
<glyph name="Scedilla" format="1">
  <advance width="520"/>
  <unicode hex="015E"/>
  <outline>
    <contour>
      <point x="284" y="-59" type="curve"/>
      <point x="286" y="-57" type="line"/>
      <point x="332" y="-57"/>
      <point x="358" y="-82"/>
      <point x="358" y="-128" type="curve" smooth="yes"/>
      <point x="358" y="-193"/>
      <point x="307" y="-223"/>
      <point x="242" y="-223" type="curve" smooth="yes"/>
      <point x="215" y="-223"/>
      <point x="189" y="-219"/>
      <point x="168" y="-213" type="curve"/>
      <point x="168" y="-174" type="line"/>
      <point x="186" y="-178"/>
      <point x="207" y="-182"/>
      <point x="229" y="-182" type="curve" smooth="yes"/>
      <point x="261" y="-182"/>
      <point x="293" y="-173"/>
      <point x="293" y="-141" type="curve" smooth="yes"/>
      <point x="293" y="-115"/>
      <point x="273" y="-104"/>
      <point x="246" y="-104" type="curve" smooth="yes"/>
      <point x="237" y="-104"/>
      <point x="230" y="-107"/>
      <point x="223" y="-110" type="curve"/>
      <point x="223" y="-14" type="line"/>
      <point x="219" y="-14" type="line" smooth="yes"/>
      <point x="170" y="-14"/>
      <point x="126" y="-5"/>
      <point x="89" y="4" type="curve" smooth="yes"/>
      <point x="71" y="9"/>
      <point x="55" y="15"/>
      <point x="41" y="22" type="curve"/>
      <point x="41" y="199" type="line"/>
      <point x="104" y="199" type="line"/>
      <point x="117" y="86" type="line" smooth="yes"/>
      <point x="120" y="65"/>
      <point x="142" y="59"/>
      <point x="161" y="52" type="curve" smooth="yes"/>
      <point x="181" y="45"/>
      <point x="205" y="40"/>
      <point x="234" y="40" type="curve" smooth="yes"/>
      <point x="299" y="40"/>
      <point x="348" y="64"/>
      <point x="370" y="108" type="curve" smooth="yes"/>
      <point x="377" y="123"/>
      <point x="381" y="140"/>
      <point x="381" y="159" type="curve" smooth="yes"/>
      <point x="381" y="204"/>
      <point x="349" y="233"/>
      <point x="320" y="253" type="curve" smooth="yes"/>
      <point x="287" y="276"/>
      <point x="242" y="294"/>
      <point x="205" y="312" type="curve" smooth="yes"/>
      <point x="131" y="348"/>
      <point x="51" y="384"/>
      <point x="51" y="492" type="curve" smooth="yes"/>
      <point x="51" y="591"/>
      <point x="114" y="649"/>
      <point x="190" y="674" type="curve" smooth="yes"/>
      <point x="218" y="683"/>
      <point x="249" y="688"/>
      <point x="282" y="688" type="curve" smooth="yes"/>
      <point x="352" y="688"/>
      <point x="405" y="670"/>
      <point x="458" y="654" type="curve"/>
      <point x="458" y="498" type="line"/>
      <point x="401" y="498" type="line"/>
      <point x="386" y="594" type="line" smooth="yes"/>
      <point x="385" y="601"/>
      <point x="377" y="607"/>
      <point x="371" y="610" type="curve" smooth="yes"/>
      <point x="370" y="610"/>
      <point x="368" y="611"/>
      <point x="364" y="614" type="curve" smooth="yes"/>
      <point x="346" y="627"/>
      <point x="315" y="633"/>
      <point x="282" y="633" type="curve" smooth="yes"/>
      <point x="221" y="633"/>
      <point x="180" y="605"/>
      <point x="162" y="562" type="curve" smooth="yes"/>
      <point x="156" y="548"/>
      <point x="153" y="532"/>
      <point x="153" y="515" type="curve" smooth="yes"/>
      <point x="153" y="479"/>
      <point x="168" y="457"/>
      <point x="189" y="439" type="curve" smooth="yes"/>
      <point x="234" y="399"/>
      <point x="316" y="377"/>
      <point x="373" y="348" type="curve" smooth="yes"/>
      <point x="432" y="317"/>
      <point x="482" y="275"/>
      <point x="482" y="188" type="curve" smooth="yes"/>
      <point x="482" y="127"/>
      <point x="456" y="81"/>
      <point x="420" y="49" type="curve" smooth="yes"/>
      <point x="384" y="16"/>
      <point x="328" y="-9"/>
      <point x="261" y="-14" type="curve"/>
      <point x="261" y="-63" type="line"/>
      <point x="269" y="-61"/>
      <point x="274" y="-59"/>
    </contour>
  </outline>
</glyph>
<glyph name="scedilla" format="1">
  <advance width="397"/>
  <unicode hex="015F"/>
  <outline>
    <contour>
      <point x="229" y="-59" type="curve"/>
      <point x="228" y="-61" type="line"/>
      <point x="274" y="-61"/>
      <point x="299" y="-86"/>
      <point x="299" y="-132" type="curve" smooth="yes"/>
      <point x="299" y="-197"/>
      <point x="249" y="-227"/>
      <point x="183" y="-227" type="curve" smooth="yes"/>
      <point x="156" y="-227"/>
      <point x="130" y="-223"/>
      <point x="109" y="-217" type="curve"/>
      <point x="109" y="-178" type="line"/>
      <point x="127" y="-182"/>
      <point x="149" y="-186"/>
      <point x="170" y="-186" type="curve" smooth="yes"/>
      <point x="202" y="-186"/>
      <point x="234" y="-177"/>
      <point x="234" y="-145" type="curve" smooth="yes"/>
      <point x="234" y="-119"/>
      <point x="214" y="-108"/>
      <point x="187" y="-108" type="curve" smooth="yes"/>
      <point x="178" y="-108"/>
      <point x="171" y="-111"/>
      <point x="165" y="-114" type="curve"/>
      <point x="165" y="-14" type="line"/>
      <point x="116" y="-14"/>
      <point x="68" y="-2"/>
      <point x="33" y="11" type="curve"/>
      <point x="33" y="144" type="line"/>
      <point x="84" y="144" type="line"/>
      <point x="96" y="59" type="line"/>
      <point x="117" y="45"/>
      <point x="148" y="31"/>
      <point x="185" y="31" type="curve" smooth="yes"/>
      <point x="235" y="31"/>
      <point x="275" y="60"/>
      <point x="275" y="109" type="curve" smooth="yes"/>
      <point x="275" y="158"/>
      <point x="239" y="178"/>
      <point x="204" y="195" type="curve" smooth="yes"/>
      <point x="147" y="223"/>
      <point x="71" y="249"/>
      <point x="47" y="308" type="curve" smooth="yes"/>
      <point x="42" y="320"/>
      <point x="40" y="333"/>
      <point x="40" y="348" type="curve" smooth="yes"/>
      <point x="40" y="449"/>
      <point x="118" y="493"/>
      <point x="220" y="493" type="curve" smooth="yes"/>
      <point x="261" y="493"/>
      <point x="297" y="486"/>
      <point x="328" y="478" type="curve" smooth="yes"/>
      <point x="337" y="476"/>
      <point x="344" y="474"/>
      <point x="349" y="471" type="curve"/>
      <point x="349" y="353" type="line"/>
      <point x="297" y="353" type="line"/>
      <point x="289" y="423" type="line"/>
      <point x="273" y="434"/>
      <point x="241" y="446"/>
      <point x="213" y="446" type="curve" smooth="yes"/>
      <point x="164" y="446"/>
      <point x="132" y="424"/>
      <point x="132" y="379" type="curve" smooth="yes"/>
      <point x="132" y="335"/>
      <point x="160" y="319"/>
      <point x="190" y="302" type="curve" smooth="yes"/>
      <point x="246" y="271"/>
      <point x="328" y="247"/>
      <point x="355" y="188" type="curve" smooth="yes"/>
      <point x="361" y="175"/>
      <point x="364" y="161"/>
      <point x="364" y="145" type="curve" smooth="yes"/>
      <point x="364" y="65"/>
      <point x="317" y="17"/>
      <point x="253" y="-1" type="curve" smooth="yes"/>
      <point x="238" y="-5"/>
      <point x="222" y="-8"/>
      <point x="205" y="-11" type="curve"/>
      <point x="205" y="-63" type="line"/>
      <point x="213" y="-61"/>
      <point x="218" y="-59"/>
    </contour>
  </outline>
</glyph>
<glyph name="uni0162" format="1">
  <advance width="599"/>
  <unicode hex="0162"/>
  <outline>
    <contour>
      <point x="343" y="-59" type="curve" smooth="yes"/>
      <point x="388" y="-59"/>
      <point x="415" y="-84"/>
      <point x="415" y="-130" type="curve" smooth="yes"/>
      <point x="415" y="-195"/>
      <point x="363" y="-225"/>
      <point x="298" y="-225" type="curve" smooth="yes"/>
      <point x="271" y="-225"/>
      <point x="246" y="-221"/>
      <point x="225" y="-215" type="curve"/>
      <point x="225" y="-176" type="line"/>
      <point x="243" y="-180"/>
      <point x="264" y="-184"/>
      <point x="286" y="-184" type="curve" smooth="yes"/>
      <point x="317" y="-184"/>
      <point x="350" y="-174"/>
      <point x="350" y="-143" type="curve" smooth="yes"/>
      <point x="350" y="-117"/>
      <point x="329" y="-106"/>
      <point x="303" y="-106" type="curve" smooth="yes"/>
      <point x="294" y="-106"/>
      <point x="287" y="-109"/>
      <point x="280" y="-112" type="curve"/>
      <point x="280" y="0" type="line"/>
      <point x="164" y="0" type="line"/>
      <point x="164" y="43" type="line"/>
      <point x="228" y="47" type="line" smooth="yes"/>
      <point x="240" y="48"/>
      <point x="249" y="57"/>
      <point x="249" y="69" type="curve" smooth="yes"/>
      <point x="249" y="622" type="line"/>
      <point x="105" y="622" type="line" smooth="yes"/>
      <point x="95" y="622"/>
      <point x="89" y="615"/>
      <point x="88" y="605" type="curve" smooth="yes"/>
      <point x="74" y="511" type="line"/>
      <point x="16" y="511" type="line"/>
      <point x="16" y="671" type="line"/>
      <point x="583" y="671" type="line"/>
      <point x="583" y="511" type="line"/>
      <point x="524" y="511" type="line"/>
      <point x="510" y="605" type="line" smooth="yes"/>
      <point x="509" y="615"/>
      <point x="503" y="622"/>
      <point x="493" y="622" type="curve" smooth="yes"/>
      <point x="350" y="622" type="line"/>
      <point x="350" y="69" type="line" smooth="yes"/>
      <point x="350" y="57"/>
      <point x="359" y="48"/>
      <point x="371" y="47" type="curve" smooth="yes"/>
      <point x="435" y="43" type="line"/>
      <point x="435" y="0" type="line"/>
      <point x="319" y="0" type="line"/>
      <point x="319" y="-63" type="line"/>
      <point x="327" y="-61"/>
      <point x="332" y="-59"/>
    </contour>
  </outline>
</glyph>
<glyph name="tcaron" format="1">
  <advance width="339"/>
  <unicode hex="0165"/>
  <outline>
    <contour>
      <point x="283" y="752" type="curve" smooth="yes"/>
      <point x="329" y="752"/>
      <point x="354" y="720"/>
      <point x="354" y="671" type="curve" smooth="yes"/>
      <point x="354" y="594"/>
      <point x="294" y="558"/>
      <point x="229" y="546" type="curve"/>
      <point x="229" y="575" type="line"/>
      <point x="276" y="589"/>
      <point x="302" y="609"/>
      <point x="302" y="669" type="curve"/>
      <point x="243" y="669" type="line" smooth="yes"/>
      <point x="233" y="669"/>
      <point x="228" y="694"/>
      <point x="228" y="705" type="curve" smooth="yes"/>
      <point x="228" y="736"/>
      <point x="252" y="752"/>
    </contour>
    <contour>
      <point x="264" y="44" type="curve" smooth="yes"/>
      <point x="263" y="44" type="line" smooth="yes"/>
      <point x="291" y="44"/>
      <point x="314" y="51"/>
      <point x="332" y="61" type="curve"/>
      <point x="332" y="21" type="line"/>
      <point x="296" y="4"/>
      <point x="252" y="-12"/>
      <point x="198" y="-12" type="curve" smooth="yes"/>
      <point x="121" y="-12"/>
      <point x="91" y="22"/>
      <point x="91" y="100" type="curve" smooth="yes"/>
      <point x="91" y="432" type="line"/>
      <point x="27" y="432" type="line"/>
      <point x="27" y="465" type="line"/>
      <point x="95" y="497" type="line"/>
      <point x="140" y="603" type="line"/>
      <point x="184" y="603" type="line"/>
      <point x="184" y="482" type="line"/>
      <point x="325" y="482" type="line"/>
      <point x="325" y="432" type="line"/>
      <point x="184" y="432" type="line"/>
      <point x="184" y="153" type="line" smooth="yes"/>
      <point x="184" y="88"/>
      <point x="201" y="44"/>
    </contour>
  </outline>
</glyph>
<glyph name="Tbar" format="1">
  <advance width="599"/>
  <unicode hex="0166"/>
  <outline>
    <contour>
      <point x="524" y="511" type="line"/>
      <point x="510" y="605" type="line" smooth="yes"/>
      <point x="509" y="615"/>
      <point x="503" y="622"/>
      <point x="493" y="622" type="curve" smooth="yes"/>
      <point x="350" y="622" type="line"/>
      <point x="350" y="377" type="line"/>
      <point x="490" y="377" type="line"/>
      <point x="490" y="326" type="line"/>
      <point x="350" y="326" type="line"/>
      <point x="350" y="69" type="line" smooth="yes"/>
      <point x="350" y="57"/>
      <point x="359" y="48"/>
      <point x="371" y="47" type="curve" smooth="yes"/>
      <point x="435" y="43" type="line"/>
      <point x="435" y="0" type="line"/>
      <point x="164" y="0" type="line"/>
      <point x="164" y="43" type="line"/>
      <point x="228" y="47" type="line" smooth="yes"/>
      <point x="240" y="48"/>
      <point x="249" y="57"/>
      <point x="249" y="69" type="curve" smooth="yes"/>
      <point x="249" y="326" type="line"/>
      <point x="109" y="326" type="line"/>
      <point x="109" y="377" type="line"/>
      <point x="249" y="377" type="line"/>
      <point x="249" y="622" type="line"/>
      <point x="105" y="622" type="line" smooth="yes"/>
      <point x="95" y="622"/>
      <point x="89" y="615"/>
      <point x="88" y="605" type="curve" smooth="yes"/>
      <point x="74" y="511" type="line"/>
      <point x="16" y="511" type="line"/>
      <point x="16" y="671" type="line"/>
      <point x="583" y="671" type="line"/>
      <point x="583" y="511" type="line"/>
    </contour>
  </outline>
</glyph>
<glyph name="uring" format="1">
  <advance width="568"/>
  <unicode hex="016F"/>
  <outline>
    <contour>
      <point x="280" y="56" type="curve"/>
      <point x="282" y="54" type="line"/>
      <point x="325" y="54"/>
      <point x="359" y="71"/>
      <point x="389" y="84" type="curve"/>
      <point x="389" y="419" type="line"/>
      <point x="319" y="419" type="line"/>
      <point x="319" y="453" type="line"/>
      <point x="441" y="492" type="line"/>
      <point x="482" y="492" type="line"/>
      <point x="482" y="62" type="line" smooth="yes"/>
      <point x="482" y="50"/>
      <point x="493" y="42"/>
      <point x="504" y="41" type="curve" smooth="yes"/>
      <point x="548" y="38" type="line"/>
      <point x="548" y="-1" type="line"/>
      <point x="389" y="-1" type="line"/>
      <point x="389" y="56" type="line"/>
      <point x="357" y="32"/>
      <point x="317" y="8"/>
      <point x="273" y="-5" type="curve" smooth="yes"/>
      <point x="258" y="-10"/>
      <point x="243" y="-12"/>
      <point x="228" y="-12" type="curve" smooth="yes"/>
      <point x="130" y="-12"/>
      <point x="90" y="50"/>
      <point x="90" y="150" type="curve" smooth="yes"/>
      <point x="90" y="421" type="line"/>
      <point x="20" y="421" type="line"/>
      <point x="20" y="455" type="line"/>
      <point x="143" y="494" type="line"/>
      <point x="183" y="494" type="line"/>
      <point x="183" y="169" type="line" smooth="yes"/>
      <point x="183" y="98"/>
      <point x="209" y="56"/>
    </contour>
    <contour>
      <point x="356" y="667" type="curve" smooth="yes"/>
      <point x="356" y="666" type="line" smooth="yes"/>
      <point x="356" y="707"/>
      <point x="326" y="737"/>
      <point x="286" y="737" type="curve" smooth="yes"/>
      <point x="253" y="737"/>
      <point x="232" y="717"/>
      <point x="222" y="694" type="curve" smooth="yes"/>
      <point x="218" y="686"/>
      <point x="216" y="677"/>
      <point x="216" y="667" type="curve" smooth="yes"/>
      <point x="216" y="627"/>
      <point x="246" y="597"/>
      <point x="286" y="597" type="curve" smooth="yes"/>
      <point x="326" y="597"/>
      <point x="356" y="627"/>
    </contour>
    <contour>
      <point x="405" y="666" type="curve" smooth="yes"/>
      <point x="405" y="612"/>
      <point x="371" y="573"/>
      <point x="332" y="557" type="curve" smooth="yes"/>
      <point x="318" y="551"/>
      <point x="303" y="548"/>
      <point x="286" y="548" type="curve" smooth="yes"/>
      <point x="230" y="548"/>
      <point x="194" y="581"/>
      <point x="176" y="621" type="curve" smooth="yes"/>
      <point x="170" y="635"/>
      <point x="167" y="650"/>
      <point x="167" y="666" type="curve" smooth="yes"/>
      <point x="167" y="721"/>
      <point x="201" y="759"/>
      <point x="240" y="776" type="curve" smooth="yes"/>
      <point x="254" y="782"/>
      <point x="270" y="785"/>
      <point x="287" y="785" type="curve" smooth="yes"/>
      <point x="343" y="785"/>
      <point x="379" y="751"/>
      <point x="396" y="712" type="curve" smooth="yes"/>
      <point x="402" y="698"/>
      <point x="405" y="683"/>
    </contour>
  </outline>
</glyph>
<glyph name="uogonek" format="1">
  <advance width="568"/>
  <unicode hex="0173"/>
  <outline>
    <contour>
      <point x="442" y="-141" type="curve"/>
      <point x="444" y="-143" type="line"/>
      <point x="461" y="-143"/>
      <point x="474" y="-132"/>
      <point x="485" y="-125" type="curve"/>
      <point x="509" y="-165" type="line"/>
      <point x="489" y="-175"/>
      <point x="471" y="-182"/>
      <point x="449" y="-189" type="curve" smooth="yes"/>
      <point x="439" y="-192"/>
      <point x="430" y="-193"/>
      <point x="423" y="-193" type="curve" smooth="yes"/>
      <point x="367" y="-193"/>
      <point x="323" y="-173"/>
      <point x="323" y="-120" type="curve" smooth="yes"/>
      <point x="323" y="-65"/>
      <point x="358" y="-25"/>
      <point x="391" y="-2" type="curve"/>
      <point x="391" y="55" type="line"/>
      <point x="359" y="31"/>
      <point x="319" y="7"/>
      <point x="275" y="-6" type="curve" smooth="yes"/>
      <point x="260" y="-11"/>
      <point x="245" y="-13"/>
      <point x="230" y="-13" type="curve" smooth="yes"/>
      <point x="132" y="-13"/>
      <point x="92" y="49"/>
      <point x="92" y="149" type="curve" smooth="yes"/>
      <point x="92" y="420" type="line"/>
      <point x="22" y="420" type="line"/>
      <point x="22" y="454" type="line"/>
      <point x="145" y="493" type="line"/>
      <point x="185" y="493" type="line"/>
      <point x="185" y="168" type="line" smooth="yes"/>
      <point x="185" y="97"/>
      <point x="211" y="55"/>
      <point x="282" y="55" type="curve" smooth="yes"/>
      <point x="325" y="55"/>
      <point x="359" y="72"/>
      <point x="389" y="85" type="curve"/>
      <point x="389" y="420" type="line"/>
      <point x="319" y="420" type="line"/>
      <point x="319" y="454" type="line"/>
      <point x="441" y="493" type="line"/>
      <point x="482" y="493" type="line"/>
      <point x="482" y="63" type="line" smooth="yes"/>
      <point x="482" y="51"/>
      <point x="493" y="43"/>
      <point x="504" y="42" type="curve" smooth="yes"/>
      <point x="548" y="39" type="line"/>
      <point x="548" y="0" type="line"/>
      <point x="437" y="0" type="line"/>
      <point x="412" y="-19"/>
      <point x="384" y="-48"/>
      <point x="384" y="-92" type="curve" smooth="yes"/>
      <point x="384" y="-126"/>
      <point x="407" y="-141"/>
    </contour>
  </outline>
</glyph>
<glyph name="Wcircumflex" format="1">
  <advance width="931"/>
  <unicode hex="0174"/>
  <outline>
    <contour>
      <point x="860" y="616" type="line"/>
      <point x="707" y="-17" type="line"/>
      <point x="634" y="-17" type="line"/>
      <point x="467" y="537" type="line"/>
      <point x="303" y="-17" type="line"/>
      <point x="231" y="-17" type="line"/>
      <point x="68" y="615" type="line"/>
      <point x="10" y="627" type="line"/>
      <point x="10" y="670" type="line"/>
      <point x="239" y="670" type="line"/>
      <point x="239" y="627" type="line"/>
      <point x="179" y="621" type="line" smooth="yes"/>
      <point x="170" y="620"/>
      <point x="166" y="612"/>
      <point x="169" y="602" type="curve" smooth="yes"/>
      <point x="288" y="151" type="line"/>
      <point x="445" y="671" type="line"/>
      <point x="522" y="671" type="line"/>
      <point x="683" y="135" type="line"/>
      <point x="794" y="602" type="line" smooth="yes"/>
      <point x="796" y="613"/>
      <point x="790" y="621"/>
      <point x="780" y="622" type="curve" smooth="yes"/>
      <point x="717" y="628" type="line"/>
      <point x="717" y="671" type="line"/>
      <point x="921" y="671" type="line"/>
      <point x="921" y="628" type="line"/>
    </contour>
    <contour>
      <point x="584" y="745" type="line"/>
      <point x="481" y="844" type="line"/>
      <point x="377" y="745" type="line"/>
      <point x="316" y="745" type="line"/>
      <point x="442" y="914" type="line"/>
      <point x="518" y="914" type="line"/>
      <point x="644" y="745" type="line"/>
    </contour>
  </outline>
</glyph>
<glyph name="Zacute" format="1">
  <advance width="575"/>
  <unicode hex="0179"/>
  <outline>
    <contour>
      <point x="39" y="0" type="line"/>
      <point x="39" y="44" type="line"/>
      <point x="411" y="621" type="line"/>
      <point x="151" y="621" type="line" smooth="yes"/>
      <point x="141" y="621"/>
      <point x="136" y="612"/>
      <point x="134" y="604" type="curve" smooth="yes"/>
      <point x="119" y="511" type="line"/>
      <point x="60" y="511" type="line"/>
      <point x="60" y="671" type="line"/>
      <point x="531" y="671" type="line"/>
      <point x="531" y="625" type="line"/>
      <point x="158" y="51" type="line"/>
      <point x="443" y="51" type="line" smooth="yes"/>
      <point x="453" y="51"/>
      <point x="458" y="61"/>
      <point x="460" y="69" type="curve" smooth="yes"/>
      <point x="477" y="185" type="line"/>
      <point x="536" y="185" type="line"/>
      <point x="536" y="0" type="line"/>
    </contour>
    <contour>
      <point x="397" y="928" type="curve" smooth="yes"/>
      <point x="398" y="928" type="line" smooth="yes"/>
      <point x="427" y="928"/>
      <point x="444" y="911"/>
      <point x="444" y="883" type="curve" smooth="yes"/>
      <point x="444" y="864"/>
      <point x="432" y="852"/>
      <point x="421" y="843" type="curve" smooth="yes"/>
      <point x="268" y="746" type="line"/>
      <point x="212" y="746" type="line"/>
      <point x="344" y="901" type="line" smooth="yes"/>
      <point x="358" y="915"/>
      <point x="368" y="928"/>
    </contour>
  </outline>
</glyph>
<glyph name="zacute" format="1">
  <advance width="461"/>
  <unicode hex="017A"/>
  <outline>
    <contour>
      <point x="34" y="0" type="line"/>
      <point x="35" y="53" type="line"/>
      <point x="300" y="435" type="line"/>
      <point x="126" y="435" type="line" smooth="yes"/>
      <point x="116" y="435"/>
      <point x="107" y="423"/>
      <point x="106" y="414" type="curve" smooth="yes"/>
      <point x="96" y="340" type="line"/>
      <point x="45" y="340" type="line"/>
      <point x="45" y="482" type="line"/>
      <point x="415" y="482" type="line"/>
      <point x="415" y="441" type="line"/>
      <point x="141" y="48" type="line"/>
      <point x="343" y="48" type="line" smooth="yes"/>
      <point x="354" y="48"/>
      <point x="362" y="63"/>
      <point x="364" y="72" type="curve" smooth="yes"/>
      <point x="374" y="151" type="line"/>
      <point x="428" y="151" type="line"/>
      <point x="428" y="0" type="line"/>
    </contour>
    <contour>
      <point x="336" y="733" type="curve" smooth="yes"/>
      <point x="337" y="733" type="line" smooth="yes"/>
      <point x="366" y="733"/>
      <point x="383" y="716"/>
      <point x="383" y="688" type="curve" smooth="yes"/>
      <point x="383" y="669"/>
      <point x="371" y="657"/>
      <point x="360" y="648" type="curve" smooth="yes"/>
      <point x="207" y="551" type="line"/>
      <point x="151" y="551" type="line"/>
      <point x="283" y="706" type="line" smooth="yes"/>
      <point x="297" y="720"/>
      <point x="307" y="733"/>
    </contour>
  </outline>
</glyph>
<glyph name="longs" format="1">
  <advance width="326"/>
  <unicode hex="017F"/>
  <outline>
    <contour>
      <point x="193" y="64" type="line"/>
      <point x="193" y="63" type="line" smooth="yes"/>
      <point x="193" y="51"/>
      <point x="202" y="41"/>
      <point x="214" y="41" type="curve" smooth="yes"/>
      <point x="273" y="38" type="line"/>
      <point x="273" y="-1" type="line"/>
      <point x="30" y="-1" type="line"/>
      <point x="30" y="38" type="line"/>
      <point x="79" y="41" type="line" smooth="yes"/>
      <point x="90" y="42"/>
      <point x="100" y="50"/>
      <point x="100" y="62" type="curve" smooth="yes"/>
      <point x="100" y="474" type="line" smooth="yes"/>
      <point x="100" y="563"/>
      <point x="126" y="626"/>
      <point x="168" y="673" type="curve" smooth="yes"/>
      <point x="199" y="707"/>
      <point x="243" y="735"/>
      <point x="304" y="735" type="curve" smooth="yes"/>
      <point x="342" y="735"/>
      <point x="372" y="722"/>
      <point x="385" y="698" type="curve" smooth="yes"/>
      <point x="389" y="691"/>
      <point x="391" y="684"/>
      <point x="391" y="676" type="curve" smooth="yes"/>
      <point x="391" y="650"/>
      <point x="374" y="632"/>
      <point x="355" y="626" type="curve" smooth="yes"/>
      <point x="345" y="623" type="line"/>
      <point x="340" y="628"/>
      <point x="329" y="635"/>
      <point x="320" y="641" type="curve" smooth="yes"/>
      <point x="298" y="656"/>
      <point x="273" y="673"/>
      <point x="252" y="688" type="curve"/>
      <point x="208" y="664"/>
      <point x="193" y="608"/>
      <point x="193" y="538" type="curve" smooth="yes"/>
    </contour>
    <contour>
      <point x="30" y="432" type="line"/>
      <point x="30" y="482" type="line"/>
      <point x="171" y="482" type="line"/>
      <point x="171" y="432" type="line"/>
    </contour>
  </outline>
</glyph>
<glyph name="uni0180" format="1">
  <advance width="555"/>
  <unicode hex="0180"/>
  <outline>
    <contour>
      <point x="183" y="456" type="line"/>
      <point x="182" y="456" type="line"/>
      <point x="220" y="473"/>
      <point x="266" y="493"/>
      <point x="321" y="493" type="curve" smooth="yes"/>
      <point x="424" y="493"/>
      <point x="484" y="431"/>
      <point x="508" y="351" type="curve" smooth="yes"/>
      <point x="516" y="323"/>
      <point x="520" y="294"/>
      <point x="520" y="263" type="curve" smooth="yes"/>
      <point x="520" y="133"/>
      <point x="460" y="56"/>
      <point x="363" y="20" type="curve" smooth="yes"/>
      <point x="327" y="7"/>
      <point x="284" y="0"/>
      <point x="234" y="0" type="curve" smooth="yes"/>
      <point x="90" y="0" type="line"/>
      <point x="90" y="539" type="line"/>
      <point x="7" y="539" type="line"/>
      <point x="7" y="590" type="line"/>
      <point x="90" y="590" type="line"/>
      <point x="90" y="665" type="line"/>
      <point x="14" y="665" type="line"/>
      <point x="14" y="698" type="line"/>
      <point x="144" y="737" type="line"/>
      <point x="183" y="737" type="line"/>
      <point x="183" y="590" type="line"/>
      <point x="304" y="590" type="line"/>
      <point x="304" y="539" type="line"/>
      <point x="183" y="539" type="line"/>
    </contour>
    <contour>
      <point x="231" y="47" type="line" smooth="yes"/>
      <point x="362" y="47"/>
      <point x="418" y="111"/>
      <point x="418" y="243" type="curve" smooth="yes"/>
      <point x="418" y="355"/>
      <point x="374" y="434"/>
      <point x="264" y="434" type="curve" smooth="yes"/>
      <point x="235" y="434"/>
      <point x="205" y="426"/>
      <point x="182" y="419" type="curve"/>
      <point x="182" y="48" type="line"/>
      <point x="187" y="48"/>
      <point x="193" y="48"/>
      <point x="199" y="47" type="curve" smooth="yes"/>
    </contour>
  </outline>
</glyph>
<glyph name="uni0185" format="1">
  <advance width="555"/>
  <unicode hex="0185"/>
  <outline>
    <contour>
      <point x="183" y="457" type="line"/>
      <point x="182" y="457" type="line"/>
      <point x="220" y="474"/>
      <point x="265" y="494"/>
      <point x="320" y="494" type="curve" smooth="yes"/>
      <point x="423" y="494"/>
      <point x="484" y="432"/>
      <point x="508" y="352" type="curve" smooth="yes"/>
      <point x="516" y="324"/>
      <point x="520" y="295"/>
      <point x="520" y="264" type="curve" smooth="yes"/>
      <point x="520" y="134"/>
      <point x="460" y="56"/>
      <point x="363" y="20" type="curve" smooth="yes"/>
      <point x="327" y="7"/>
      <point x="284" y="0"/>
      <point x="234" y="0" type="curve" smooth="yes"/>
      <point x="90" y="0" type="line"/>
      <point x="90" y="519" type="line"/>
      <point x="14" y="586" type="line"/>
      <point x="183" y="756" type="line"/>
    </contour>
    <contour>
      <point x="231" y="47" type="line" smooth="yes"/>
      <point x="362" y="47"/>
      <point x="418" y="112"/>
      <point x="418" y="244" type="curve" smooth="yes"/>
      <point x="418" y="357"/>
      <point x="371" y="435"/>
      <point x="265" y="435" type="curve" smooth="yes"/>
      <point x="235" y="435"/>
      <point x="206" y="426"/>
      <point x="182" y="419" type="curve"/>
      <point x="182" y="48" type="line"/>
      <point x="187" y="48"/>
      <point x="193" y="48"/>
      <point x="199" y="47" type="curve" smooth="yes"/>
    </contour>
  </outline>
</glyph>
<glyph name="uni018B" format="1">
  <advance width="612"/>
  <unicode hex="018B"/>
  <outline>
    <contour>
      <point x="333" y="322" type="curve" smooth="yes"/>
      <point x="220" y="322"/>
      <point x="147" y="291"/>
      <point x="147" y="180" type="curve" smooth="yes"/>
      <point x="147" y="65"/>
      <point x="231" y="46"/>
      <point x="347" y="46" type="curve" smooth="yes"/>
      <point x="365" y="46" type="line" smooth="yes"/>
      <point x="371" y="46"/>
      <point x="376" y="46"/>
      <point x="381" y="47" type="curve" smooth="yes"/>
      <point x="387" y="47"/>
      <point x="392" y="47"/>
      <point x="397" y="48" type="curve"/>
      <point x="397" y="317" type="line"/>
      <point x="377" y="319"/>
      <point x="356" y="322"/>
    </contour>
    <contour>
      <point x="397" y="603" type="line"/>
      <point x="398" y="604" type="line"/>
      <point x="398" y="615"/>
      <point x="389" y="625"/>
      <point x="377" y="625" type="curve" smooth="yes"/>
      <point x="209" y="625" type="line" smooth="yes"/>
      <point x="199" y="625"/>
      <point x="193" y="615"/>
      <point x="192" y="606" type="curve" smooth="yes"/>
      <point x="180" y="516" type="line"/>
      <point x="125" y="516" type="line"/>
      <point x="125" y="672" type="line"/>
      <point x="573" y="672" type="line"/>
      <point x="573" y="629" type="line"/>
      <point x="521" y="625" type="line" smooth="yes"/>
      <point x="509" y="624"/>
      <point x="500" y="615"/>
      <point x="500" y="604" type="curve" smooth="yes"/>
      <point x="500" y="69" type="line" smooth="yes"/>
      <point x="500" y="58"/>
      <point x="509" y="49"/>
      <point x="521" y="48" type="curve" smooth="yes"/>
      <point x="582" y="44" type="line"/>
      <point x="582" y="1" type="line"/>
      <point x="342" y="1" type="line" smooth="yes"/>
      <point x="178" y="1"/>
      <point x="40" y="24"/>
      <point x="40" y="186" type="curve" smooth="yes"/>
      <point x="40" y="256"/>
      <point x="78" y="298"/>
      <point x="125" y="325" type="curve" smooth="yes"/>
      <point x="175" y="354"/>
      <point x="247" y="370"/>
      <point x="325" y="370" type="curve" smooth="yes"/>
      <point x="350" y="370"/>
      <point x="375" y="368"/>
      <point x="397" y="365" type="curve"/>
    </contour>
  </outline>
</glyph>
<glyph name="uni0190" format="1">
  <advance width="559"/>
  <unicode hex="0190"/>
  <outline>
    <contour>
      <point x="467" y="160" type="curve"/>
      <point x="467" y="157" type="line"/>
      <point x="501" y="157"/>
      <point x="525" y="135"/>
      <point x="525" y="102" type="curve" smooth="yes"/>
      <point x="525" y="64"/>
      <point x="493" y="38"/>
      <point x="465" y="21" type="curve" smooth="yes"/>
      <point x="426" y="-4"/>
      <point x="370" y="-19"/>
      <point x="305" y="-19" type="curve" smooth="yes"/>
      <point x="150" y="-19"/>
      <point x="39" y="37"/>
      <point x="39" y="189" type="curve" smooth="yes"/>
      <point x="39" y="272"/>
      <point x="93" y="318"/>
      <point x="156" y="339" type="curve" smooth="yes"/>
      <point x="178" y="346"/>
      <point x="202" y="350"/>
      <point x="227" y="351" type="curve"/>
      <point x="178" y="365"/>
      <point x="139" y="387"/>
      <point x="112" y="419" type="curve" smooth="yes"/>
      <point x="92" y="443"/>
      <point x="79" y="472"/>
      <point x="79" y="512" type="curve" smooth="yes"/>
      <point x="79" y="603"/>
      <point x="137" y="652"/>
      <point x="209" y="673" type="curve" smooth="yes"/>
      <point x="235" y="681"/>
      <point x="264" y="685"/>
      <point x="295" y="685" type="curve" smooth="yes"/>
      <point x="388" y="685"/>
      <point x="466" y="664"/>
      <point x="499" y="606" type="curve" smooth="yes"/>
      <point x="508" y="589"/>
      <point x="513" y="571"/>
      <point x="513" y="551" type="curve" smooth="yes"/>
      <point x="513" y="516"/>
      <point x="486" y="491"/>
      <point x="452" y="491" type="curve" smooth="yes"/>
      <point x="435" y="491"/>
      <point x="416" y="499"/>
      <point x="408" y="507" type="curve"/>
      <point x="408" y="602" type="line"/>
      <point x="400" y="606"/>
      <point x="391" y="614"/>
      <point x="380" y="619" type="curve" smooth="yes"/>
      <point x="364" y="627"/>
      <point x="342" y="634"/>
      <point x="317" y="634" type="curve" smooth="yes"/>
      <point x="256" y="634"/>
      <point x="217" y="602"/>
      <point x="199" y="558" type="curve" smooth="yes"/>
      <point x="192" y="542"/>
      <point x="189" y="523"/>
      <point x="189" y="502" type="curve" smooth="yes"/>
      <point x="189" y="416"/>
      <point x="243" y="373"/>
      <point x="332" y="373" type="curve" smooth="yes"/>
      <point x="342" y="373" type="line" smooth="yes"/>
      <point x="345" y="373"/>
      <point x="348" y="373"/>
      <point x="351" y="374" type="curve" smooth="yes"/>
      <point x="359" y="374" type="line"/>
      <point x="359" y="315" type="line"/>
      <point x="345" y="315"/>
      <point x="324" y="318"/>
      <point x="304" y="318" type="curve" smooth="yes"/>
      <point x="215" y="318"/>
      <point x="149" y="280"/>
      <point x="149" y="190" type="curve" smooth="yes"/>
      <point x="149" y="115"/>
      <point x="191" y="68"/>
      <point x="246" y="46" type="curve" smooth="yes"/>
      <point x="267" y="38"/>
      <point x="291" y="34"/>
      <point x="318" y="34" type="curve" smooth="yes"/>
      <point x="355" y="34"/>
      <point x="376" y="47"/>
      <point x="400" y="62" type="curve"/>
      <point x="434" y="154" type="line"/>
      <point x="442" y="160"/>
      <point x="455" y="160"/>
    </contour>
  </outline>
</glyph>
<glyph name="florin" format="1">
  <advance width="326"/>
  <unicode hex="0192"/>
  <outline>
    <contour>
      <point x="41" y="-182" type="curve"/>
      <point x="41" y="-184" type="line"/>
      <point x="84" y="-160"/>
      <point x="99" y="-102"/>
      <point x="99" y="-33" type="curve" smooth="yes"/>
      <point x="99" y="421" type="line"/>
      <point x="35" y="421" type="line"/>
      <point x="35" y="456" type="line"/>
      <point x="99" y="474" type="line"/>
      <point x="99" y="563"/>
      <point x="125" y="626"/>
      <point x="167" y="673" type="curve" smooth="yes"/>
      <point x="198" y="707"/>
      <point x="242" y="735"/>
      <point x="303" y="735" type="curve" smooth="yes"/>
      <point x="341" y="735"/>
      <point x="371" y="722"/>
      <point x="384" y="698" type="curve" smooth="yes"/>
      <point x="388" y="691"/>
      <point x="390" y="684"/>
      <point x="390" y="676" type="curve" smooth="yes"/>
      <point x="390" y="650"/>
      <point x="373" y="632"/>
      <point x="354" y="626" type="curve" smooth="yes"/>
      <point x="344" y="623" type="line"/>
      <point x="339" y="628"/>
      <point x="328" y="635"/>
      <point x="319" y="641" type="curve" smooth="yes"/>
      <point x="297" y="656"/>
      <point x="272" y="673"/>
      <point x="251" y="688" type="curve"/>
      <point x="209" y="665"/>
      <point x="193" y="606"/>
      <point x="193" y="538" type="curve" smooth="yes"/>
      <point x="192" y="474" type="line"/>
      <point x="316" y="474" type="line"/>
      <point x="316" y="423" type="line"/>
      <point x="192" y="423" type="line"/>
      <point x="192" y="43" type="line" smooth="yes"/>
      <point x="192" y="-75"/>
      <point x="157" y="-158"/>
      <point x="84" y="-203" type="curve" smooth="yes"/>
      <point x="59" y="-219"/>
      <point x="27" y="-230"/>
      <point x="-11" y="-230" type="curve" smooth="yes"/>
      <point x="-55" y="-230"/>
      <point x="-97" y="-212"/>
      <point x="-97" y="-170" type="curve" smooth="yes"/>
      <point x="-97" y="-140"/>
      <point x="-75" y="-124"/>
      <point x="-52" y="-117" type="curve"/>
      <point x="-52" y="-120"/>
      <point x="-39" y="-127"/>
      <point x="-36" y="-129" type="curve" smooth="yes"/>
      <point x="-10" y="-147"/>
      <point x="12" y="-163"/>
    </contour>
  </outline>
</glyph>
<glyph name="uni0194" format="1">
  <advance width="666"/>
  <unicode hex="0194"/>
  <outline>
    <contour>
      <point x="327" y="42" type="curve"/>
      <point x="328" y="43" type="line"/>
      <point x="351" y="43"/>
      <point x="366" y="57"/>
      <point x="366" y="78" type="curve" smooth="yes"/>
      <point x="366" y="81"/>
      <point x="365" y="84"/>
      <point x="364" y="87" type="curve" smooth="yes"/>
      <point x="360" y="97" type="line"/>
      <point x="348" y="115"/>
      <point x="339" y="138"/>
      <point x="328" y="159" type="curve"/>
      <point x="315" y="138"/>
      <point x="302" y="118"/>
      <point x="291" y="97" type="curve" smooth="yes"/>
      <point x="288" y="90"/>
      <point x="286" y="83"/>
      <point x="286" y="77" type="curve" smooth="yes"/>
      <point x="286" y="56"/>
      <point x="305" y="42"/>
    </contour>
    <contour>
      <point x="590" y="627" type="line"/>
      <point x="387" y="262" type="line"/>
      <point x="412" y="213"/>
      <point x="433" y="173"/>
      <point x="458" y="126" type="curve" smooth="yes"/>
      <point x="465" y="113"/>
      <point x="471" y="105"/>
      <point x="471" y="87" type="curve" smooth="yes"/>
      <point x="471" y="39"/>
      <point x="439" y="9"/>
      <point x="402" y="-6" type="curve" smooth="yes"/>
      <point x="386" y="-12"/>
      <point x="367" y="-15"/>
      <point x="345" y="-15" type="curve" smooth="yes"/>
      <point x="279" y="-15"/>
      <point x="224" y="10"/>
      <point x="224" y="73" type="curve" smooth="yes"/>
      <point x="224" y="89"/>
      <point x="228" y="102"/>
      <point x="234" y="113" type="curve" smooth="yes"/>
      <point x="295" y="221" type="line"/>
      <point x="82" y="628" type="line"/>
      <point x="11" y="633" type="line"/>
      <point x="11" y="672" type="line"/>
      <point x="275" y="672" type="line"/>
      <point x="275" y="633" type="line"/>
      <point x="219" y="630" type="line" smooth="yes"/>
      <point x="210" y="629"/>
      <point x="197" y="622"/>
      <point x="203" y="612" type="curve" smooth="yes"/>
      <point x="354" y="325" type="line"/>
      <point x="517" y="612" type="line" smooth="yes"/>
      <point x="523" y="621"/>
      <point x="515" y="629"/>
      <point x="506" y="630" type="curve" smooth="yes"/>
      <point x="448" y="633" type="line"/>
      <point x="448" y="672" type="line"/>
      <point x="658" y="672" type="line"/>
      <point x="658" y="633" type="line"/>
    </contour>
  </outline>
</glyph>
<glyph name="uni0195" format="1">
  <advance width="869"/>
  <unicode hex="0195"/>
  <outline>
    <contour>
      <point x="591" y="51" type="curve"/>
      <point x="589" y="53" type="line"/>
      <point x="659" y="53"/>
      <point x="687" y="94"/>
      <point x="687" y="166" type="curve" smooth="yes"/>
      <point x="687" y="423" type="line"/>
      <point x="617" y="423" type="line"/>
      <point x="617" y="457" type="line"/>
      <point x="739" y="496" type="line"/>
      <point x="780" y="496" type="line"/>
      <point x="780" y="173" type="line" smooth="yes"/>
      <point x="780" y="85"/>
      <point x="733" y="29"/>
      <point x="668" y="4" type="curve" smooth="yes"/>
      <point x="643" y="-6"/>
      <point x="614" y="-11"/>
      <point x="581" y="-11" type="curve" smooth="yes"/>
      <point x="462" y="-11"/>
      <point x="390" y="50"/>
      <point x="390" y="166" type="curve" smooth="yes"/>
      <point x="390" y="323" type="line" smooth="yes"/>
      <point x="390" y="389"/>
      <point x="359" y="422"/>
      <point x="291" y="422" type="curve" smooth="yes"/>
      <point x="248" y="422"/>
      <point x="211" y="409"/>
      <point x="182" y="393" type="curve"/>
      <point x="182" y="65" type="line" smooth="yes"/>
      <point x="182" y="53"/>
      <point x="191" y="45"/>
      <point x="202" y="44" type="curve" smooth="yes"/>
      <point x="245" y="41" type="line"/>
      <point x="245" y="2" type="line"/>
      <point x="20" y="2" type="line"/>
      <point x="20" y="41" type="line"/>
      <point x="68" y="44" type="line" smooth="yes"/>
      <point x="79" y="45"/>
      <point x="89" y="53"/>
      <point x="89" y="65" type="curve" smooth="yes"/>
      <point x="89" y="666" type="line"/>
      <point x="14" y="666" type="line"/>
      <point x="14" y="699" type="line"/>
      <point x="142" y="738" type="line"/>
      <point x="182" y="738" type="line"/>
      <point x="182" y="433" type="line"/>
      <point x="218" y="453"/>
      <point x="260" y="476"/>
      <point x="305" y="488" type="curve" smooth="yes"/>
      <point x="321" y="492"/>
      <point x="335" y="494"/>
      <point x="348" y="494" type="curve" smooth="yes"/>
      <point x="437" y="494"/>
      <point x="484" y="434"/>
      <point x="484" y="343" type="curve" smooth="yes"/>
      <point x="484" y="169" type="line" smooth="yes"/>
      <point x="484" y="90"/>
      <point x="515" y="51"/>
    </contour>
  </outline>
</glyph>
<glyph name="uni0199" format="1">
  <advance width="535"/>
  <unicode hex="0199"/>
  <outline>
    <contour>
      <point x="242" y="688" type="line"/>
      <point x="241" y="687" type="line"/>
      <point x="197" y="663"/>
      <point x="182" y="607"/>
      <point x="182" y="537" type="curve" smooth="yes"/>
      <point x="182" y="255" type="line"/>
      <point x="203" y="255" type="line"/>
      <point x="351" y="420" type="line" smooth="yes"/>
      <point x="358" y="427"/>
      <point x="348" y="437"/>
      <point x="342" y="438" type="curve" smooth="yes"/>
      <point x="301" y="442" type="line"/>
      <point x="301" y="481" type="line"/>
      <point x="495" y="481" type="line"/>
      <point x="495" y="442" type="line"/>
      <point x="431" y="434" type="line"/>
      <point x="299" y="294" type="line"/>
      <point x="471" y="44" type="line"/>
      <point x="524" y="38" type="line"/>
      <point x="524" y="-1" type="line"/>
      <point x="369" y="-1" type="line"/>
      <point x="369" y="38" type="line"/>
      <point x="239" y="226" type="line"/>
      <point x="182" y="226" type="line"/>
      <point x="182" y="63" type="line" smooth="yes"/>
      <point x="182" y="51"/>
      <point x="192" y="43"/>
      <point x="203" y="42" type="curve" smooth="yes"/>
      <point x="247" y="38" type="line"/>
      <point x="247" y="-1" type="line"/>
      <point x="20" y="-1" type="line"/>
      <point x="20" y="38" type="line"/>
      <point x="69" y="42" type="line" smooth="yes"/>
      <point x="80" y="43"/>
      <point x="89" y="51"/>
      <point x="89" y="63" type="curve" smooth="yes"/>
      <point x="89" y="463" type="line" smooth="yes"/>
      <point x="89" y="589"/>
      <point x="135" y="689"/>
      <point x="226" y="725" type="curve" smooth="yes"/>
      <point x="246" y="733"/>
      <point x="268" y="737"/>
      <point x="293" y="737" type="curve" smooth="yes"/>
      <point x="332" y="737"/>
      <point x="361" y="724"/>
      <point x="374" y="699" type="curve" smooth="yes"/>
      <point x="378" y="692"/>
      <point x="380" y="685"/>
      <point x="380" y="678" type="curve" smooth="yes"/>
      <point x="380" y="652"/>
      <point x="362" y="633"/>
      <point x="343" y="627" type="curve" smooth="yes"/>
      <point x="338" y="625"/>
      <point x="335" y="624"/>
      <point x="334" y="623" type="curve" smooth="yes"/>
    </contour>
  </outline>
</glyph>
<glyph name="uni019B" format="1">
  <advance width="645"/>
  <unicode hex="019B"/>
  <outline>
    <contour>
      <point x="272" y="554" type="line"/>
      <point x="438" y="141" type="line" smooth="yes"/>
      <point x="449" y="114"/>
      <point x="459" y="91"/>
      <point x="474" y="73" type="curve" smooth="yes"/>
      <point x="482" y="63"/>
      <point x="492" y="54"/>
      <point x="507" y="54" type="curve" smooth="yes"/>
      <point x="516" y="54"/>
      <point x="525" y="57"/>
      <point x="535" y="63" type="curve"/>
      <point x="578" y="148" type="line"/>
      <point x="602" y="148"/>
      <point x="622" y="126"/>
      <point x="631" y="109" type="curve" smooth="yes"/>
      <point x="635" y="102"/>
      <point x="637" y="95"/>
      <point x="637" y="88" type="curve" smooth="yes"/>
      <point x="637" y="10"/>
      <point x="598" y="-14"/>
      <point x="519" y="-14" type="curve" smooth="yes"/>
      <point x="439" y="-14"/>
      <point x="410" y="49"/>
      <point x="387" y="108" type="curve" smooth="yes"/>
      <point x="289" y="351" type="line"/>
      <point x="107" y="-2" type="line"/>
      <point x="11" y="-2" type="line"/>
      <point x="246" y="454" type="line"/>
      <point x="239" y="473"/>
      <point x="230" y="492"/>
      <point x="224" y="509" type="curve"/>
      <point x="97" y="398" type="line"/>
      <point x="97" y="470" type="line"/>
      <point x="202" y="562" type="line"/>
      <point x="191" y="585"/>
      <point x="181" y="600"/>
      <point x="172" y="608" type="curve" smooth="yes"/>
      <point x="163" y="616"/>
      <point x="154" y="620"/>
      <point x="145" y="620" type="curve" smooth="yes"/>
      <point x="133" y="620"/>
      <point x="126" y="615"/>
      <point x="117" y="610" type="curve"/>
      <point x="73" y="525" type="line"/>
      <point x="49" y="525"/>
      <point x="29" y="547"/>
      <point x="20" y="564" type="curve" smooth="yes"/>
      <point x="16" y="571"/>
      <point x="14" y="578"/>
      <point x="14" y="585" type="curve" smooth="yes"/>
      <point x="14" y="664"/>
      <point x="53" y="687"/>
      <point x="132" y="687" type="curve" smooth="yes"/>
      <point x="161" y="687"/>
      <point x="184" y="680"/>
      <point x="202" y="666" type="curve" smooth="yes"/>
      <point x="220" y="652"/>
      <point x="236" y="632"/>
      <point x="250" y="605" type="curve"/>
      <point x="343" y="687" type="line"/>
      <point x="343" y="615" type="line"/>
    </contour>
  </outline>
</glyph>
<glyph name="uni019D" format="1">
  <advance width="721"/>
  <unicode hex="019D"/>
  <outline>
    <contour>
      <point x="165" y="-24" type="line"/>
      <point x="164" y="-25" type="line"/>
      <point x="164" y="-150"/>
      <point x="111" y="-230"/>
      <point x="-11" y="-230" type="curve" smooth="yes"/>
      <point x="-51" y="-230"/>
      <point x="-77" y="-214"/>
      <point x="-89" y="-187" type="curve" smooth="yes"/>
      <point x="-92" y="-179"/>
      <point x="-94" y="-171"/>
      <point x="-94" y="-163" type="curve" smooth="yes"/>
      <point x="-94" y="-134"/>
      <point x="-76" y="-111"/>
      <point x="-59" y="-100" type="curve" smooth="yes"/>
      <point x="-54" y="-97"/>
      <point x="-50" y="-95"/>
      <point x="-48" y="-95" type="curve" smooth="yes"/>
      <point x="35" y="-183" type="line"/>
      <point x="57" y="-183"/>
      <point x="72" y="-164"/>
      <point x="82" y="-147" type="curve" smooth="yes"/>
      <point x="97" y="-122"/>
      <point x="106" y="-88"/>
      <point x="106" y="-47" type="curve" smooth="yes"/>
      <point x="106" y="602" type="line" smooth="yes"/>
      <point x="106" y="614"/>
      <point x="96" y="623"/>
      <point x="84" y="624" type="curve" smooth="yes"/>
      <point x="25" y="628" type="line"/>
      <point x="25" y="671" type="line"/>
      <point x="223" y="671" type="line"/>
      <point x="223" y="646" type="line"/>
      <point x="556" y="143" type="line"/>
      <point x="556" y="602" type="line" smooth="yes"/>
      <point x="556" y="613"/>
      <point x="546" y="623"/>
      <point x="535" y="624" type="curve" smooth="yes"/>
      <point x="478" y="628" type="line"/>
      <point x="478" y="671" type="line"/>
      <point x="692" y="671" type="line"/>
      <point x="692" y="628" type="line"/>
      <point x="636" y="624" type="line" smooth="yes"/>
      <point x="624" y="623"/>
      <point x="615" y="614"/>
      <point x="615" y="602" type="curve" smooth="yes"/>
      <point x="615" y="0" type="line"/>
      <point x="537" y="0" type="line"/>
      <point x="165" y="560" type="line"/>
    </contour>
  </outline>
</glyph>
<glyph name="Ohorn" format="1">
  <advance width="811"/>
  <unicode hex="01A0"/>
  <outline>
    <contour>
      <point x="577" y="334" type="curve"/>
      <point x="578" y="333" type="line"/>
      <point x="578" y="459"/>
      <point x="539" y="558"/>
      <point x="460" y="605" type="curve" smooth="yes"/>
      <point x="434" y="621"/>
      <point x="404" y="629"/>
      <point x="369" y="629" type="curve" smooth="yes"/>
      <point x="291" y="629"/>
      <point x="240" y="591"/>
      <point x="208" y="542" type="curve" smooth="yes"/>
      <point x="174" y="491"/>
      <point x="156" y="419"/>
      <point x="156" y="336" type="curve" smooth="yes"/>
      <point x="156" y="211"/>
      <point x="195" y="111"/>
      <point x="273" y="63" type="curve" smooth="yes"/>
      <point x="299" y="47"/>
      <point x="330" y="39"/>
      <point x="365" y="39" type="curve" smooth="yes"/>
      <point x="442" y="39"/>
      <point x="493" y="78"/>
      <point x="525" y="127" type="curve" smooth="yes"/>
      <point x="558" y="178"/>
      <point x="577" y="251"/>
    </contour>
    <contour>
      <point x="680" y="857" type="curve"/>
      <point x="681" y="859" type="line"/>
      <point x="757" y="859"/>
      <point x="794" y="802"/>
      <point x="794" y="724" type="curve" smooth="yes"/>
      <point x="794" y="679"/>
      <point x="768" y="643"/>
      <point x="744" y="617" type="curve" smooth="yes"/>
      <point x="716" y="586"/>
      <point x="679" y="557"/>
      <point x="640" y="539" type="curve"/>
      <point x="672" y="487"/>
      <point x="695" y="418"/>
      <point x="695" y="336" type="curve" smooth="yes"/>
      <point x="695" y="231"/>
      <point x="657" y="146"/>
      <point x="605" y="88" type="curve" smooth="yes"/>
      <point x="553" y="30"/>
      <point x="473" y="-15"/>
      <point x="368" y="-15" type="curve" smooth="yes"/>
      <point x="262" y="-15"/>
      <point x="184" y="27"/>
      <point x="131" y="85" type="curve" smooth="yes"/>
      <point x="77" y="144"/>
      <point x="40" y="228"/>
      <point x="40" y="336" type="curve" smooth="yes"/>
      <point x="40" y="481"/>
      <point x="104" y="583"/>
      <point x="194" y="639" type="curve" smooth="yes"/>
      <point x="239" y="667"/>
      <point x="296" y="686"/>
      <point x="367" y="686" type="curve" smooth="yes"/>
      <point x="477" y="686"/>
      <point x="559" y="636"/>
      <point x="613" y="573" type="curve"/>
      <point x="653" y="598"/>
      <point x="691" y="629"/>
      <point x="709" y="674" type="curve" smooth="yes"/>
      <point x="715" y="688"/>
      <point x="718" y="703"/>
      <point x="718" y="718" type="curve"/>
      <point x="627" y="718" type="line"/>
      <point x="613" y="733"/>
      <point x="598" y="756"/>
      <point x="598" y="785" type="curve" smooth="yes"/>
      <point x="598" y="829"/>
      <point x="636" y="857"/>
    </contour>
  </outline>
</glyph>
<glyph name="uni01A4" format="1">
  <advance width="650"/>
  <unicode hex="01A4"/>
  <outline>
    <contour>
      <point x="336" y="301" type="curve" smooth="yes"/>
      <point x="447" y="301"/>
      <point x="508" y="357"/>
      <point x="508" y="468" type="curve" smooth="yes"/>
      <point x="508" y="578"/>
      <point x="443" y="622"/>
      <point x="331" y="622" type="curve" smooth="yes"/>
      <point x="298" y="622" type="line" smooth="yes"/>
      <point x="292" y="622"/>
      <point x="286" y="622"/>
      <point x="280" y="621" type="curve"/>
      <point x="280" y="306" type="line"/>
      <point x="297" y="306"/>
      <point x="317" y="301"/>
    </contour>
    <contour>
      <point x="-16" y="563" type="curve" smooth="yes"/>
      <point x="-16" y="647"/>
      <point x="56" y="671"/>
      <point x="147" y="671" type="curve" smooth="yes"/>
      <point x="336" y="671" type="line" smooth="yes"/>
      <point x="501" y="671"/>
      <point x="612" y="632"/>
      <point x="612" y="469" type="curve" smooth="yes"/>
      <point x="612" y="354"/>
      <point x="543" y="289"/>
      <point x="453" y="263" type="curve" smooth="yes"/>
      <point x="421" y="254"/>
      <point x="387" y="250"/>
      <point x="351" y="251" type="curve" smooth="yes"/>
      <point x="331" y="251"/>
      <point x="308" y="252"/>
      <point x="289" y="253" type="curve" smooth="yes"/>
      <point x="284" y="253"/>
      <point x="281" y="254"/>
      <point x="280" y="255" type="curve" smooth="yes"/>
      <point x="280" y="69" type="line" smooth="yes"/>
      <point x="280" y="58"/>
      <point x="290" y="48"/>
      <point x="301" y="47" type="curve" smooth="yes"/>
      <point x="367" y="43" type="line"/>
      <point x="367" y="0" type="line"/>
      <point x="104" y="0" type="line"/>
      <point x="104" y="43" type="line"/>
      <point x="156" y="47" type="line" smooth="yes"/>
      <point x="167" y="48"/>
      <point x="179" y="59"/>
      <point x="179" y="69" type="curve" smooth="yes"/>
      <point x="179" y="603" type="line" smooth="yes"/>
      <point x="179" y="616"/>
      <point x="171" y="624"/>
      <point x="158" y="624" type="curve" smooth="yes"/>
      <point x="120" y="624" type="line" smooth="yes"/>
      <point x="88" y="624"/>
      <point x="73" y="618"/>
      <point x="61" y="600" type="curve"/>
      <point x="103" y="529" type="line"/>
      <point x="87" y="511"/>
      <point x="68" y="499"/>
      <point x="39" y="499" type="curve" smooth="yes"/>
      <point x="7" y="499"/>
      <point x="-16" y="531"/>
    </contour>
  </outline>
</glyph>
